M48
; DRILL file KiCad 10.0.0 date 2026-06-30T21:05:55
; FORMAT={-:-/ absolute / metric / decimal}
; #@! TF.CreationDate,2026-06-30T21:05:55+02:00
; #@! TF.GenerationSoftware,Kicad,Pcbnew,10.0.0
; #@! TF.FileFunction,Plated,1,2,PTH
FMAT,2
METRIC
; #@! TA.AperFunction,Plated,PTH,ComponentDrill
T1C0.700
; #@! TA.AperFunction,Plated,PTH,ComponentDrill
T2C0.800
; #@! TA.AperFunction,Plated,PTH,ComponentDrill
T3C1.000
; #@! TA.AperFunction,Plated,PTH,ComponentDrill
T4C1.100
; #@! TA.AperFunction,Plated,PTH,ComponentDrill
T5C1.300
%
G90
G05
T2
X106.13Y-91.25
X106.13Y-96.0
X106.13Y-100.75
X109.0Y-111.5
X113.0Y-111.5
X113.75Y-91.25
X113.75Y-96.0
X113.75Y-100.75
X115.0Y-111.5
X117.0Y-111.5
X121.329Y-82.25
X121.329Y-84.79
X121.329Y-87.33
X121.329Y-89.87
X123.5Y-75.0
X123.5Y-97.0
X124.5Y-111.5
X126.0Y-75.0
X126.0Y-97.0
X128.5Y-111.5
X128.949Y-82.25
X128.949Y-84.79
X128.949Y-87.33
X128.949Y-89.87
X130.5Y-111.5
X132.5Y-111.5
X135.63Y-82.25
X135.69Y-77.5
X135.75Y-72.75
X139.5Y-87.0
X139.5Y-94.62
X143.25Y-82.25
X143.31Y-77.5
X143.37Y-72.75
X147.5Y-87.0
X147.5Y-94.62
X150.25Y-82.25
X155.25Y-82.25
X155.25Y-94.62
X155.392Y-87.0
X160.25Y-82.25
X162.75Y-87.0
X162.75Y-94.62
X165.25Y-82.25
X171.88Y-82.25
X171.88Y-84.79
X171.88Y-87.33
X171.88Y-89.87
X174.432Y-97.0
X174.5Y-75.0
X176.932Y-97.0
X177.0Y-75.0
X179.5Y-82.25
X179.5Y-84.79
X179.5Y-87.33
X179.5Y-89.87
X186.19Y-87.25
X193.81Y-87.25
T3
X142.0Y-106.5
X144.5Y-106.5
X147.0Y-106.5
X155.75Y-106.5
X158.25Y-106.5
X160.75Y-106.5
X170.75Y-106.5
X173.25Y-106.5
X175.75Y-106.5
X184.5Y-106.5
X187.0Y-106.5
X189.5Y-106.5
T4
X150.25Y-75.0
X165.25Y-75.0
T5
X110.0Y-75.0
X110.0Y-80.0
X110.0Y-85.0
X190.0Y-75.0
X190.0Y-80.0
T1
G00X107.0Y-111.1
M15
G01X107.0Y-111.9
M16
G05
G00X119.0Y-111.1
M15
G01X119.0Y-111.9
M16
G05
G00X122.5Y-111.1
M15
G01X122.5Y-111.9
M16
G05
G00X134.5Y-111.1
M15
G01X134.5Y-111.9
M16
G05
T4
G00X139.7Y-113.65
M15
G01X139.7Y-114.35
M16
G05
G00X149.3Y-113.65
M15
G01X149.3Y-114.35
M16
G05
G00X153.45Y-113.65
M15
G01X153.45Y-114.35
M16
G05
G00X163.05Y-113.65
M15
G01X163.05Y-114.35
M16
G05
G00X168.45Y-113.65
M15
G01X168.45Y-114.35
M16
G05
G00X178.05Y-113.65
M15
G01X178.05Y-114.35
M16
G05
G00X182.2Y-113.65
M15
G01X182.2Y-114.35
M16
G05
G00X191.8Y-113.65
M15
G01X191.8Y-114.35
M16
G05
M30
