%TF.GenerationSoftware,KiCad,Pcbnew,10.0.0*%
%TF.CreationDate,2026-06-30T21:05:47+02:00*%
%TF.ProjectId,Triple-S Generator,54726970-6c65-42d5-9320-47656e657261,rev?*%
%TF.SameCoordinates,Original*%
%TF.FileFunction,Legend,Top*%
%TF.FilePolarity,Positive*%
%FSLAX46Y46*%
G04 Gerber Fmt 4.6, Leading zero omitted, Abs format (unit mm)*
G04 Created by KiCad (PCBNEW 10.0.0) date 2026-06-30 21:05:47*
%MOMM*%
%LPD*%
G01*
G04 APERTURE LIST*
%ADD10C,0.187500*%
%ADD11C,0.600000*%
%ADD12C,0.250000*%
%ADD13C,0.150000*%
%ADD14C,0.120000*%
%ADD15C,0.100000*%
%ADD16C,0.508000*%
G04 APERTURE END LIST*
D10*
G36*
X186521908Y-96630129D02*
G01*
X186287252Y-96630129D01*
X186222680Y-96388328D01*
X185857873Y-96388328D01*
X185793301Y-96630129D01*
X185558736Y-96630129D01*
X185689319Y-96145429D01*
X185923452Y-96145429D01*
X186157101Y-96145429D01*
X186041330Y-95656699D01*
X185923452Y-96145429D01*
X185689319Y-96145429D01*
X185970621Y-95101290D01*
X186109931Y-95101290D01*
X186521908Y-96630129D01*
G37*
G36*
X187187422Y-95124993D02*
G01*
X187250944Y-95143925D01*
X187309133Y-95175276D01*
X187362989Y-95219993D01*
X187407752Y-95273858D01*
X187439098Y-95331909D01*
X187458004Y-95395129D01*
X187464472Y-95464907D01*
X187453493Y-95555257D01*
X187421355Y-95634952D01*
X187367110Y-95706707D01*
X187433821Y-95733789D01*
X187496821Y-95772332D01*
X187556704Y-95823303D01*
X187617285Y-95896593D01*
X187659694Y-95975436D01*
X187685260Y-96061150D01*
X187693999Y-96155595D01*
X187685222Y-96250062D01*
X187659556Y-96335712D01*
X187616981Y-96414422D01*
X187556154Y-96487521D01*
X187482992Y-96548159D01*
X187404170Y-96590625D01*
X187318359Y-96616239D01*
X187223679Y-96625000D01*
X186767738Y-96625000D01*
X186767738Y-96230792D01*
X186997266Y-96230792D01*
X186997266Y-96396388D01*
X187223679Y-96396388D01*
X187286732Y-96388047D01*
X187342761Y-96363430D01*
X187393763Y-96321284D01*
X187433100Y-96267757D01*
X187456476Y-96208272D01*
X187464472Y-96140849D01*
X187456504Y-96074154D01*
X187433156Y-96015019D01*
X187393763Y-95961514D01*
X187342761Y-95919368D01*
X187286732Y-95894751D01*
X187223679Y-95886409D01*
X186997266Y-95886409D01*
X186997266Y-96230792D01*
X186767738Y-96230792D01*
X186767738Y-95605041D01*
X186997266Y-95605041D01*
X187117067Y-95605041D01*
X187162363Y-95595756D01*
X187200598Y-95567581D01*
X187226207Y-95526195D01*
X187234944Y-95475532D01*
X187226249Y-95425831D01*
X187200598Y-95384673D01*
X187162356Y-95356426D01*
X187117067Y-95347121D01*
X186997266Y-95347121D01*
X186997266Y-95605041D01*
X186767738Y-95605041D01*
X186767738Y-95118510D01*
X187117158Y-95118510D01*
X187187422Y-95124993D01*
G37*
G36*
X187940104Y-95106786D02*
G01*
X188169631Y-95106786D01*
X188169631Y-96625000D01*
X187940104Y-96625000D01*
X187940104Y-95106786D01*
G37*
G36*
X188414912Y-95106786D02*
G01*
X189398600Y-95106786D01*
X189398600Y-95347121D01*
X189021520Y-95347121D01*
X189021520Y-96619138D01*
X188791993Y-96619138D01*
X188791993Y-95347121D01*
X188414912Y-95347121D01*
X188414912Y-95106786D01*
G37*
G36*
X189644431Y-95804344D02*
G01*
X190323762Y-95804344D01*
X190323762Y-95980198D01*
X189644431Y-95980198D01*
X189644431Y-95804344D01*
G37*
G36*
X190988775Y-95123162D02*
G01*
X191052327Y-95142097D01*
X191110530Y-95173449D01*
X191164384Y-95218161D01*
X191209152Y-95272027D01*
X191240498Y-95330065D01*
X191259402Y-95393254D01*
X191265867Y-95462984D01*
X191254890Y-95553337D01*
X191222754Y-95633064D01*
X191168506Y-95704876D01*
X191235213Y-95732016D01*
X191298214Y-95770619D01*
X191358100Y-95821654D01*
X191418666Y-95895073D01*
X191461078Y-95974079D01*
X191486651Y-96059994D01*
X191495395Y-96154679D01*
X191486616Y-96249339D01*
X191460943Y-96335158D01*
X191418367Y-96414018D01*
X191357550Y-96487247D01*
X191284371Y-96548017D01*
X191205545Y-96590565D01*
X191119739Y-96616224D01*
X191025074Y-96625000D01*
X190569134Y-96625000D01*
X190569134Y-96229509D01*
X190798661Y-96229509D01*
X190798661Y-96395472D01*
X191025074Y-96395472D01*
X191088115Y-96387114D01*
X191144144Y-96362441D01*
X191195159Y-96320184D01*
X191234496Y-96266484D01*
X191257872Y-96206845D01*
X191265867Y-96139292D01*
X191257896Y-96072409D01*
X191234544Y-96013122D01*
X191195159Y-95959499D01*
X191144137Y-95917186D01*
X191088109Y-95892486D01*
X191025074Y-95884119D01*
X190798661Y-95884119D01*
X190798661Y-96229509D01*
X190569134Y-96229509D01*
X190569134Y-95603393D01*
X190798661Y-95603393D01*
X190918462Y-95603393D01*
X190963766Y-95594127D01*
X191001993Y-95566024D01*
X191027607Y-95524739D01*
X191036340Y-95474249D01*
X191027649Y-95424722D01*
X191001993Y-95383666D01*
X190963759Y-95355490D01*
X190918462Y-95346205D01*
X190798661Y-95346205D01*
X190798661Y-95603393D01*
X190569134Y-95603393D01*
X190569134Y-95116678D01*
X190918462Y-95116678D01*
X190988775Y-95123162D01*
G37*
G36*
X191594954Y-95106786D02*
G01*
X191837762Y-95106786D01*
X192122610Y-95964994D01*
X192406451Y-95106786D01*
X192649259Y-95106786D01*
X192253769Y-96234913D01*
X192253769Y-96625000D01*
X191990444Y-96625000D01*
X191990444Y-96234913D01*
X191594954Y-95106786D01*
G37*
G36*
X192748269Y-95106786D02*
G01*
X193731957Y-95106786D01*
X193731957Y-95347121D01*
X193354876Y-95347121D01*
X193354876Y-96619138D01*
X193125349Y-96619138D01*
X193125349Y-95347121D01*
X192748269Y-95347121D01*
X192748269Y-95106786D01*
G37*
G36*
X193977787Y-95118510D02*
G01*
X194676536Y-95118510D01*
X194676536Y-95347121D01*
X194208322Y-95347121D01*
X194208322Y-95903995D01*
X194676536Y-95903995D01*
X194676536Y-96132606D01*
X194208322Y-96132606D01*
X194208322Y-96396388D01*
X194676536Y-96396388D01*
X194676536Y-96625000D01*
X193977787Y-96625000D01*
X193977787Y-95118510D01*
G37*
G36*
X184482450Y-97797512D02*
G01*
X184557573Y-97738497D01*
X184640261Y-97687877D01*
X184735317Y-97645992D01*
X184824572Y-97624018D01*
X184909722Y-97619825D01*
X184993894Y-97631942D01*
X185064780Y-97657903D01*
X185124869Y-97697128D01*
X185173619Y-97749078D01*
X185211271Y-97814422D01*
X185237618Y-97895881D01*
X185250601Y-98005730D01*
X185242747Y-98133651D01*
X185223975Y-98234927D01*
X185184603Y-98345411D01*
X185121179Y-98467138D01*
X185029305Y-98602107D01*
X184903767Y-98752278D01*
X184738630Y-98919594D01*
X185278559Y-98919594D01*
X185278559Y-99145000D01*
X184443523Y-99145000D01*
X184443523Y-98919594D01*
X184672568Y-98679544D01*
X184829821Y-98489142D01*
X184930637Y-98339797D01*
X184988390Y-98223682D01*
X185014227Y-98133651D01*
X185021399Y-98068060D01*
X185016242Y-98014766D01*
X184991410Y-97948891D01*
X184952770Y-97902109D01*
X184918691Y-97880977D01*
X184878830Y-97869707D01*
X184831320Y-97868770D01*
X184758508Y-97883682D01*
X184679187Y-97917404D01*
X184607157Y-97965361D01*
X184544915Y-98025024D01*
X184482450Y-97800626D01*
X184482450Y-97797512D01*
G37*
G36*
X185527046Y-97632648D02*
G01*
X185920521Y-97632648D01*
X185920521Y-99145000D01*
X185689986Y-99145000D01*
X185689986Y-97867121D01*
X185525031Y-97867121D01*
X185527046Y-97632648D01*
G37*
G36*
X186166901Y-98324344D02*
G01*
X186846232Y-98324344D01*
X186846232Y-98500198D01*
X186166901Y-98500198D01*
X186166901Y-98324344D01*
G37*
G36*
X187615587Y-97633828D02*
G01*
X187672509Y-97650276D01*
X187730452Y-97678718D01*
X187808483Y-97737952D01*
X187877456Y-97819036D01*
X187920147Y-97888595D01*
X187956858Y-97970538D01*
X187987090Y-98066606D01*
X188015184Y-98217758D01*
X188025009Y-98388824D01*
X188015084Y-98557066D01*
X187986541Y-98707469D01*
X187956152Y-98803250D01*
X187919626Y-98884990D01*
X187877456Y-98954398D01*
X187809190Y-99035470D01*
X187730910Y-99094808D01*
X187672676Y-99123210D01*
X187615600Y-99139623D01*
X187558810Y-99145000D01*
X187501355Y-99139603D01*
X187443910Y-99123170D01*
X187385612Y-99094808D01*
X187307407Y-99035477D01*
X187239157Y-98954398D01*
X187196978Y-98884993D01*
X187160423Y-98803253D01*
X187129981Y-98707469D01*
X187101506Y-98557070D01*
X187091604Y-98388824D01*
X187091725Y-98386717D01*
X187322139Y-98386717D01*
X187327687Y-98502453D01*
X187344121Y-98613771D01*
X187371270Y-98718725D01*
X187404113Y-98799701D01*
X187439924Y-98853763D01*
X187476996Y-98888480D01*
X187515816Y-98908019D01*
X187557803Y-98914465D01*
X187600309Y-98907988D01*
X187639461Y-98888395D01*
X187676695Y-98853667D01*
X187712500Y-98799701D01*
X187744622Y-98719611D01*
X187771943Y-98614229D01*
X187788795Y-98502500D01*
X187794474Y-98386717D01*
X187788764Y-98269249D01*
X187771943Y-98157739D01*
X187744639Y-98052759D01*
X187712500Y-97972725D01*
X187676263Y-97919238D01*
X187638889Y-97884833D01*
X187599869Y-97865452D01*
X187557803Y-97859061D01*
X187515753Y-97865464D01*
X187476910Y-97884857D01*
X187439861Y-97919255D01*
X187404113Y-97972725D01*
X187371974Y-98052759D01*
X187344670Y-98157739D01*
X187327849Y-98269249D01*
X187322139Y-98386717D01*
X187091725Y-98386717D01*
X187101406Y-98217754D01*
X187129431Y-98066606D01*
X187159672Y-97970545D01*
X187196414Y-97888601D01*
X187239157Y-97819036D01*
X187308845Y-97737864D01*
X187386619Y-97678718D01*
X187444272Y-97650333D01*
X187501379Y-97633856D01*
X187558810Y-97628435D01*
X187615587Y-97633828D01*
G37*
G36*
X188862983Y-97887684D02*
G01*
X188727973Y-98082312D01*
X188647279Y-98221762D01*
X188642149Y-98231012D01*
X188706358Y-98218730D01*
X188772300Y-98214617D01*
X188856872Y-98221557D01*
X188939179Y-98242379D01*
X189020237Y-98277632D01*
X189094073Y-98325615D01*
X189155160Y-98384075D01*
X189204702Y-98453853D01*
X189241502Y-98531394D01*
X189263105Y-98609761D01*
X189270281Y-98690067D01*
X189262981Y-98771674D01*
X189241032Y-98851039D01*
X189203694Y-98929303D01*
X189153446Y-98999647D01*
X189092003Y-99057920D01*
X189018222Y-99105066D01*
X188937204Y-99139497D01*
X188855551Y-99159783D01*
X188772300Y-99166523D01*
X188690379Y-99159818D01*
X188609396Y-99139568D01*
X188528393Y-99105066D01*
X188454599Y-99057966D01*
X188392804Y-98999693D01*
X188341914Y-98929303D01*
X188303990Y-98850983D01*
X188281722Y-98771627D01*
X188274411Y-98691074D01*
X188504854Y-98691074D01*
X188513819Y-98756710D01*
X188541216Y-98820218D01*
X188584346Y-98874543D01*
X188640684Y-98914465D01*
X188705376Y-98939127D01*
X188772300Y-98947254D01*
X188839452Y-98939149D01*
X188905016Y-98914465D01*
X188961960Y-98874424D01*
X189004392Y-98820218D01*
X189031014Y-98756768D01*
X189039746Y-98691074D01*
X189031063Y-98627220D01*
X189004392Y-98564587D01*
X188962113Y-98510510D01*
X188905474Y-98469790D01*
X188840184Y-98444308D01*
X188772300Y-98435901D01*
X188704403Y-98444305D01*
X188639035Y-98469790D01*
X188582472Y-98510504D01*
X188540209Y-98564587D01*
X188513538Y-98627220D01*
X188504854Y-98691074D01*
X188274411Y-98691074D01*
X188274320Y-98690067D01*
X188274320Y-98689059D01*
X188283763Y-98571118D01*
X188316257Y-98434541D01*
X188376506Y-98275568D01*
X188470331Y-98090219D01*
X188604512Y-97874303D01*
X188786680Y-97623397D01*
X189069513Y-97623397D01*
X188862983Y-97887684D01*
G37*
G36*
X189516936Y-98324344D02*
G01*
X190196267Y-98324344D01*
X190196267Y-98500198D01*
X189516936Y-98500198D01*
X189516936Y-98324344D01*
G37*
G36*
X190480565Y-97797512D02*
G01*
X190555689Y-97738497D01*
X190638377Y-97687877D01*
X190733433Y-97645992D01*
X190822688Y-97624018D01*
X190907838Y-97619825D01*
X190992010Y-97631942D01*
X191062896Y-97657903D01*
X191122985Y-97697128D01*
X191171735Y-97749078D01*
X191209387Y-97814422D01*
X191235734Y-97895881D01*
X191248717Y-98005730D01*
X191240863Y-98133651D01*
X191222091Y-98234927D01*
X191182719Y-98345411D01*
X191119295Y-98467138D01*
X191027421Y-98602107D01*
X190901882Y-98752278D01*
X190736746Y-98919594D01*
X191276675Y-98919594D01*
X191276675Y-99145000D01*
X190441639Y-99145000D01*
X190441639Y-98919594D01*
X190670684Y-98679544D01*
X190827937Y-98489142D01*
X190928752Y-98339797D01*
X190986506Y-98223682D01*
X191012343Y-98133651D01*
X191019515Y-98068060D01*
X191014358Y-98014766D01*
X190989525Y-97948891D01*
X190950885Y-97902109D01*
X190916807Y-97880977D01*
X190876946Y-97869707D01*
X190829436Y-97868770D01*
X190756624Y-97883682D01*
X190677303Y-97917404D01*
X190605273Y-97965361D01*
X190543030Y-98025024D01*
X190480565Y-97800626D01*
X190480565Y-97797512D01*
G37*
G36*
X192047129Y-97633828D02*
G01*
X192104052Y-97650276D01*
X192161994Y-97678718D01*
X192240025Y-97737952D01*
X192308998Y-97819036D01*
X192351689Y-97888595D01*
X192388400Y-97970538D01*
X192418632Y-98066606D01*
X192446726Y-98217758D01*
X192456551Y-98388824D01*
X192446626Y-98557066D01*
X192418083Y-98707469D01*
X192387694Y-98803250D01*
X192351169Y-98884990D01*
X192308998Y-98954398D01*
X192240732Y-99035470D01*
X192162452Y-99094808D01*
X192104218Y-99123210D01*
X192047143Y-99139623D01*
X191990353Y-99145000D01*
X191932897Y-99139603D01*
X191875452Y-99123170D01*
X191817154Y-99094808D01*
X191738950Y-99035477D01*
X191670700Y-98954398D01*
X191628521Y-98884993D01*
X191591965Y-98803253D01*
X191561523Y-98707469D01*
X191533049Y-98557070D01*
X191523146Y-98388824D01*
X191523267Y-98386717D01*
X191753681Y-98386717D01*
X191759229Y-98502453D01*
X191775663Y-98613771D01*
X191802812Y-98718725D01*
X191835655Y-98799701D01*
X191871466Y-98853763D01*
X191908538Y-98888480D01*
X191947358Y-98908019D01*
X191989345Y-98914465D01*
X192031851Y-98907988D01*
X192071003Y-98888395D01*
X192108237Y-98853667D01*
X192144042Y-98799701D01*
X192176165Y-98719611D01*
X192203485Y-98614229D01*
X192220337Y-98502500D01*
X192226016Y-98386717D01*
X192220306Y-98269249D01*
X192203485Y-98157739D01*
X192176181Y-98052759D01*
X192144042Y-97972725D01*
X192107805Y-97919238D01*
X192070431Y-97884833D01*
X192031412Y-97865452D01*
X191989345Y-97859061D01*
X191947295Y-97865464D01*
X191908452Y-97884857D01*
X191871404Y-97919255D01*
X191835655Y-97972725D01*
X191803517Y-98052759D01*
X191776213Y-98157739D01*
X191759391Y-98269249D01*
X191753681Y-98386717D01*
X191523267Y-98386717D01*
X191532948Y-98217754D01*
X191560974Y-98066606D01*
X191591214Y-97970545D01*
X191627956Y-97888601D01*
X191670700Y-97819036D01*
X191740387Y-97737864D01*
X191818161Y-97678718D01*
X191875814Y-97650333D01*
X191932922Y-97633856D01*
X191990353Y-97628435D01*
X192047129Y-97633828D01*
G37*
G36*
X192689009Y-97797512D02*
G01*
X192764133Y-97738497D01*
X192846821Y-97687877D01*
X192941877Y-97645992D01*
X193031132Y-97624018D01*
X193116282Y-97619825D01*
X193200454Y-97631942D01*
X193271339Y-97657903D01*
X193331429Y-97697128D01*
X193380179Y-97749078D01*
X193417831Y-97814422D01*
X193444178Y-97895881D01*
X193457160Y-98005730D01*
X193449307Y-98133651D01*
X193430535Y-98234927D01*
X193391163Y-98345411D01*
X193327738Y-98467138D01*
X193235865Y-98602107D01*
X193110326Y-98752278D01*
X192945189Y-98919594D01*
X193485119Y-98919594D01*
X193485119Y-99145000D01*
X192650083Y-99145000D01*
X192650083Y-98919594D01*
X192879128Y-98679544D01*
X193036381Y-98489142D01*
X193137196Y-98339797D01*
X193194949Y-98223682D01*
X193220787Y-98133651D01*
X193227959Y-98068060D01*
X193222802Y-98014766D01*
X193197969Y-97948891D01*
X193159329Y-97902109D01*
X193125251Y-97880977D01*
X193085390Y-97869707D01*
X193037880Y-97868770D01*
X192965068Y-97883682D01*
X192885747Y-97917404D01*
X192813717Y-97965361D01*
X192751474Y-98025024D01*
X192689009Y-97800626D01*
X192689009Y-97797512D01*
G37*
G36*
X194269054Y-97887684D02*
G01*
X194134044Y-98082312D01*
X194053350Y-98221762D01*
X194048221Y-98231012D01*
X194112429Y-98218730D01*
X194178372Y-98214617D01*
X194262943Y-98221557D01*
X194345250Y-98242379D01*
X194426309Y-98277632D01*
X194500144Y-98325615D01*
X194561231Y-98384075D01*
X194610773Y-98453853D01*
X194647573Y-98531394D01*
X194669176Y-98609761D01*
X194676352Y-98690067D01*
X194669052Y-98771674D01*
X194647104Y-98851039D01*
X194609765Y-98929303D01*
X194559517Y-98999647D01*
X194498075Y-99057920D01*
X194424294Y-99105066D01*
X194343275Y-99139497D01*
X194261622Y-99159783D01*
X194178372Y-99166523D01*
X194096450Y-99159818D01*
X194015467Y-99139568D01*
X193934465Y-99105066D01*
X193860670Y-99057966D01*
X193798875Y-98999693D01*
X193747985Y-98929303D01*
X193710061Y-98850983D01*
X193687793Y-98771627D01*
X193680482Y-98691074D01*
X193910926Y-98691074D01*
X193919891Y-98756710D01*
X193947287Y-98820218D01*
X193990417Y-98874543D01*
X194046755Y-98914465D01*
X194111448Y-98939127D01*
X194178372Y-98947254D01*
X194245523Y-98939149D01*
X194311087Y-98914465D01*
X194368031Y-98874424D01*
X194410463Y-98820218D01*
X194437085Y-98756768D01*
X194445817Y-98691074D01*
X194437134Y-98627220D01*
X194410463Y-98564587D01*
X194368184Y-98510510D01*
X194311545Y-98469790D01*
X194246256Y-98444308D01*
X194178372Y-98435901D01*
X194110474Y-98444305D01*
X194045107Y-98469790D01*
X193988543Y-98510504D01*
X193946280Y-98564587D01*
X193919609Y-98627220D01*
X193910926Y-98691074D01*
X193680482Y-98691074D01*
X193680391Y-98690067D01*
X193680391Y-98689059D01*
X193689834Y-98571118D01*
X193722328Y-98434541D01*
X193782577Y-98275568D01*
X193876403Y-98090219D01*
X194010584Y-97874303D01*
X194192751Y-97623397D01*
X194475585Y-97623397D01*
X194269054Y-97887684D01*
G37*
D11*
G36*
X132023447Y-99135638D02*
G01*
X134274389Y-99135638D01*
X134274389Y-100051182D01*
X134220167Y-100051182D01*
X134215954Y-100002090D01*
X134186645Y-99895844D01*
X134127660Y-99743253D01*
X134031123Y-99577840D01*
X133964048Y-99490043D01*
X133890439Y-99412793D01*
X133805240Y-99345378D01*
X133693152Y-99281268D01*
X133570534Y-99232351D01*
X133442009Y-99202866D01*
X133442009Y-102090000D01*
X132832379Y-102090000D01*
X132832379Y-99203049D01*
X132660358Y-99251881D01*
X132505765Y-99333292D01*
X132372533Y-99439327D01*
X132279902Y-99548714D01*
X132207408Y-99666684D01*
X132151491Y-99778607D01*
X132109088Y-99887791D01*
X132089209Y-99966552D01*
X132071624Y-100051182D01*
X132023447Y-100051182D01*
X132023447Y-99135638D01*
G37*
G36*
X135582493Y-99960690D02*
G01*
X135765695Y-99988756D01*
X135924235Y-100047450D01*
X136062613Y-100136179D01*
X136179643Y-100252014D01*
X136271081Y-100390633D01*
X136337752Y-100555666D01*
X135774651Y-100555666D01*
X135761461Y-100491552D01*
X135723726Y-100360211D01*
X135661078Y-100193332D01*
X135621321Y-100123791D01*
X135568021Y-100061441D01*
X135505121Y-100016814D01*
X135443640Y-100003189D01*
X135370026Y-100020105D01*
X135289166Y-100077355D01*
X135196161Y-100192599D01*
X135127869Y-100323837D01*
X135086070Y-100470707D01*
X135071598Y-100636816D01*
X135071598Y-102090000D01*
X134450244Y-102090000D01*
X134450244Y-100003189D01*
X135071598Y-100003189D01*
X135071598Y-100142224D01*
X135209554Y-100041880D01*
X135366646Y-99981546D01*
X135548604Y-99960690D01*
X135582493Y-99960690D01*
G37*
G36*
X137098691Y-99979741D02*
G01*
X137115544Y-102090000D01*
X136498953Y-102090000D01*
X136498953Y-99979741D01*
X137098691Y-99979741D01*
G37*
G36*
X137034944Y-99252691D02*
G01*
X137076290Y-99321657D01*
X137096756Y-99395117D01*
X137097042Y-99475624D01*
X137077584Y-99553604D01*
X137040163Y-99619938D01*
X136983469Y-99676941D01*
X136914506Y-99718295D01*
X136841106Y-99738756D01*
X136760720Y-99739040D01*
X136682860Y-99719589D01*
X136616584Y-99682172D01*
X136559586Y-99625467D01*
X136518232Y-99556504D01*
X136497771Y-99483104D01*
X136497487Y-99402718D01*
X136516943Y-99324612D01*
X136554314Y-99258286D01*
X136610877Y-99201400D01*
X136679840Y-99160047D01*
X136753240Y-99139585D01*
X136833627Y-99139302D01*
X136911606Y-99158658D01*
X136977937Y-99196016D01*
X137034944Y-99252691D01*
G37*
G36*
X138061130Y-100137095D02*
G01*
X138157507Y-100059566D01*
X138287704Y-100009826D01*
X138462665Y-99991465D01*
X138628055Y-100006222D01*
X138785695Y-100050222D01*
X138938023Y-100124455D01*
X139075938Y-100223531D01*
X139195975Y-100345047D01*
X139299258Y-100491186D01*
X139377564Y-100651844D01*
X139426713Y-100821684D01*
X139447086Y-101003180D01*
X139432975Y-101218826D01*
X139379394Y-101414420D01*
X139286507Y-101594441D01*
X139151247Y-101762103D01*
X138987031Y-101901742D01*
X138809978Y-101999349D01*
X138617041Y-102058162D01*
X138403864Y-102078276D01*
X138061130Y-102078276D01*
X138061130Y-102945826D01*
X137439776Y-102945826D01*
X137439776Y-100233998D01*
X138061130Y-100233998D01*
X138061130Y-102020573D01*
X138226252Y-102004047D01*
X138370536Y-101956311D01*
X138498347Y-101877748D01*
X138612508Y-101765584D01*
X138698139Y-101634528D01*
X138763986Y-101467407D01*
X138807308Y-101256069D01*
X138823168Y-100990724D01*
X138807114Y-100679372D01*
X138764847Y-100449247D01*
X138703550Y-100282908D01*
X138609712Y-100135654D01*
X138521246Y-100062781D01*
X138433722Y-100040924D01*
X138317049Y-100053563D01*
X138218399Y-100089713D01*
X138133850Y-100148988D01*
X138061130Y-100233998D01*
X137439776Y-100233998D01*
X137439776Y-99991465D01*
X138061130Y-99991465D01*
X138061130Y-100137095D01*
G37*
G36*
X140306210Y-102090000D02*
G01*
X139684856Y-102090000D01*
X139684856Y-99135638D01*
X140306210Y-99135638D01*
X140306210Y-102090000D01*
G37*
G36*
X141901872Y-100008668D02*
G01*
X142029038Y-100024255D01*
X142148202Y-100051893D01*
X142246109Y-100089651D01*
X142334186Y-100138152D01*
X142406577Y-100191133D01*
X142468237Y-100252842D01*
X142516669Y-100322475D01*
X142580050Y-100477081D01*
X142601116Y-100646158D01*
X142579835Y-100816060D01*
X142517306Y-100966690D01*
X142411156Y-101103197D01*
X142274970Y-101209568D01*
X142124650Y-101272207D01*
X141955033Y-101293524D01*
X141222487Y-101293524D01*
X141320673Y-101634242D01*
X141347601Y-101704584D01*
X141395411Y-101789764D01*
X141463738Y-101878974D01*
X141550750Y-101957925D01*
X141657911Y-102015994D01*
X141783574Y-102036510D01*
X141918034Y-102028500D01*
X142039296Y-102005369D01*
X142150896Y-101967382D01*
X142234385Y-101922205D01*
X142371222Y-101805884D01*
X142425443Y-101739990D01*
X142462447Y-101678939D01*
X142514471Y-101564267D01*
X142543414Y-101479453D01*
X142548360Y-101440985D01*
X142601116Y-101440985D01*
X142601116Y-102090000D01*
X141582074Y-102090000D01*
X141366486Y-102070407D01*
X141173522Y-102013456D01*
X140998669Y-101919639D01*
X140838721Y-101786467D01*
X140706415Y-101625455D01*
X140613394Y-101450713D01*
X140557075Y-101259186D01*
X140537752Y-101046594D01*
X140557075Y-100834002D01*
X140613394Y-100642475D01*
X140699381Y-100480947D01*
X140978050Y-100480947D01*
X140997723Y-100577098D01*
X141206550Y-101239851D01*
X141575479Y-101239851D01*
X141683787Y-101222628D01*
X141786611Y-101169753D01*
X141887622Y-101074621D01*
X141964231Y-100957815D01*
X142010608Y-100825528D01*
X142026657Y-100673452D01*
X142026657Y-100665026D01*
X142009727Y-100470021D01*
X141964000Y-100322499D01*
X141894033Y-100211650D01*
X141797364Y-100123965D01*
X141692485Y-100073584D01*
X141575479Y-100056678D01*
X141384525Y-100076143D01*
X141229834Y-100130679D01*
X141103602Y-100218061D01*
X141028126Y-100305318D01*
X140988153Y-100391843D01*
X140978050Y-100480947D01*
X140699381Y-100480947D01*
X140706415Y-100467733D01*
X140838721Y-100306721D01*
X140998669Y-100173549D01*
X141173522Y-100079732D01*
X141366486Y-100022781D01*
X141582074Y-100003189D01*
X141757929Y-100003189D01*
X141901872Y-100008668D01*
G37*
G36*
X142847313Y-100308004D02*
G01*
X144265875Y-100308004D01*
X144265875Y-100907925D01*
X142847313Y-100924778D01*
X142847313Y-100308004D01*
G37*
G36*
X146612072Y-101158152D02*
G01*
X146663588Y-101285057D01*
X146688649Y-101402257D01*
X146690291Y-101512243D01*
X146657008Y-101672054D01*
X146588442Y-101811563D01*
X146522033Y-101889727D01*
X146429406Y-101959191D01*
X146304876Y-102019658D01*
X146097070Y-102075499D01*
X145834647Y-102095861D01*
X144532588Y-102095861D01*
X144532588Y-101179951D01*
X144578567Y-101179951D01*
X144893285Y-101478187D01*
X145137035Y-101678594D01*
X145323019Y-101803319D01*
X145436226Y-101874760D01*
X145538991Y-101935577D01*
X145626735Y-101979541D01*
X145726753Y-102017093D01*
X145828968Y-102035961D01*
X145962691Y-102046402D01*
X146049743Y-102033207D01*
X146131219Y-101993096D01*
X146173347Y-101951898D01*
X146199526Y-101896200D01*
X146209071Y-101821088D01*
X146194142Y-101700832D01*
X146146423Y-101569213D01*
X146078759Y-101442573D01*
X146004274Y-101331076D01*
X145913434Y-101221411D01*
X145771816Y-101075354D01*
X145511697Y-100834103D01*
X145209263Y-100577831D01*
X144925881Y-100338229D01*
X144734215Y-100156102D01*
X144610949Y-100004597D01*
X144539916Y-99878075D01*
X144495506Y-99740862D01*
X144479809Y-99607583D01*
X144491372Y-99475624D01*
X144524994Y-99386774D01*
X144584979Y-99304898D01*
X144662965Y-99237002D01*
X144750758Y-99187845D01*
X144845927Y-99157385D01*
X144942367Y-99147362D01*
X146373203Y-99147362D01*
X146373203Y-100056311D01*
X146284511Y-100036888D01*
X146161078Y-99965270D01*
X146037318Y-99867854D01*
X145904073Y-99748016D01*
X145631498Y-99495774D01*
X145487091Y-99378402D01*
X145339139Y-99282001D01*
X145187693Y-99214256D01*
X145062718Y-99194256D01*
X145033408Y-99194256D01*
X144948738Y-99205469D01*
X144892329Y-99235087D01*
X144856088Y-99281817D01*
X144839455Y-99340539D01*
X144843704Y-99409444D01*
X144873307Y-99493393D01*
X144949789Y-99609389D01*
X145070594Y-99722004D01*
X145378707Y-99953363D01*
X145821458Y-100281259D01*
X146085191Y-100501222D01*
X146311104Y-100730055D01*
X146500780Y-100968025D01*
X146612072Y-101158152D01*
G37*
G36*
X149007545Y-100519030D02*
G01*
X150312351Y-100519030D01*
X150312351Y-102090000D01*
X149133391Y-102090000D01*
X148989632Y-102077127D01*
X148852029Y-102038676D01*
X148718483Y-101973679D01*
X148596011Y-101887804D01*
X148484917Y-101783370D01*
X148384542Y-101658789D01*
X148262075Y-101446469D01*
X148164907Y-101188377D01*
X148105201Y-100910850D01*
X148084856Y-100612819D01*
X148100410Y-100345697D01*
X148145758Y-100099259D01*
X148219678Y-99870748D01*
X148324747Y-99655926D01*
X148450763Y-99478734D01*
X148597766Y-99334391D01*
X148768123Y-99222515D01*
X148945069Y-99157373D01*
X149132841Y-99135638D01*
X150155547Y-99135638D01*
X150155547Y-100055762D01*
X150101509Y-100055762D01*
X150097295Y-100019492D01*
X150078428Y-99942739D01*
X150042524Y-99828250D01*
X149979509Y-99695076D01*
X149888834Y-99551828D01*
X149764820Y-99418838D01*
X149603620Y-99304349D01*
X149512879Y-99261890D01*
X149399188Y-99225397D01*
X149277378Y-99202266D01*
X149142367Y-99194256D01*
X149129911Y-99194256D01*
X148987758Y-99209323D01*
X148863356Y-99252979D01*
X148752781Y-99325294D01*
X148653637Y-99429462D01*
X148578076Y-99551994D01*
X148535548Y-99677762D01*
X148523693Y-99809777D01*
X148543361Y-99951714D01*
X148698569Y-100622643D01*
X148866678Y-101448496D01*
X148919068Y-101611345D01*
X149010842Y-101801671D01*
X149074971Y-101896289D01*
X149152076Y-101972397D01*
X149240362Y-102024451D01*
X149327198Y-102040724D01*
X149690997Y-102040724D01*
X149690997Y-100568489D01*
X149535148Y-100578818D01*
X149403218Y-100607873D01*
X149286710Y-100654360D01*
X149213991Y-100703311D01*
X149112691Y-100815052D01*
X149065247Y-100911589D01*
X149055905Y-100954087D01*
X149007545Y-100954087D01*
X149007545Y-100519030D01*
G37*
G36*
X151878703Y-100008668D02*
G01*
X152005870Y-100024255D01*
X152125033Y-100051893D01*
X152222941Y-100089651D01*
X152311018Y-100138152D01*
X152383408Y-100191133D01*
X152445069Y-100252842D01*
X152493501Y-100322475D01*
X152556882Y-100477081D01*
X152577948Y-100646158D01*
X152556667Y-100816060D01*
X152494138Y-100966690D01*
X152387988Y-101103197D01*
X152251802Y-101209568D01*
X152101482Y-101272207D01*
X151931864Y-101293524D01*
X151199319Y-101293524D01*
X151297505Y-101634242D01*
X151324433Y-101704584D01*
X151372243Y-101789764D01*
X151440570Y-101878974D01*
X151527581Y-101957925D01*
X151634743Y-102015994D01*
X151760406Y-102036510D01*
X151894865Y-102028500D01*
X152016128Y-102005369D01*
X152127727Y-101967382D01*
X152211217Y-101922205D01*
X152348054Y-101805884D01*
X152402274Y-101739990D01*
X152439279Y-101678939D01*
X152491303Y-101564267D01*
X152520245Y-101479453D01*
X152525191Y-101440985D01*
X152577948Y-101440985D01*
X152577948Y-102090000D01*
X151558906Y-102090000D01*
X151343318Y-102070407D01*
X151150353Y-102013456D01*
X150975500Y-101919639D01*
X150815553Y-101786467D01*
X150683247Y-101625455D01*
X150590226Y-101450713D01*
X150533907Y-101259186D01*
X150514584Y-101046594D01*
X150533907Y-100834002D01*
X150590226Y-100642475D01*
X150676213Y-100480947D01*
X150954882Y-100480947D01*
X150974555Y-100577098D01*
X151183382Y-101239851D01*
X151552311Y-101239851D01*
X151660619Y-101222628D01*
X151763442Y-101169753D01*
X151864453Y-101074621D01*
X151941062Y-100957815D01*
X151987440Y-100825528D01*
X152003489Y-100673452D01*
X152003489Y-100665026D01*
X151986559Y-100470021D01*
X151940832Y-100322499D01*
X151870865Y-100211650D01*
X151774195Y-100123965D01*
X151669317Y-100073584D01*
X151552311Y-100056678D01*
X151361357Y-100076143D01*
X151206665Y-100130679D01*
X151080434Y-100218061D01*
X151004958Y-100305318D01*
X150964985Y-100391843D01*
X150954882Y-100480947D01*
X150676213Y-100480947D01*
X150683247Y-100467733D01*
X150815553Y-100306721D01*
X150975500Y-100173549D01*
X151150353Y-100079732D01*
X151343318Y-100022781D01*
X151558906Y-100003189D01*
X151734760Y-100003189D01*
X151878703Y-100008668D01*
G37*
G36*
X154115945Y-99960690D02*
G01*
X154295530Y-99986977D01*
X154449501Y-100041488D01*
X154582404Y-100123170D01*
X154697365Y-100233449D01*
X154789458Y-100364487D01*
X154855781Y-100510616D01*
X154896727Y-100674627D01*
X154910956Y-100860115D01*
X154910956Y-102090000D01*
X154277695Y-102090000D01*
X154277695Y-101389877D01*
X154282757Y-101234491D01*
X154296563Y-101109059D01*
X154321368Y-100992032D01*
X154355730Y-100889241D01*
X154444391Y-100715767D01*
X154572984Y-100540645D01*
X154631520Y-100435255D01*
X154643819Y-100343640D01*
X154616902Y-100257482D01*
X154544225Y-100169884D01*
X154411777Y-100076661D01*
X154268857Y-100021764D01*
X154111366Y-100003189D01*
X153976764Y-100022494D01*
X153838841Y-100083059D01*
X153693344Y-100192965D01*
X153576840Y-100329907D01*
X153509850Y-100476196D01*
X153487447Y-100636816D01*
X153487447Y-102090000D01*
X152871039Y-102090000D01*
X152871039Y-100003189D01*
X153487447Y-100003189D01*
X153487447Y-100192599D01*
X153610939Y-100099301D01*
X153764968Y-100024071D01*
X153929604Y-99975955D01*
X154082056Y-99960690D01*
X154115945Y-99960690D01*
G37*
G36*
X156489031Y-100008668D02*
G01*
X156616198Y-100024255D01*
X156735361Y-100051893D01*
X156833269Y-100089651D01*
X156921346Y-100138152D01*
X156993736Y-100191133D01*
X157055397Y-100252842D01*
X157103829Y-100322475D01*
X157167210Y-100477081D01*
X157188276Y-100646158D01*
X157166995Y-100816060D01*
X157104466Y-100966690D01*
X156998316Y-101103197D01*
X156862130Y-101209568D01*
X156711810Y-101272207D01*
X156542192Y-101293524D01*
X155809647Y-101293524D01*
X155907833Y-101634242D01*
X155934760Y-101704584D01*
X155982571Y-101789764D01*
X156050898Y-101878974D01*
X156137909Y-101957925D01*
X156245071Y-102015994D01*
X156370734Y-102036510D01*
X156505193Y-102028500D01*
X156626456Y-102005369D01*
X156738055Y-101967382D01*
X156821545Y-101922205D01*
X156958382Y-101805884D01*
X157012602Y-101739990D01*
X157049607Y-101678939D01*
X157101631Y-101564267D01*
X157130573Y-101479453D01*
X157135519Y-101440985D01*
X157188276Y-101440985D01*
X157188276Y-102090000D01*
X156169234Y-102090000D01*
X155953646Y-102070407D01*
X155760681Y-102013456D01*
X155585828Y-101919639D01*
X155425881Y-101786467D01*
X155293575Y-101625455D01*
X155200554Y-101450713D01*
X155144235Y-101259186D01*
X155124912Y-101046594D01*
X155144235Y-100834002D01*
X155200554Y-100642475D01*
X155286541Y-100480947D01*
X155565209Y-100480947D01*
X155584883Y-100577098D01*
X155793710Y-101239851D01*
X156162639Y-101239851D01*
X156270947Y-101222628D01*
X156373770Y-101169753D01*
X156474781Y-101074621D01*
X156551390Y-100957815D01*
X156597768Y-100825528D01*
X156613817Y-100673452D01*
X156613817Y-100665026D01*
X156596887Y-100470021D01*
X156551160Y-100322499D01*
X156481193Y-100211650D01*
X156384523Y-100123965D01*
X156279645Y-100073584D01*
X156162639Y-100056678D01*
X155971685Y-100076143D01*
X155816993Y-100130679D01*
X155690762Y-100218061D01*
X155615286Y-100305318D01*
X155575313Y-100391843D01*
X155565209Y-100480947D01*
X155286541Y-100480947D01*
X155293575Y-100467733D01*
X155425881Y-100306721D01*
X155585828Y-100173549D01*
X155760681Y-100079732D01*
X155953646Y-100022781D01*
X156169234Y-100003189D01*
X156345088Y-100003189D01*
X156489031Y-100008668D01*
G37*
G36*
X158613616Y-99960690D02*
G01*
X158796818Y-99988756D01*
X158955358Y-100047450D01*
X159093736Y-100136179D01*
X159210766Y-100252014D01*
X159302204Y-100390633D01*
X159368876Y-100555666D01*
X158805774Y-100555666D01*
X158792585Y-100491552D01*
X158754849Y-100360211D01*
X158692201Y-100193332D01*
X158652445Y-100123791D01*
X158599145Y-100061441D01*
X158536245Y-100016814D01*
X158474764Y-100003189D01*
X158401149Y-100020105D01*
X158320290Y-100077355D01*
X158227285Y-100192599D01*
X158158992Y-100323837D01*
X158117194Y-100470707D01*
X158102721Y-100636816D01*
X158102721Y-102090000D01*
X157481367Y-102090000D01*
X157481367Y-100003189D01*
X158102721Y-100003189D01*
X158102721Y-100142224D01*
X158240678Y-100041880D01*
X158397770Y-99981546D01*
X158579727Y-99960690D01*
X158613616Y-99960690D01*
G37*
G36*
X160615163Y-100021839D02*
G01*
X160803744Y-100073663D01*
X160957231Y-100154843D01*
X161081812Y-100264956D01*
X161175272Y-100400077D01*
X161248178Y-100579695D01*
X161296912Y-100815081D01*
X161315003Y-101119867D01*
X161315003Y-102090000D01*
X160151980Y-102090000D01*
X159951678Y-102077428D01*
X159792747Y-102043109D01*
X159667504Y-101990892D01*
X159569644Y-101922754D01*
X159462904Y-101801338D01*
X159401311Y-101669462D01*
X159380600Y-101522318D01*
X159996458Y-101522318D01*
X160011113Y-101667256D01*
X160052841Y-101789450D01*
X160120655Y-101893628D01*
X160210889Y-101979026D01*
X160299261Y-102025627D01*
X160389017Y-102040540D01*
X160693649Y-102040540D01*
X160693649Y-101182698D01*
X160706169Y-100861885D01*
X160740177Y-100605675D01*
X160656991Y-100682474D01*
X160501125Y-100773286D01*
X160365722Y-100851426D01*
X160245892Y-100954616D01*
X160140256Y-101085429D01*
X160058738Y-101232119D01*
X160011830Y-101376855D01*
X159996458Y-101522318D01*
X159380600Y-101522318D01*
X159393273Y-101396388D01*
X159429527Y-101288978D01*
X159488677Y-101196254D01*
X159568304Y-101118094D01*
X159683088Y-101040462D01*
X159841852Y-100963796D01*
X160127616Y-100858832D01*
X160324537Y-100791788D01*
X160495996Y-100716683D01*
X160592637Y-100664367D01*
X160652250Y-100620879D01*
X160700210Y-100570575D01*
X160743292Y-100507306D01*
X160772728Y-100436068D01*
X160782676Y-100357096D01*
X160772933Y-100255158D01*
X160746862Y-100180529D01*
X160707021Y-100126470D01*
X160651371Y-100088663D01*
X160567664Y-100062704D01*
X160445437Y-100052648D01*
X160276469Y-100065215D01*
X160133661Y-100100642D01*
X160006107Y-100157174D01*
X159911461Y-100223374D01*
X159831953Y-100302541D01*
X159764183Y-100389703D01*
X159709267Y-100482486D01*
X159672775Y-100570687D01*
X159629178Y-100737566D01*
X159610493Y-100860115D01*
X159610493Y-100911955D01*
X159556821Y-100911955D01*
X159556821Y-100003189D01*
X160383155Y-100003189D01*
X160615163Y-100021839D01*
G37*
G36*
X162697479Y-101439520D02*
G01*
X162745289Y-101439520D01*
X162745289Y-102090000D01*
X162356027Y-102090000D01*
X162212266Y-102080528D01*
X162090779Y-102053913D01*
X161981907Y-102007952D01*
X161895141Y-101945835D01*
X161822212Y-101868917D01*
X161761051Y-101782620D01*
X161713180Y-101685823D01*
X161676238Y-101568846D01*
X161636121Y-101322100D01*
X161625680Y-101041831D01*
X161625680Y-100026636D01*
X161320865Y-100026636D01*
X161320865Y-99979741D01*
X161625680Y-99979741D01*
X161625680Y-99176671D01*
X162247034Y-99176671D01*
X162247034Y-99979741D01*
X162540125Y-99979741D01*
X162540125Y-100026636D01*
X162247034Y-100026636D01*
X162247034Y-100684809D01*
X162242821Y-100913787D01*
X162242821Y-101254139D01*
X162259856Y-101570861D01*
X162280875Y-101750329D01*
X162312430Y-101877875D01*
X162360978Y-101982291D01*
X162411714Y-102035594D01*
X162469684Y-101998490D01*
X162527302Y-101935394D01*
X162574725Y-101860267D01*
X162609551Y-101781521D01*
X162659377Y-101622519D01*
X162688136Y-101495024D01*
X162697479Y-101439520D01*
G37*
G36*
X164147443Y-99974017D02*
G01*
X164342520Y-100033359D01*
X164521725Y-100131874D01*
X164688119Y-100272833D01*
X164825773Y-100441879D01*
X164922348Y-100624123D01*
X164980669Y-100822623D01*
X165000628Y-101041648D01*
X164980642Y-101260690D01*
X164922283Y-101458828D01*
X164825710Y-101640385D01*
X164688119Y-101808449D01*
X164521869Y-101948256D01*
X164342706Y-102046057D01*
X164147573Y-102105009D01*
X163932126Y-102125170D01*
X163716792Y-102105042D01*
X163521325Y-102046136D01*
X163341440Y-101948334D01*
X163174118Y-101808449D01*
X163035559Y-101640263D01*
X162938380Y-101458671D01*
X162879688Y-101260580D01*
X162859595Y-101041648D01*
X162879661Y-100822732D01*
X162930924Y-100649285D01*
X163419889Y-100649285D01*
X163431708Y-100898574D01*
X163482048Y-101179401D01*
X163564805Y-101452576D01*
X163666327Y-101674359D01*
X163784481Y-101852595D01*
X163897939Y-101972121D01*
X163996722Y-102036534D01*
X164085471Y-102060454D01*
X164169897Y-102051165D01*
X164246192Y-102012001D01*
X164312750Y-101941042D01*
X164370243Y-101828499D01*
X164415727Y-101659705D01*
X164439126Y-101435605D01*
X164427949Y-101185561D01*
X164377808Y-100904811D01*
X164295051Y-100631636D01*
X164193529Y-100409854D01*
X164075375Y-100231617D01*
X163962084Y-100112469D01*
X163863020Y-100048433D01*
X163773554Y-100024982D01*
X163687944Y-100035062D01*
X163610624Y-100075184D01*
X163543728Y-100146748D01*
X163486572Y-100259185D01*
X163442114Y-100426706D01*
X163419889Y-100649285D01*
X162930924Y-100649285D01*
X162938315Y-100624279D01*
X163035496Y-100441999D01*
X163174118Y-100272833D01*
X163341584Y-100131797D01*
X163521510Y-100033280D01*
X163716922Y-99973983D01*
X163932126Y-99953729D01*
X164147443Y-99974017D01*
G37*
G36*
X166377608Y-99960690D02*
G01*
X166560810Y-99988756D01*
X166719350Y-100047450D01*
X166857728Y-100136179D01*
X166974758Y-100252014D01*
X167066196Y-100390633D01*
X167132868Y-100555666D01*
X166569766Y-100555666D01*
X166556577Y-100491552D01*
X166518841Y-100360211D01*
X166456193Y-100193332D01*
X166416437Y-100123791D01*
X166363136Y-100061441D01*
X166300236Y-100016814D01*
X166238756Y-100003189D01*
X166165141Y-100020105D01*
X166084281Y-100077355D01*
X165991277Y-100192599D01*
X165922984Y-100323837D01*
X165881185Y-100470707D01*
X165866713Y-100636816D01*
X165866713Y-102090000D01*
X165245359Y-102090000D01*
X165245359Y-100003189D01*
X165866713Y-100003189D01*
X165866713Y-100142224D01*
X166004670Y-100041880D01*
X166161761Y-99981546D01*
X166343719Y-99960690D01*
X166377608Y-99960690D01*
G37*
D12*
X122166667Y-108902000D02*
X122309524Y-108949619D01*
X122309524Y-108949619D02*
X122547619Y-108949619D01*
X122547619Y-108949619D02*
X122642857Y-108902000D01*
X122642857Y-108902000D02*
X122690476Y-108854380D01*
X122690476Y-108854380D02*
X122738095Y-108759142D01*
X122738095Y-108759142D02*
X122738095Y-108663904D01*
X122738095Y-108663904D02*
X122690476Y-108568666D01*
X122690476Y-108568666D02*
X122642857Y-108521047D01*
X122642857Y-108521047D02*
X122547619Y-108473428D01*
X122547619Y-108473428D02*
X122357143Y-108425809D01*
X122357143Y-108425809D02*
X122261905Y-108378190D01*
X122261905Y-108378190D02*
X122214286Y-108330571D01*
X122214286Y-108330571D02*
X122166667Y-108235333D01*
X122166667Y-108235333D02*
X122166667Y-108140095D01*
X122166667Y-108140095D02*
X122214286Y-108044857D01*
X122214286Y-108044857D02*
X122261905Y-107997238D01*
X122261905Y-107997238D02*
X122357143Y-107949619D01*
X122357143Y-107949619D02*
X122595238Y-107949619D01*
X122595238Y-107949619D02*
X122738095Y-107997238D01*
X123071429Y-107949619D02*
X123309524Y-108949619D01*
X123309524Y-108949619D02*
X123500000Y-108235333D01*
X123500000Y-108235333D02*
X123690476Y-108949619D01*
X123690476Y-108949619D02*
X123928572Y-107949619D01*
X124261905Y-108044857D02*
X124309524Y-107997238D01*
X124309524Y-107997238D02*
X124404762Y-107949619D01*
X124404762Y-107949619D02*
X124642857Y-107949619D01*
X124642857Y-107949619D02*
X124738095Y-107997238D01*
X124738095Y-107997238D02*
X124785714Y-108044857D01*
X124785714Y-108044857D02*
X124833333Y-108140095D01*
X124833333Y-108140095D02*
X124833333Y-108235333D01*
X124833333Y-108235333D02*
X124785714Y-108378190D01*
X124785714Y-108378190D02*
X124214286Y-108949619D01*
X124214286Y-108949619D02*
X124833333Y-108949619D01*
X162583333Y-80404380D02*
X162535714Y-80452000D01*
X162535714Y-80452000D02*
X162392857Y-80499619D01*
X162392857Y-80499619D02*
X162297619Y-80499619D01*
X162297619Y-80499619D02*
X162154762Y-80452000D01*
X162154762Y-80452000D02*
X162059524Y-80356761D01*
X162059524Y-80356761D02*
X162011905Y-80261523D01*
X162011905Y-80261523D02*
X161964286Y-80071047D01*
X161964286Y-80071047D02*
X161964286Y-79928190D01*
X161964286Y-79928190D02*
X162011905Y-79737714D01*
X162011905Y-79737714D02*
X162059524Y-79642476D01*
X162059524Y-79642476D02*
X162154762Y-79547238D01*
X162154762Y-79547238D02*
X162297619Y-79499619D01*
X162297619Y-79499619D02*
X162392857Y-79499619D01*
X162392857Y-79499619D02*
X162535714Y-79547238D01*
X162535714Y-79547238D02*
X162583333Y-79594857D01*
X162916667Y-79499619D02*
X163535714Y-79499619D01*
X163535714Y-79499619D02*
X163202381Y-79880571D01*
X163202381Y-79880571D02*
X163345238Y-79880571D01*
X163345238Y-79880571D02*
X163440476Y-79928190D01*
X163440476Y-79928190D02*
X163488095Y-79975809D01*
X163488095Y-79975809D02*
X163535714Y-80071047D01*
X163535714Y-80071047D02*
X163535714Y-80309142D01*
X163535714Y-80309142D02*
X163488095Y-80404380D01*
X163488095Y-80404380D02*
X163440476Y-80452000D01*
X163440476Y-80452000D02*
X163345238Y-80499619D01*
X163345238Y-80499619D02*
X163059524Y-80499619D01*
X163059524Y-80499619D02*
X162964286Y-80452000D01*
X162964286Y-80452000D02*
X162916667Y-80404380D01*
X179533333Y-72354380D02*
X179485714Y-72402000D01*
X179485714Y-72402000D02*
X179342857Y-72449619D01*
X179342857Y-72449619D02*
X179247619Y-72449619D01*
X179247619Y-72449619D02*
X179104762Y-72402000D01*
X179104762Y-72402000D02*
X179009524Y-72306761D01*
X179009524Y-72306761D02*
X178961905Y-72211523D01*
X178961905Y-72211523D02*
X178914286Y-72021047D01*
X178914286Y-72021047D02*
X178914286Y-71878190D01*
X178914286Y-71878190D02*
X178961905Y-71687714D01*
X178961905Y-71687714D02*
X179009524Y-71592476D01*
X179009524Y-71592476D02*
X179104762Y-71497238D01*
X179104762Y-71497238D02*
X179247619Y-71449619D01*
X179247619Y-71449619D02*
X179342857Y-71449619D01*
X179342857Y-71449619D02*
X179485714Y-71497238D01*
X179485714Y-71497238D02*
X179533333Y-71544857D01*
X180390476Y-71449619D02*
X180200000Y-71449619D01*
X180200000Y-71449619D02*
X180104762Y-71497238D01*
X180104762Y-71497238D02*
X180057143Y-71544857D01*
X180057143Y-71544857D02*
X179961905Y-71687714D01*
X179961905Y-71687714D02*
X179914286Y-71878190D01*
X179914286Y-71878190D02*
X179914286Y-72259142D01*
X179914286Y-72259142D02*
X179961905Y-72354380D01*
X179961905Y-72354380D02*
X180009524Y-72402000D01*
X180009524Y-72402000D02*
X180104762Y-72449619D01*
X180104762Y-72449619D02*
X180295238Y-72449619D01*
X180295238Y-72449619D02*
X180390476Y-72402000D01*
X180390476Y-72402000D02*
X180438095Y-72354380D01*
X180438095Y-72354380D02*
X180485714Y-72259142D01*
X180485714Y-72259142D02*
X180485714Y-72021047D01*
X180485714Y-72021047D02*
X180438095Y-71925809D01*
X180438095Y-71925809D02*
X180390476Y-71878190D01*
X180390476Y-71878190D02*
X180295238Y-71830571D01*
X180295238Y-71830571D02*
X180104762Y-71830571D01*
X180104762Y-71830571D02*
X180009524Y-71878190D01*
X180009524Y-71878190D02*
X179961905Y-71925809D01*
X179961905Y-71925809D02*
X179914286Y-72021047D01*
X157583333Y-70604380D02*
X157535714Y-70652000D01*
X157535714Y-70652000D02*
X157392857Y-70699619D01*
X157392857Y-70699619D02*
X157297619Y-70699619D01*
X157297619Y-70699619D02*
X157154762Y-70652000D01*
X157154762Y-70652000D02*
X157059524Y-70556761D01*
X157059524Y-70556761D02*
X157011905Y-70461523D01*
X157011905Y-70461523D02*
X156964286Y-70271047D01*
X156964286Y-70271047D02*
X156964286Y-70128190D01*
X156964286Y-70128190D02*
X157011905Y-69937714D01*
X157011905Y-69937714D02*
X157059524Y-69842476D01*
X157059524Y-69842476D02*
X157154762Y-69747238D01*
X157154762Y-69747238D02*
X157297619Y-69699619D01*
X157297619Y-69699619D02*
X157392857Y-69699619D01*
X157392857Y-69699619D02*
X157535714Y-69747238D01*
X157535714Y-69747238D02*
X157583333Y-69794857D01*
X158535714Y-70699619D02*
X157964286Y-70699619D01*
X158250000Y-70699619D02*
X158250000Y-69699619D01*
X158250000Y-69699619D02*
X158154762Y-69842476D01*
X158154762Y-69842476D02*
X158059524Y-69937714D01*
X158059524Y-69937714D02*
X157964286Y-69985333D01*
X109773333Y-98819619D02*
X109440000Y-98343428D01*
X109201905Y-98819619D02*
X109201905Y-97819619D01*
X109201905Y-97819619D02*
X109582857Y-97819619D01*
X109582857Y-97819619D02*
X109678095Y-97867238D01*
X109678095Y-97867238D02*
X109725714Y-97914857D01*
X109725714Y-97914857D02*
X109773333Y-98010095D01*
X109773333Y-98010095D02*
X109773333Y-98152952D01*
X109773333Y-98152952D02*
X109725714Y-98248190D01*
X109725714Y-98248190D02*
X109678095Y-98295809D01*
X109678095Y-98295809D02*
X109582857Y-98343428D01*
X109582857Y-98343428D02*
X109201905Y-98343428D01*
X110154286Y-97914857D02*
X110201905Y-97867238D01*
X110201905Y-97867238D02*
X110297143Y-97819619D01*
X110297143Y-97819619D02*
X110535238Y-97819619D01*
X110535238Y-97819619D02*
X110630476Y-97867238D01*
X110630476Y-97867238D02*
X110678095Y-97914857D01*
X110678095Y-97914857D02*
X110725714Y-98010095D01*
X110725714Y-98010095D02*
X110725714Y-98105333D01*
X110725714Y-98105333D02*
X110678095Y-98248190D01*
X110678095Y-98248190D02*
X110106667Y-98819619D01*
X110106667Y-98819619D02*
X110725714Y-98819619D01*
X115550380Y-74166666D02*
X114836095Y-74166666D01*
X114836095Y-74166666D02*
X114693238Y-74119047D01*
X114693238Y-74119047D02*
X114598000Y-74023809D01*
X114598000Y-74023809D02*
X114550380Y-73880952D01*
X114550380Y-73880952D02*
X114550380Y-73785714D01*
X114550380Y-75166666D02*
X114550380Y-74595238D01*
X114550380Y-74880952D02*
X115550380Y-74880952D01*
X115550380Y-74880952D02*
X115407523Y-74785714D01*
X115407523Y-74785714D02*
X115312285Y-74690476D01*
X115312285Y-74690476D02*
X115264666Y-74595238D01*
X109773333Y-94069619D02*
X109440000Y-93593428D01*
X109201905Y-94069619D02*
X109201905Y-93069619D01*
X109201905Y-93069619D02*
X109582857Y-93069619D01*
X109582857Y-93069619D02*
X109678095Y-93117238D01*
X109678095Y-93117238D02*
X109725714Y-93164857D01*
X109725714Y-93164857D02*
X109773333Y-93260095D01*
X109773333Y-93260095D02*
X109773333Y-93402952D01*
X109773333Y-93402952D02*
X109725714Y-93498190D01*
X109725714Y-93498190D02*
X109678095Y-93545809D01*
X109678095Y-93545809D02*
X109582857Y-93593428D01*
X109582857Y-93593428D02*
X109201905Y-93593428D01*
X110725714Y-94069619D02*
X110154286Y-94069619D01*
X110440000Y-94069619D02*
X110440000Y-93069619D01*
X110440000Y-93069619D02*
X110344762Y-93212476D01*
X110344762Y-93212476D02*
X110249524Y-93307714D01*
X110249524Y-93307714D02*
X110154286Y-93355333D01*
X189357142Y-85329619D02*
X189023809Y-84853428D01*
X188785714Y-85329619D02*
X188785714Y-84329619D01*
X188785714Y-84329619D02*
X189166666Y-84329619D01*
X189166666Y-84329619D02*
X189261904Y-84377238D01*
X189261904Y-84377238D02*
X189309523Y-84424857D01*
X189309523Y-84424857D02*
X189357142Y-84520095D01*
X189357142Y-84520095D02*
X189357142Y-84662952D01*
X189357142Y-84662952D02*
X189309523Y-84758190D01*
X189309523Y-84758190D02*
X189261904Y-84805809D01*
X189261904Y-84805809D02*
X189166666Y-84853428D01*
X189166666Y-84853428D02*
X188785714Y-84853428D01*
X190309523Y-85329619D02*
X189738095Y-85329619D01*
X190023809Y-85329619D02*
X190023809Y-84329619D01*
X190023809Y-84329619D02*
X189928571Y-84472476D01*
X189928571Y-84472476D02*
X189833333Y-84567714D01*
X189833333Y-84567714D02*
X189738095Y-84615333D01*
X191261904Y-85329619D02*
X190690476Y-85329619D01*
X190976190Y-85329619D02*
X190976190Y-84329619D01*
X190976190Y-84329619D02*
X190880952Y-84472476D01*
X190880952Y-84472476D02*
X190785714Y-84567714D01*
X190785714Y-84567714D02*
X190690476Y-84615333D01*
X152583333Y-80404380D02*
X152535714Y-80452000D01*
X152535714Y-80452000D02*
X152392857Y-80499619D01*
X152392857Y-80499619D02*
X152297619Y-80499619D01*
X152297619Y-80499619D02*
X152154762Y-80452000D01*
X152154762Y-80452000D02*
X152059524Y-80356761D01*
X152059524Y-80356761D02*
X152011905Y-80261523D01*
X152011905Y-80261523D02*
X151964286Y-80071047D01*
X151964286Y-80071047D02*
X151964286Y-79928190D01*
X151964286Y-79928190D02*
X152011905Y-79737714D01*
X152011905Y-79737714D02*
X152059524Y-79642476D01*
X152059524Y-79642476D02*
X152154762Y-79547238D01*
X152154762Y-79547238D02*
X152297619Y-79499619D01*
X152297619Y-79499619D02*
X152392857Y-79499619D01*
X152392857Y-79499619D02*
X152535714Y-79547238D01*
X152535714Y-79547238D02*
X152583333Y-79594857D01*
X152964286Y-79594857D02*
X153011905Y-79547238D01*
X153011905Y-79547238D02*
X153107143Y-79499619D01*
X153107143Y-79499619D02*
X153345238Y-79499619D01*
X153345238Y-79499619D02*
X153440476Y-79547238D01*
X153440476Y-79547238D02*
X153488095Y-79594857D01*
X153488095Y-79594857D02*
X153535714Y-79690095D01*
X153535714Y-79690095D02*
X153535714Y-79785333D01*
X153535714Y-79785333D02*
X153488095Y-79928190D01*
X153488095Y-79928190D02*
X152916667Y-80499619D01*
X152916667Y-80499619D02*
X153535714Y-80499619D01*
X179533333Y-94954380D02*
X179485714Y-95002000D01*
X179485714Y-95002000D02*
X179342857Y-95049619D01*
X179342857Y-95049619D02*
X179247619Y-95049619D01*
X179247619Y-95049619D02*
X179104762Y-95002000D01*
X179104762Y-95002000D02*
X179009524Y-94906761D01*
X179009524Y-94906761D02*
X178961905Y-94811523D01*
X178961905Y-94811523D02*
X178914286Y-94621047D01*
X178914286Y-94621047D02*
X178914286Y-94478190D01*
X178914286Y-94478190D02*
X178961905Y-94287714D01*
X178961905Y-94287714D02*
X179009524Y-94192476D01*
X179009524Y-94192476D02*
X179104762Y-94097238D01*
X179104762Y-94097238D02*
X179247619Y-94049619D01*
X179247619Y-94049619D02*
X179342857Y-94049619D01*
X179342857Y-94049619D02*
X179485714Y-94097238D01*
X179485714Y-94097238D02*
X179533333Y-94144857D01*
X179866667Y-94049619D02*
X180533333Y-94049619D01*
X180533333Y-94049619D02*
X180104762Y-95049619D01*
X161079619Y-91548094D02*
X160079619Y-91548094D01*
X160079619Y-91548094D02*
X160079619Y-91309999D01*
X160079619Y-91309999D02*
X160127238Y-91167142D01*
X160127238Y-91167142D02*
X160222476Y-91071904D01*
X160222476Y-91071904D02*
X160317714Y-91024285D01*
X160317714Y-91024285D02*
X160508190Y-90976666D01*
X160508190Y-90976666D02*
X160651047Y-90976666D01*
X160651047Y-90976666D02*
X160841523Y-91024285D01*
X160841523Y-91024285D02*
X160936761Y-91071904D01*
X160936761Y-91071904D02*
X161032000Y-91167142D01*
X161032000Y-91167142D02*
X161079619Y-91309999D01*
X161079619Y-91309999D02*
X161079619Y-91548094D01*
X160412952Y-90119523D02*
X161079619Y-90119523D01*
X160032000Y-90357618D02*
X160746285Y-90595713D01*
X160746285Y-90595713D02*
X160746285Y-89976666D01*
D13*
X161404819Y-94881904D02*
X160404819Y-94881904D01*
X161404819Y-94310476D02*
X160833390Y-94739047D01*
X160404819Y-94310476D02*
X160976247Y-94881904D01*
D12*
X184449619Y-80833333D02*
X185163904Y-80833333D01*
X185163904Y-80833333D02*
X185306761Y-80880952D01*
X185306761Y-80880952D02*
X185402000Y-80976190D01*
X185402000Y-80976190D02*
X185449619Y-81119047D01*
X185449619Y-81119047D02*
X185449619Y-81214285D01*
X184544857Y-80404761D02*
X184497238Y-80357142D01*
X184497238Y-80357142D02*
X184449619Y-80261904D01*
X184449619Y-80261904D02*
X184449619Y-80023809D01*
X184449619Y-80023809D02*
X184497238Y-79928571D01*
X184497238Y-79928571D02*
X184544857Y-79880952D01*
X184544857Y-79880952D02*
X184640095Y-79833333D01*
X184640095Y-79833333D02*
X184735333Y-79833333D01*
X184735333Y-79833333D02*
X184878190Y-79880952D01*
X184878190Y-79880952D02*
X185449619Y-80452380D01*
X185449619Y-80452380D02*
X185449619Y-79833333D01*
X128633333Y-71654380D02*
X128585714Y-71702000D01*
X128585714Y-71702000D02*
X128442857Y-71749619D01*
X128442857Y-71749619D02*
X128347619Y-71749619D01*
X128347619Y-71749619D02*
X128204762Y-71702000D01*
X128204762Y-71702000D02*
X128109524Y-71606761D01*
X128109524Y-71606761D02*
X128061905Y-71511523D01*
X128061905Y-71511523D02*
X128014286Y-71321047D01*
X128014286Y-71321047D02*
X128014286Y-71178190D01*
X128014286Y-71178190D02*
X128061905Y-70987714D01*
X128061905Y-70987714D02*
X128109524Y-70892476D01*
X128109524Y-70892476D02*
X128204762Y-70797238D01*
X128204762Y-70797238D02*
X128347619Y-70749619D01*
X128347619Y-70749619D02*
X128442857Y-70749619D01*
X128442857Y-70749619D02*
X128585714Y-70797238D01*
X128585714Y-70797238D02*
X128633333Y-70844857D01*
X129490476Y-71082952D02*
X129490476Y-71749619D01*
X129252381Y-70702000D02*
X129014286Y-71416285D01*
X129014286Y-71416285D02*
X129633333Y-71416285D01*
X139333333Y-70649619D02*
X139000000Y-70173428D01*
X138761905Y-70649619D02*
X138761905Y-69649619D01*
X138761905Y-69649619D02*
X139142857Y-69649619D01*
X139142857Y-69649619D02*
X139238095Y-69697238D01*
X139238095Y-69697238D02*
X139285714Y-69744857D01*
X139285714Y-69744857D02*
X139333333Y-69840095D01*
X139333333Y-69840095D02*
X139333333Y-69982952D01*
X139333333Y-69982952D02*
X139285714Y-70078190D01*
X139285714Y-70078190D02*
X139238095Y-70125809D01*
X139238095Y-70125809D02*
X139142857Y-70173428D01*
X139142857Y-70173428D02*
X138761905Y-70173428D01*
X139666667Y-69649619D02*
X140285714Y-69649619D01*
X140285714Y-69649619D02*
X139952381Y-70030571D01*
X139952381Y-70030571D02*
X140095238Y-70030571D01*
X140095238Y-70030571D02*
X140190476Y-70078190D01*
X140190476Y-70078190D02*
X140238095Y-70125809D01*
X140238095Y-70125809D02*
X140285714Y-70221047D01*
X140285714Y-70221047D02*
X140285714Y-70459142D01*
X140285714Y-70459142D02*
X140238095Y-70554380D01*
X140238095Y-70554380D02*
X140190476Y-70602000D01*
X140190476Y-70602000D02*
X140095238Y-70649619D01*
X140095238Y-70649619D02*
X139809524Y-70649619D01*
X139809524Y-70649619D02*
X139714286Y-70602000D01*
X139714286Y-70602000D02*
X139666667Y-70554380D01*
X145579619Y-90976666D02*
X145103428Y-91309999D01*
X145579619Y-91548094D02*
X144579619Y-91548094D01*
X144579619Y-91548094D02*
X144579619Y-91167142D01*
X144579619Y-91167142D02*
X144627238Y-91071904D01*
X144627238Y-91071904D02*
X144674857Y-91024285D01*
X144674857Y-91024285D02*
X144770095Y-90976666D01*
X144770095Y-90976666D02*
X144912952Y-90976666D01*
X144912952Y-90976666D02*
X145008190Y-91024285D01*
X145008190Y-91024285D02*
X145055809Y-91071904D01*
X145055809Y-91071904D02*
X145103428Y-91167142D01*
X145103428Y-91167142D02*
X145103428Y-91548094D01*
X144579619Y-90643332D02*
X144579619Y-89976666D01*
X144579619Y-89976666D02*
X145579619Y-90405237D01*
X129033333Y-94654380D02*
X128985714Y-94702000D01*
X128985714Y-94702000D02*
X128842857Y-94749619D01*
X128842857Y-94749619D02*
X128747619Y-94749619D01*
X128747619Y-94749619D02*
X128604762Y-94702000D01*
X128604762Y-94702000D02*
X128509524Y-94606761D01*
X128509524Y-94606761D02*
X128461905Y-94511523D01*
X128461905Y-94511523D02*
X128414286Y-94321047D01*
X128414286Y-94321047D02*
X128414286Y-94178190D01*
X128414286Y-94178190D02*
X128461905Y-93987714D01*
X128461905Y-93987714D02*
X128509524Y-93892476D01*
X128509524Y-93892476D02*
X128604762Y-93797238D01*
X128604762Y-93797238D02*
X128747619Y-93749619D01*
X128747619Y-93749619D02*
X128842857Y-93749619D01*
X128842857Y-93749619D02*
X128985714Y-93797238D01*
X128985714Y-93797238D02*
X129033333Y-93844857D01*
X129938095Y-93749619D02*
X129461905Y-93749619D01*
X129461905Y-93749619D02*
X129414286Y-94225809D01*
X129414286Y-94225809D02*
X129461905Y-94178190D01*
X129461905Y-94178190D02*
X129557143Y-94130571D01*
X129557143Y-94130571D02*
X129795238Y-94130571D01*
X129795238Y-94130571D02*
X129890476Y-94178190D01*
X129890476Y-94178190D02*
X129938095Y-94225809D01*
X129938095Y-94225809D02*
X129985714Y-94321047D01*
X129985714Y-94321047D02*
X129985714Y-94559142D01*
X129985714Y-94559142D02*
X129938095Y-94654380D01*
X129938095Y-94654380D02*
X129890476Y-94702000D01*
X129890476Y-94702000D02*
X129795238Y-94749619D01*
X129795238Y-94749619D02*
X129557143Y-94749619D01*
X129557143Y-94749619D02*
X129461905Y-94702000D01*
X129461905Y-94702000D02*
X129414286Y-94654380D01*
X182833333Y-104949619D02*
X182500000Y-104473428D01*
X182261905Y-104949619D02*
X182261905Y-103949619D01*
X182261905Y-103949619D02*
X182642857Y-103949619D01*
X182642857Y-103949619D02*
X182738095Y-103997238D01*
X182738095Y-103997238D02*
X182785714Y-104044857D01*
X182785714Y-104044857D02*
X182833333Y-104140095D01*
X182833333Y-104140095D02*
X182833333Y-104282952D01*
X182833333Y-104282952D02*
X182785714Y-104378190D01*
X182785714Y-104378190D02*
X182738095Y-104425809D01*
X182738095Y-104425809D02*
X182642857Y-104473428D01*
X182642857Y-104473428D02*
X182261905Y-104473428D01*
X183309524Y-104949619D02*
X183500000Y-104949619D01*
X183500000Y-104949619D02*
X183595238Y-104902000D01*
X183595238Y-104902000D02*
X183642857Y-104854380D01*
X183642857Y-104854380D02*
X183738095Y-104711523D01*
X183738095Y-104711523D02*
X183785714Y-104521047D01*
X183785714Y-104521047D02*
X183785714Y-104140095D01*
X183785714Y-104140095D02*
X183738095Y-104044857D01*
X183738095Y-104044857D02*
X183690476Y-103997238D01*
X183690476Y-103997238D02*
X183595238Y-103949619D01*
X183595238Y-103949619D02*
X183404762Y-103949619D01*
X183404762Y-103949619D02*
X183309524Y-103997238D01*
X183309524Y-103997238D02*
X183261905Y-104044857D01*
X183261905Y-104044857D02*
X183214286Y-104140095D01*
X183214286Y-104140095D02*
X183214286Y-104378190D01*
X183214286Y-104378190D02*
X183261905Y-104473428D01*
X183261905Y-104473428D02*
X183309524Y-104521047D01*
X183309524Y-104521047D02*
X183404762Y-104568666D01*
X183404762Y-104568666D02*
X183595238Y-104568666D01*
X183595238Y-104568666D02*
X183690476Y-104521047D01*
X183690476Y-104521047D02*
X183738095Y-104473428D01*
X183738095Y-104473428D02*
X183785714Y-104378190D01*
X138701905Y-84819619D02*
X138701905Y-83819619D01*
X138701905Y-83819619D02*
X138940000Y-83819619D01*
X138940000Y-83819619D02*
X139082857Y-83867238D01*
X139082857Y-83867238D02*
X139178095Y-83962476D01*
X139178095Y-83962476D02*
X139225714Y-84057714D01*
X139225714Y-84057714D02*
X139273333Y-84248190D01*
X139273333Y-84248190D02*
X139273333Y-84391047D01*
X139273333Y-84391047D02*
X139225714Y-84581523D01*
X139225714Y-84581523D02*
X139178095Y-84676761D01*
X139178095Y-84676761D02*
X139082857Y-84772000D01*
X139082857Y-84772000D02*
X138940000Y-84819619D01*
X138940000Y-84819619D02*
X138701905Y-84819619D01*
X139654286Y-83914857D02*
X139701905Y-83867238D01*
X139701905Y-83867238D02*
X139797143Y-83819619D01*
X139797143Y-83819619D02*
X140035238Y-83819619D01*
X140035238Y-83819619D02*
X140130476Y-83867238D01*
X140130476Y-83867238D02*
X140178095Y-83914857D01*
X140178095Y-83914857D02*
X140225714Y-84010095D01*
X140225714Y-84010095D02*
X140225714Y-84105333D01*
X140225714Y-84105333D02*
X140178095Y-84248190D01*
X140178095Y-84248190D02*
X139606667Y-84819619D01*
X139606667Y-84819619D02*
X140225714Y-84819619D01*
D13*
X142988095Y-84504819D02*
X142988095Y-83504819D01*
X143559523Y-84504819D02*
X143130952Y-83933390D01*
X143559523Y-83504819D02*
X142988095Y-84076247D01*
D12*
X172070095Y-79279619D02*
X172070095Y-80089142D01*
X172070095Y-80089142D02*
X172117714Y-80184380D01*
X172117714Y-80184380D02*
X172165333Y-80232000D01*
X172165333Y-80232000D02*
X172260571Y-80279619D01*
X172260571Y-80279619D02*
X172451047Y-80279619D01*
X172451047Y-80279619D02*
X172546285Y-80232000D01*
X172546285Y-80232000D02*
X172593904Y-80184380D01*
X172593904Y-80184380D02*
X172641523Y-80089142D01*
X172641523Y-80089142D02*
X172641523Y-79279619D01*
X173070095Y-79374857D02*
X173117714Y-79327238D01*
X173117714Y-79327238D02*
X173212952Y-79279619D01*
X173212952Y-79279619D02*
X173451047Y-79279619D01*
X173451047Y-79279619D02*
X173546285Y-79327238D01*
X173546285Y-79327238D02*
X173593904Y-79374857D01*
X173593904Y-79374857D02*
X173641523Y-79470095D01*
X173641523Y-79470095D02*
X173641523Y-79565333D01*
X173641523Y-79565333D02*
X173593904Y-79708190D01*
X173593904Y-79708190D02*
X173022476Y-80279619D01*
X173022476Y-80279619D02*
X173641523Y-80279619D01*
X106666667Y-108902000D02*
X106809524Y-108949619D01*
X106809524Y-108949619D02*
X107047619Y-108949619D01*
X107047619Y-108949619D02*
X107142857Y-108902000D01*
X107142857Y-108902000D02*
X107190476Y-108854380D01*
X107190476Y-108854380D02*
X107238095Y-108759142D01*
X107238095Y-108759142D02*
X107238095Y-108663904D01*
X107238095Y-108663904D02*
X107190476Y-108568666D01*
X107190476Y-108568666D02*
X107142857Y-108521047D01*
X107142857Y-108521047D02*
X107047619Y-108473428D01*
X107047619Y-108473428D02*
X106857143Y-108425809D01*
X106857143Y-108425809D02*
X106761905Y-108378190D01*
X106761905Y-108378190D02*
X106714286Y-108330571D01*
X106714286Y-108330571D02*
X106666667Y-108235333D01*
X106666667Y-108235333D02*
X106666667Y-108140095D01*
X106666667Y-108140095D02*
X106714286Y-108044857D01*
X106714286Y-108044857D02*
X106761905Y-107997238D01*
X106761905Y-107997238D02*
X106857143Y-107949619D01*
X106857143Y-107949619D02*
X107095238Y-107949619D01*
X107095238Y-107949619D02*
X107238095Y-107997238D01*
X107571429Y-107949619D02*
X107809524Y-108949619D01*
X107809524Y-108949619D02*
X108000000Y-108235333D01*
X108000000Y-108235333D02*
X108190476Y-108949619D01*
X108190476Y-108949619D02*
X108428572Y-107949619D01*
X109333333Y-108949619D02*
X108761905Y-108949619D01*
X109047619Y-108949619D02*
X109047619Y-107949619D01*
X109047619Y-107949619D02*
X108952381Y-108092476D01*
X108952381Y-108092476D02*
X108857143Y-108187714D01*
X108857143Y-108187714D02*
X108761905Y-108235333D01*
X109773333Y-103749619D02*
X109440000Y-103273428D01*
X109201905Y-103749619D02*
X109201905Y-102749619D01*
X109201905Y-102749619D02*
X109582857Y-102749619D01*
X109582857Y-102749619D02*
X109678095Y-102797238D01*
X109678095Y-102797238D02*
X109725714Y-102844857D01*
X109725714Y-102844857D02*
X109773333Y-102940095D01*
X109773333Y-102940095D02*
X109773333Y-103082952D01*
X109773333Y-103082952D02*
X109725714Y-103178190D01*
X109725714Y-103178190D02*
X109678095Y-103225809D01*
X109678095Y-103225809D02*
X109582857Y-103273428D01*
X109582857Y-103273428D02*
X109201905Y-103273428D01*
X110630476Y-103082952D02*
X110630476Y-103749619D01*
X110392381Y-102702000D02*
X110154286Y-103416285D01*
X110154286Y-103416285D02*
X110773333Y-103416285D01*
X121519095Y-79279619D02*
X121519095Y-80089142D01*
X121519095Y-80089142D02*
X121566714Y-80184380D01*
X121566714Y-80184380D02*
X121614333Y-80232000D01*
X121614333Y-80232000D02*
X121709571Y-80279619D01*
X121709571Y-80279619D02*
X121900047Y-80279619D01*
X121900047Y-80279619D02*
X121995285Y-80232000D01*
X121995285Y-80232000D02*
X122042904Y-80184380D01*
X122042904Y-80184380D02*
X122090523Y-80089142D01*
X122090523Y-80089142D02*
X122090523Y-79279619D01*
X123090523Y-80279619D02*
X122519095Y-80279619D01*
X122804809Y-80279619D02*
X122804809Y-79279619D01*
X122804809Y-79279619D02*
X122709571Y-79422476D01*
X122709571Y-79422476D02*
X122614333Y-79517714D01*
X122614333Y-79517714D02*
X122519095Y-79565333D01*
X142319619Y-90976666D02*
X141843428Y-91309999D01*
X142319619Y-91548094D02*
X141319619Y-91548094D01*
X141319619Y-91548094D02*
X141319619Y-91167142D01*
X141319619Y-91167142D02*
X141367238Y-91071904D01*
X141367238Y-91071904D02*
X141414857Y-91024285D01*
X141414857Y-91024285D02*
X141510095Y-90976666D01*
X141510095Y-90976666D02*
X141652952Y-90976666D01*
X141652952Y-90976666D02*
X141748190Y-91024285D01*
X141748190Y-91024285D02*
X141795809Y-91071904D01*
X141795809Y-91071904D02*
X141843428Y-91167142D01*
X141843428Y-91167142D02*
X141843428Y-91548094D01*
X141319619Y-90119523D02*
X141319619Y-90309999D01*
X141319619Y-90309999D02*
X141367238Y-90405237D01*
X141367238Y-90405237D02*
X141414857Y-90452856D01*
X141414857Y-90452856D02*
X141557714Y-90548094D01*
X141557714Y-90548094D02*
X141748190Y-90595713D01*
X141748190Y-90595713D02*
X142129142Y-90595713D01*
X142129142Y-90595713D02*
X142224380Y-90548094D01*
X142224380Y-90548094D02*
X142272000Y-90500475D01*
X142272000Y-90500475D02*
X142319619Y-90405237D01*
X142319619Y-90405237D02*
X142319619Y-90214761D01*
X142319619Y-90214761D02*
X142272000Y-90119523D01*
X142272000Y-90119523D02*
X142224380Y-90071904D01*
X142224380Y-90071904D02*
X142129142Y-90024285D01*
X142129142Y-90024285D02*
X141891047Y-90024285D01*
X141891047Y-90024285D02*
X141795809Y-90071904D01*
X141795809Y-90071904D02*
X141748190Y-90119523D01*
X141748190Y-90119523D02*
X141700571Y-90214761D01*
X141700571Y-90214761D02*
X141700571Y-90405237D01*
X141700571Y-90405237D02*
X141748190Y-90500475D01*
X141748190Y-90500475D02*
X141795809Y-90548094D01*
X141795809Y-90548094D02*
X141891047Y-90595713D01*
X157819619Y-91548094D02*
X156819619Y-91548094D01*
X156819619Y-91548094D02*
X156819619Y-91309999D01*
X156819619Y-91309999D02*
X156867238Y-91167142D01*
X156867238Y-91167142D02*
X156962476Y-91071904D01*
X156962476Y-91071904D02*
X157057714Y-91024285D01*
X157057714Y-91024285D02*
X157248190Y-90976666D01*
X157248190Y-90976666D02*
X157391047Y-90976666D01*
X157391047Y-90976666D02*
X157581523Y-91024285D01*
X157581523Y-91024285D02*
X157676761Y-91071904D01*
X157676761Y-91071904D02*
X157772000Y-91167142D01*
X157772000Y-91167142D02*
X157819619Y-91309999D01*
X157819619Y-91309999D02*
X157819619Y-91548094D01*
X156819619Y-90643332D02*
X156819619Y-90024285D01*
X156819619Y-90024285D02*
X157200571Y-90357618D01*
X157200571Y-90357618D02*
X157200571Y-90214761D01*
X157200571Y-90214761D02*
X157248190Y-90119523D01*
X157248190Y-90119523D02*
X157295809Y-90071904D01*
X157295809Y-90071904D02*
X157391047Y-90024285D01*
X157391047Y-90024285D02*
X157629142Y-90024285D01*
X157629142Y-90024285D02*
X157724380Y-90071904D01*
X157724380Y-90071904D02*
X157772000Y-90119523D01*
X157772000Y-90119523D02*
X157819619Y-90214761D01*
X157819619Y-90214761D02*
X157819619Y-90500475D01*
X157819619Y-90500475D02*
X157772000Y-90595713D01*
X157772000Y-90595713D02*
X157724380Y-90643332D01*
D13*
X157504819Y-87261904D02*
X156504819Y-87261904D01*
X157504819Y-86690476D02*
X156933390Y-87119047D01*
X156504819Y-86690476D02*
X157076247Y-87261904D01*
D12*
X154133333Y-104949619D02*
X153800000Y-104473428D01*
X153561905Y-104949619D02*
X153561905Y-103949619D01*
X153561905Y-103949619D02*
X153942857Y-103949619D01*
X153942857Y-103949619D02*
X154038095Y-103997238D01*
X154038095Y-103997238D02*
X154085714Y-104044857D01*
X154085714Y-104044857D02*
X154133333Y-104140095D01*
X154133333Y-104140095D02*
X154133333Y-104282952D01*
X154133333Y-104282952D02*
X154085714Y-104378190D01*
X154085714Y-104378190D02*
X154038095Y-104425809D01*
X154038095Y-104425809D02*
X153942857Y-104473428D01*
X153942857Y-104473428D02*
X153561905Y-104473428D01*
X154704762Y-104378190D02*
X154609524Y-104330571D01*
X154609524Y-104330571D02*
X154561905Y-104282952D01*
X154561905Y-104282952D02*
X154514286Y-104187714D01*
X154514286Y-104187714D02*
X154514286Y-104140095D01*
X154514286Y-104140095D02*
X154561905Y-104044857D01*
X154561905Y-104044857D02*
X154609524Y-103997238D01*
X154609524Y-103997238D02*
X154704762Y-103949619D01*
X154704762Y-103949619D02*
X154895238Y-103949619D01*
X154895238Y-103949619D02*
X154990476Y-103997238D01*
X154990476Y-103997238D02*
X155038095Y-104044857D01*
X155038095Y-104044857D02*
X155085714Y-104140095D01*
X155085714Y-104140095D02*
X155085714Y-104187714D01*
X155085714Y-104187714D02*
X155038095Y-104282952D01*
X155038095Y-104282952D02*
X154990476Y-104330571D01*
X154990476Y-104330571D02*
X154895238Y-104378190D01*
X154895238Y-104378190D02*
X154704762Y-104378190D01*
X154704762Y-104378190D02*
X154609524Y-104425809D01*
X154609524Y-104425809D02*
X154561905Y-104473428D01*
X154561905Y-104473428D02*
X154514286Y-104568666D01*
X154514286Y-104568666D02*
X154514286Y-104759142D01*
X154514286Y-104759142D02*
X154561905Y-104854380D01*
X154561905Y-104854380D02*
X154609524Y-104902000D01*
X154609524Y-104902000D02*
X154704762Y-104949619D01*
X154704762Y-104949619D02*
X154895238Y-104949619D01*
X154895238Y-104949619D02*
X154990476Y-104902000D01*
X154990476Y-104902000D02*
X155038095Y-104854380D01*
X155038095Y-104854380D02*
X155085714Y-104759142D01*
X155085714Y-104759142D02*
X155085714Y-104568666D01*
X155085714Y-104568666D02*
X155038095Y-104473428D01*
X155038095Y-104473428D02*
X154990476Y-104425809D01*
X154990476Y-104425809D02*
X154895238Y-104378190D01*
X169057142Y-104949619D02*
X168723809Y-104473428D01*
X168485714Y-104949619D02*
X168485714Y-103949619D01*
X168485714Y-103949619D02*
X168866666Y-103949619D01*
X168866666Y-103949619D02*
X168961904Y-103997238D01*
X168961904Y-103997238D02*
X169009523Y-104044857D01*
X169009523Y-104044857D02*
X169057142Y-104140095D01*
X169057142Y-104140095D02*
X169057142Y-104282952D01*
X169057142Y-104282952D02*
X169009523Y-104378190D01*
X169009523Y-104378190D02*
X168961904Y-104425809D01*
X168961904Y-104425809D02*
X168866666Y-104473428D01*
X168866666Y-104473428D02*
X168485714Y-104473428D01*
X170009523Y-104949619D02*
X169438095Y-104949619D01*
X169723809Y-104949619D02*
X169723809Y-103949619D01*
X169723809Y-103949619D02*
X169628571Y-104092476D01*
X169628571Y-104092476D02*
X169533333Y-104187714D01*
X169533333Y-104187714D02*
X169438095Y-104235333D01*
X170628571Y-103949619D02*
X170723809Y-103949619D01*
X170723809Y-103949619D02*
X170819047Y-103997238D01*
X170819047Y-103997238D02*
X170866666Y-104044857D01*
X170866666Y-104044857D02*
X170914285Y-104140095D01*
X170914285Y-104140095D02*
X170961904Y-104330571D01*
X170961904Y-104330571D02*
X170961904Y-104568666D01*
X170961904Y-104568666D02*
X170914285Y-104759142D01*
X170914285Y-104759142D02*
X170866666Y-104854380D01*
X170866666Y-104854380D02*
X170819047Y-104902000D01*
X170819047Y-104902000D02*
X170723809Y-104949619D01*
X170723809Y-104949619D02*
X170628571Y-104949619D01*
X170628571Y-104949619D02*
X170533333Y-104902000D01*
X170533333Y-104902000D02*
X170485714Y-104854380D01*
X170485714Y-104854380D02*
X170438095Y-104759142D01*
X170438095Y-104759142D02*
X170390476Y-104568666D01*
X170390476Y-104568666D02*
X170390476Y-104330571D01*
X170390476Y-104330571D02*
X170438095Y-104140095D01*
X170438095Y-104140095D02*
X170485714Y-104044857D01*
X170485714Y-104044857D02*
X170533333Y-103997238D01*
X170533333Y-103997238D02*
X170628571Y-103949619D01*
X140533333Y-104949619D02*
X140200000Y-104473428D01*
X139961905Y-104949619D02*
X139961905Y-103949619D01*
X139961905Y-103949619D02*
X140342857Y-103949619D01*
X140342857Y-103949619D02*
X140438095Y-103997238D01*
X140438095Y-103997238D02*
X140485714Y-104044857D01*
X140485714Y-104044857D02*
X140533333Y-104140095D01*
X140533333Y-104140095D02*
X140533333Y-104282952D01*
X140533333Y-104282952D02*
X140485714Y-104378190D01*
X140485714Y-104378190D02*
X140438095Y-104425809D01*
X140438095Y-104425809D02*
X140342857Y-104473428D01*
X140342857Y-104473428D02*
X139961905Y-104473428D01*
X141438095Y-103949619D02*
X140961905Y-103949619D01*
X140961905Y-103949619D02*
X140914286Y-104425809D01*
X140914286Y-104425809D02*
X140961905Y-104378190D01*
X140961905Y-104378190D02*
X141057143Y-104330571D01*
X141057143Y-104330571D02*
X141295238Y-104330571D01*
X141295238Y-104330571D02*
X141390476Y-104378190D01*
X141390476Y-104378190D02*
X141438095Y-104425809D01*
X141438095Y-104425809D02*
X141485714Y-104521047D01*
X141485714Y-104521047D02*
X141485714Y-104759142D01*
X141485714Y-104759142D02*
X141438095Y-104854380D01*
X141438095Y-104854380D02*
X141390476Y-104902000D01*
X141390476Y-104902000D02*
X141295238Y-104949619D01*
X141295238Y-104949619D02*
X141057143Y-104949619D01*
X141057143Y-104949619D02*
X140961905Y-104902000D01*
X140961905Y-104902000D02*
X140914286Y-104854380D01*
X138761905Y-75829619D02*
X138761905Y-74829619D01*
X138761905Y-74829619D02*
X139000000Y-74829619D01*
X139000000Y-74829619D02*
X139142857Y-74877238D01*
X139142857Y-74877238D02*
X139238095Y-74972476D01*
X139238095Y-74972476D02*
X139285714Y-75067714D01*
X139285714Y-75067714D02*
X139333333Y-75258190D01*
X139333333Y-75258190D02*
X139333333Y-75401047D01*
X139333333Y-75401047D02*
X139285714Y-75591523D01*
X139285714Y-75591523D02*
X139238095Y-75686761D01*
X139238095Y-75686761D02*
X139142857Y-75782000D01*
X139142857Y-75782000D02*
X139000000Y-75829619D01*
X139000000Y-75829619D02*
X138761905Y-75829619D01*
X140285714Y-75829619D02*
X139714286Y-75829619D01*
X140000000Y-75829619D02*
X140000000Y-74829619D01*
X140000000Y-74829619D02*
X139904762Y-74972476D01*
X139904762Y-74972476D02*
X139809524Y-75067714D01*
X139809524Y-75067714D02*
X139714286Y-75115333D01*
D13*
X135428095Y-76154819D02*
X135428095Y-75154819D01*
X135999523Y-76154819D02*
X135570952Y-75583390D01*
X135999523Y-75154819D02*
X135428095Y-75726247D01*
%TO.C,C3*%
D14*
X160480000Y-81180000D02*
X165020000Y-81180000D01*
X160480000Y-81236000D02*
X160480000Y-81180000D01*
X165020000Y-83264000D02*
X165020000Y-83320000D01*
X165020000Y-83320000D02*
X160480000Y-83320000D01*
%TO.C,C6*%
X172510000Y-75402000D02*
X172510000Y-74598000D01*
X172550000Y-75633000D02*
X172550000Y-74367000D01*
X172590000Y-75801000D02*
X172590000Y-74199000D01*
X172630000Y-75939000D02*
X172630000Y-74061000D01*
X172670000Y-76058000D02*
X172670000Y-73942000D01*
X172710000Y-76165000D02*
X172710000Y-73835000D01*
X172750000Y-76261000D02*
X172750000Y-73739000D01*
X172790000Y-76350000D02*
X172790000Y-73650000D01*
X172830000Y-76432000D02*
X172830000Y-73568000D01*
X172870000Y-76509000D02*
X172870000Y-73491000D01*
X172910000Y-76581000D02*
X172910000Y-73419000D01*
X172950000Y-76649000D02*
X172950000Y-73351000D01*
X172990000Y-76714000D02*
X172990000Y-73286000D01*
X173030000Y-76775000D02*
X173030000Y-73225000D01*
X173070000Y-76834000D02*
X173070000Y-73166000D01*
X173110000Y-76890000D02*
X173110000Y-73110000D01*
X173150000Y-76943000D02*
X173150000Y-73057000D01*
X173190000Y-76995000D02*
X173190000Y-73005000D01*
X173230000Y-77044000D02*
X173230000Y-72956000D01*
X173270000Y-77091000D02*
X173270000Y-72909000D01*
X173310000Y-77137000D02*
X173310000Y-72863000D01*
X173350000Y-77181000D02*
X173350000Y-72819000D01*
X173390000Y-77223000D02*
X173390000Y-72777000D01*
X173430000Y-77264000D02*
X173430000Y-72736000D01*
X173470000Y-73960000D02*
X173470000Y-72696000D01*
X173470000Y-77304000D02*
X173470000Y-76040000D01*
X173510000Y-73960000D02*
X173510000Y-72658000D01*
X173510000Y-77342000D02*
X173510000Y-76040000D01*
X173550000Y-73960000D02*
X173550000Y-72621000D01*
X173550000Y-77379000D02*
X173550000Y-76040000D01*
X173590000Y-73960000D02*
X173590000Y-72585000D01*
X173590000Y-77415000D02*
X173590000Y-76040000D01*
X173630000Y-73960000D02*
X173630000Y-72550000D01*
X173630000Y-77450000D02*
X173630000Y-76040000D01*
X173670000Y-73960000D02*
X173670000Y-72517000D01*
X173670000Y-77483000D02*
X173670000Y-76040000D01*
X173710000Y-73960000D02*
X173710000Y-72484000D01*
X173710000Y-77516000D02*
X173710000Y-76040000D01*
X173750000Y-73960000D02*
X173750000Y-72453000D01*
X173750000Y-77547000D02*
X173750000Y-76040000D01*
X173790000Y-73960000D02*
X173790000Y-72423000D01*
X173790000Y-77577000D02*
X173790000Y-76040000D01*
X173830000Y-73960000D02*
X173830000Y-72393000D01*
X173830000Y-77607000D02*
X173830000Y-76040000D01*
X173870000Y-73960000D02*
X173870000Y-72364000D01*
X173870000Y-77636000D02*
X173870000Y-76040000D01*
X173910000Y-73960000D02*
X173910000Y-72337000D01*
X173910000Y-77663000D02*
X173910000Y-76040000D01*
X173950000Y-73960000D02*
X173950000Y-72310000D01*
X173950000Y-77690000D02*
X173950000Y-76040000D01*
X173990000Y-73960000D02*
X173990000Y-72284000D01*
X173990000Y-77716000D02*
X173990000Y-76040000D01*
X174030000Y-73960000D02*
X174030000Y-72259000D01*
X174030000Y-77741000D02*
X174030000Y-76040000D01*
X174070000Y-73960000D02*
X174070000Y-72235000D01*
X174070000Y-77765000D02*
X174070000Y-76040000D01*
X174110000Y-73960000D02*
X174110000Y-72211000D01*
X174110000Y-77789000D02*
X174110000Y-76040000D01*
X174150000Y-73960000D02*
X174150000Y-72188000D01*
X174150000Y-77812000D02*
X174150000Y-76040000D01*
X174190000Y-73960000D02*
X174190000Y-72166000D01*
X174190000Y-77834000D02*
X174190000Y-76040000D01*
X174230000Y-73960000D02*
X174230000Y-72145000D01*
X174230000Y-77855000D02*
X174230000Y-76040000D01*
X174270000Y-73960000D02*
X174270000Y-72124000D01*
X174270000Y-77876000D02*
X174270000Y-76040000D01*
X174310000Y-73960000D02*
X174310000Y-72104000D01*
X174310000Y-77896000D02*
X174310000Y-76040000D01*
X174350000Y-73960000D02*
X174350000Y-72085000D01*
X174350000Y-77915000D02*
X174350000Y-76040000D01*
X174390000Y-73960000D02*
X174390000Y-72066000D01*
X174390000Y-77934000D02*
X174390000Y-76040000D01*
X174430000Y-73960000D02*
X174430000Y-72048000D01*
X174430000Y-77952000D02*
X174430000Y-76040000D01*
X174470000Y-73960000D02*
X174470000Y-72031000D01*
X174470000Y-77969000D02*
X174470000Y-76040000D01*
X174510000Y-73960000D02*
X174510000Y-72014000D01*
X174510000Y-77986000D02*
X174510000Y-76040000D01*
X174550000Y-73960000D02*
X174550000Y-71998000D01*
X174550000Y-78002000D02*
X174550000Y-76040000D01*
X174590000Y-73960000D02*
X174590000Y-71983000D01*
X174590000Y-78017000D02*
X174590000Y-76040000D01*
X174630000Y-73960000D02*
X174630000Y-71968000D01*
X174630000Y-78032000D02*
X174630000Y-76040000D01*
X174670000Y-73960000D02*
X174670000Y-71953000D01*
X174670000Y-78047000D02*
X174670000Y-76040000D01*
X174710000Y-73960000D02*
X174710000Y-71940000D01*
X174710000Y-78060000D02*
X174710000Y-76040000D01*
X174750000Y-73960000D02*
X174750000Y-71927000D01*
X174750000Y-78073000D02*
X174750000Y-76040000D01*
X174790000Y-73960000D02*
X174790000Y-71914000D01*
X174790000Y-78086000D02*
X174790000Y-76040000D01*
X174830000Y-73960000D02*
X174830000Y-71902000D01*
X174830000Y-78098000D02*
X174830000Y-76040000D01*
X174870000Y-73960000D02*
X174870000Y-71891000D01*
X174870000Y-78109000D02*
X174870000Y-76040000D01*
X174910000Y-73960000D02*
X174910000Y-71880000D01*
X174910000Y-78120000D02*
X174910000Y-76040000D01*
X174950000Y-73960000D02*
X174950000Y-71869000D01*
X174950000Y-78131000D02*
X174950000Y-76040000D01*
X174990000Y-73960000D02*
X174990000Y-71860000D01*
X174990000Y-78140000D02*
X174990000Y-76040000D01*
X175030000Y-73960000D02*
X175030000Y-71850000D01*
X175030000Y-78150000D02*
X175030000Y-76040000D01*
X175070000Y-73960000D02*
X175070000Y-71841000D01*
X175070000Y-78159000D02*
X175070000Y-76040000D01*
X175110000Y-73960000D02*
X175110000Y-71833000D01*
X175110000Y-78167000D02*
X175110000Y-76040000D01*
X175150000Y-73960000D02*
X175150000Y-71826000D01*
X175150000Y-78174000D02*
X175150000Y-76040000D01*
X175190000Y-73960000D02*
X175190000Y-71818000D01*
X175190000Y-78182000D02*
X175190000Y-76040000D01*
X175230000Y-73960000D02*
X175230000Y-71812000D01*
X175230000Y-78188000D02*
X175230000Y-76040000D01*
X175270000Y-73960000D02*
X175270000Y-71805000D01*
X175270000Y-78195000D02*
X175270000Y-76040000D01*
X175310000Y-73960000D02*
X175310000Y-71800000D01*
X175310000Y-78200000D02*
X175310000Y-76040000D01*
X175350000Y-73960000D02*
X175350000Y-71795000D01*
X175350000Y-78205000D02*
X175350000Y-76040000D01*
X175390000Y-73960000D02*
X175390000Y-71790000D01*
X175390000Y-78210000D02*
X175390000Y-76040000D01*
X175430000Y-73960000D02*
X175430000Y-71786000D01*
X175430000Y-78214000D02*
X175430000Y-76040000D01*
X175470000Y-73960000D02*
X175470000Y-71782000D01*
X175470000Y-78218000D02*
X175470000Y-76040000D01*
X175510000Y-73960000D02*
X175510000Y-71779000D01*
X175510000Y-78221000D02*
X175510000Y-76040000D01*
X175550000Y-78224000D02*
X175550000Y-71776000D01*
X175590000Y-78226000D02*
X175590000Y-71774000D01*
X175630000Y-78228000D02*
X175630000Y-71772000D01*
X175670000Y-78229000D02*
X175670000Y-71771000D01*
X175710000Y-78230000D02*
X175710000Y-71770000D01*
X175750000Y-78230000D02*
X175750000Y-71770000D01*
X178935241Y-77154000D02*
X178935241Y-76524000D01*
X179250241Y-76839000D02*
X178620241Y-76839000D01*
X179020000Y-75000000D02*
G75*
G02*
X172480000Y-75000000I-3270000J0D01*
G01*
X172480000Y-75000000D02*
G75*
G02*
X179020000Y-75000000I3270000J0D01*
G01*
%TO.C,C1*%
X149380000Y-71380000D02*
X166120000Y-71380000D01*
X149380000Y-73981000D02*
X149380000Y-71380000D01*
X149380000Y-78620000D02*
X149380000Y-76019000D01*
X166120000Y-71380000D02*
X166120000Y-73981000D01*
X166120000Y-76019000D02*
X166120000Y-78620000D01*
X166120000Y-78620000D02*
X149380000Y-78620000D01*
%TO.C,R2*%
X106670000Y-94630000D02*
X106670000Y-94960000D01*
X106670000Y-97370000D02*
X106670000Y-97040000D01*
X113210000Y-94630000D02*
X106670000Y-94630000D01*
X113210000Y-94960000D02*
X113210000Y-94630000D01*
X113210000Y-97040000D02*
X113210000Y-97370000D01*
X113210000Y-97370000D02*
X106670000Y-97370000D01*
%TO.C,J1*%
D15*
X106250000Y-72500000D02*
X113750000Y-72500000D01*
X113750000Y-87500000D01*
X106250000Y-87500000D01*
X106250000Y-72500000D01*
%TO.C,R1*%
D14*
X106670000Y-89880000D02*
X106670000Y-90210000D01*
X106670000Y-92620000D02*
X106670000Y-92290000D01*
X113210000Y-89880000D02*
X106670000Y-89880000D01*
X113210000Y-90210000D02*
X113210000Y-89880000D01*
X113210000Y-92290000D02*
X113210000Y-92620000D01*
X113210000Y-92620000D02*
X106670000Y-92620000D01*
%TO.C,R11*%
X186730000Y-85880000D02*
X193270000Y-85880000D01*
X186730000Y-86210000D02*
X186730000Y-85880000D01*
X186730000Y-88290000D02*
X186730000Y-88620000D01*
X186730000Y-88620000D02*
X193270000Y-88620000D01*
X193270000Y-85880000D02*
X193270000Y-86210000D01*
X193270000Y-88620000D02*
X193270000Y-88290000D01*
%TO.C,C2*%
X150480000Y-81180000D02*
X155020000Y-81180000D01*
X150480000Y-81236000D02*
X150480000Y-81180000D01*
X155020000Y-83264000D02*
X155020000Y-83320000D01*
X155020000Y-83320000D02*
X150480000Y-83320000D01*
%TO.C,C7*%
X172442380Y-97402000D02*
X172442380Y-96598000D01*
X172482380Y-97633000D02*
X172482380Y-96367000D01*
X172522380Y-97801000D02*
X172522380Y-96199000D01*
X172562380Y-97939000D02*
X172562380Y-96061000D01*
X172602380Y-98058000D02*
X172602380Y-95942000D01*
X172642380Y-98165000D02*
X172642380Y-95835000D01*
X172682380Y-98261000D02*
X172682380Y-95739000D01*
X172722380Y-98350000D02*
X172722380Y-95650000D01*
X172762380Y-98432000D02*
X172762380Y-95568000D01*
X172802380Y-98509000D02*
X172802380Y-95491000D01*
X172842380Y-98581000D02*
X172842380Y-95419000D01*
X172882380Y-98649000D02*
X172882380Y-95351000D01*
X172922380Y-98714000D02*
X172922380Y-95286000D01*
X172962380Y-98775000D02*
X172962380Y-95225000D01*
X173002380Y-98834000D02*
X173002380Y-95166000D01*
X173042380Y-98890000D02*
X173042380Y-95110000D01*
X173082380Y-98943000D02*
X173082380Y-95057000D01*
X173122380Y-98995000D02*
X173122380Y-95005000D01*
X173162380Y-99044000D02*
X173162380Y-94956000D01*
X173202380Y-99091000D02*
X173202380Y-94909000D01*
X173242380Y-99137000D02*
X173242380Y-94863000D01*
X173282380Y-99181000D02*
X173282380Y-94819000D01*
X173322380Y-99223000D02*
X173322380Y-94777000D01*
X173362380Y-99264000D02*
X173362380Y-94736000D01*
X173402380Y-95960000D02*
X173402380Y-94696000D01*
X173402380Y-99304000D02*
X173402380Y-98040000D01*
X173442380Y-95960000D02*
X173442380Y-94658000D01*
X173442380Y-99342000D02*
X173442380Y-98040000D01*
X173482380Y-95960000D02*
X173482380Y-94621000D01*
X173482380Y-99379000D02*
X173482380Y-98040000D01*
X173522380Y-95960000D02*
X173522380Y-94585000D01*
X173522380Y-99415000D02*
X173522380Y-98040000D01*
X173562380Y-95960000D02*
X173562380Y-94550000D01*
X173562380Y-99450000D02*
X173562380Y-98040000D01*
X173602380Y-95960000D02*
X173602380Y-94517000D01*
X173602380Y-99483000D02*
X173602380Y-98040000D01*
X173642380Y-95960000D02*
X173642380Y-94484000D01*
X173642380Y-99516000D02*
X173642380Y-98040000D01*
X173682380Y-95960000D02*
X173682380Y-94453000D01*
X173682380Y-99547000D02*
X173682380Y-98040000D01*
X173722380Y-95960000D02*
X173722380Y-94423000D01*
X173722380Y-99577000D02*
X173722380Y-98040000D01*
X173762380Y-95960000D02*
X173762380Y-94393000D01*
X173762380Y-99607000D02*
X173762380Y-98040000D01*
X173802380Y-95960000D02*
X173802380Y-94364000D01*
X173802380Y-99636000D02*
X173802380Y-98040000D01*
X173842380Y-95960000D02*
X173842380Y-94337000D01*
X173842380Y-99663000D02*
X173842380Y-98040000D01*
X173882380Y-95960000D02*
X173882380Y-94310000D01*
X173882380Y-99690000D02*
X173882380Y-98040000D01*
X173922380Y-95960000D02*
X173922380Y-94284000D01*
X173922380Y-99716000D02*
X173922380Y-98040000D01*
X173962380Y-95960000D02*
X173962380Y-94259000D01*
X173962380Y-99741000D02*
X173962380Y-98040000D01*
X174002380Y-95960000D02*
X174002380Y-94235000D01*
X174002380Y-99765000D02*
X174002380Y-98040000D01*
X174042380Y-95960000D02*
X174042380Y-94211000D01*
X174042380Y-99789000D02*
X174042380Y-98040000D01*
X174082380Y-95960000D02*
X174082380Y-94188000D01*
X174082380Y-99812000D02*
X174082380Y-98040000D01*
X174122380Y-95960000D02*
X174122380Y-94166000D01*
X174122380Y-99834000D02*
X174122380Y-98040000D01*
X174162380Y-95960000D02*
X174162380Y-94145000D01*
X174162380Y-99855000D02*
X174162380Y-98040000D01*
X174202380Y-95960000D02*
X174202380Y-94124000D01*
X174202380Y-99876000D02*
X174202380Y-98040000D01*
X174242380Y-95960000D02*
X174242380Y-94104000D01*
X174242380Y-99896000D02*
X174242380Y-98040000D01*
X174282380Y-95960000D02*
X174282380Y-94085000D01*
X174282380Y-99915000D02*
X174282380Y-98040000D01*
X174322380Y-95960000D02*
X174322380Y-94066000D01*
X174322380Y-99934000D02*
X174322380Y-98040000D01*
X174362380Y-95960000D02*
X174362380Y-94048000D01*
X174362380Y-99952000D02*
X174362380Y-98040000D01*
X174402380Y-95960000D02*
X174402380Y-94031000D01*
X174402380Y-99969000D02*
X174402380Y-98040000D01*
X174442380Y-95960000D02*
X174442380Y-94014000D01*
X174442380Y-99986000D02*
X174442380Y-98040000D01*
X174482380Y-95960000D02*
X174482380Y-93998000D01*
X174482380Y-100002000D02*
X174482380Y-98040000D01*
X174522380Y-95960000D02*
X174522380Y-93983000D01*
X174522380Y-100017000D02*
X174522380Y-98040000D01*
X174562380Y-95960000D02*
X174562380Y-93968000D01*
X174562380Y-100032000D02*
X174562380Y-98040000D01*
X174602380Y-95960000D02*
X174602380Y-93953000D01*
X174602380Y-100047000D02*
X174602380Y-98040000D01*
X174642380Y-95960000D02*
X174642380Y-93940000D01*
X174642380Y-100060000D02*
X174642380Y-98040000D01*
X174682380Y-95960000D02*
X174682380Y-93927000D01*
X174682380Y-100073000D02*
X174682380Y-98040000D01*
X174722380Y-95960000D02*
X174722380Y-93914000D01*
X174722380Y-100086000D02*
X174722380Y-98040000D01*
X174762380Y-95960000D02*
X174762380Y-93902000D01*
X174762380Y-100098000D02*
X174762380Y-98040000D01*
X174802380Y-95960000D02*
X174802380Y-93891000D01*
X174802380Y-100109000D02*
X174802380Y-98040000D01*
X174842380Y-95960000D02*
X174842380Y-93880000D01*
X174842380Y-100120000D02*
X174842380Y-98040000D01*
X174882380Y-95960000D02*
X174882380Y-93869000D01*
X174882380Y-100131000D02*
X174882380Y-98040000D01*
X174922380Y-95960000D02*
X174922380Y-93860000D01*
X174922380Y-100140000D02*
X174922380Y-98040000D01*
X174962380Y-95960000D02*
X174962380Y-93850000D01*
X174962380Y-100150000D02*
X174962380Y-98040000D01*
X175002380Y-95960000D02*
X175002380Y-93841000D01*
X175002380Y-100159000D02*
X175002380Y-98040000D01*
X175042380Y-95960000D02*
X175042380Y-93833000D01*
X175042380Y-100167000D02*
X175042380Y-98040000D01*
X175082380Y-95960000D02*
X175082380Y-93826000D01*
X175082380Y-100174000D02*
X175082380Y-98040000D01*
X175122380Y-95960000D02*
X175122380Y-93818000D01*
X175122380Y-100182000D02*
X175122380Y-98040000D01*
X175162380Y-95960000D02*
X175162380Y-93812000D01*
X175162380Y-100188000D02*
X175162380Y-98040000D01*
X175202380Y-95960000D02*
X175202380Y-93805000D01*
X175202380Y-100195000D02*
X175202380Y-98040000D01*
X175242380Y-95960000D02*
X175242380Y-93800000D01*
X175242380Y-100200000D02*
X175242380Y-98040000D01*
X175282380Y-95960000D02*
X175282380Y-93795000D01*
X175282380Y-100205000D02*
X175282380Y-98040000D01*
X175322380Y-95960000D02*
X175322380Y-93790000D01*
X175322380Y-100210000D02*
X175322380Y-98040000D01*
X175362380Y-95960000D02*
X175362380Y-93786000D01*
X175362380Y-100214000D02*
X175362380Y-98040000D01*
X175402380Y-95960000D02*
X175402380Y-93782000D01*
X175402380Y-100218000D02*
X175402380Y-98040000D01*
X175442380Y-95960000D02*
X175442380Y-93779000D01*
X175442380Y-100221000D02*
X175442380Y-98040000D01*
X175482380Y-100224000D02*
X175482380Y-93776000D01*
X175522380Y-100226000D02*
X175522380Y-93774000D01*
X175562380Y-100228000D02*
X175562380Y-93772000D01*
X175602380Y-100229000D02*
X175602380Y-93771000D01*
X175642380Y-100230000D02*
X175642380Y-93770000D01*
X175682380Y-100230000D02*
X175682380Y-93770000D01*
X178867621Y-99154000D02*
X178867621Y-98524000D01*
X179182621Y-98839000D02*
X178552621Y-98839000D01*
X178952380Y-97000000D02*
G75*
G02*
X172412380Y-97000000I-3270000J0D01*
G01*
X172412380Y-97000000D02*
G75*
G02*
X178952380Y-97000000I3270000J0D01*
G01*
%TO.C,D4*%
X161630000Y-92090000D02*
X163870000Y-92090000D01*
X161630000Y-92210000D02*
X163870000Y-92210000D01*
X161630000Y-92330000D02*
X163870000Y-92330000D01*
X162750000Y-88040000D02*
X162750000Y-88690000D01*
X162750000Y-93580000D02*
X162750000Y-92930000D01*
X161630000Y-88690000D02*
X163870000Y-88690000D01*
X163870000Y-92930000D01*
X161630000Y-92930000D01*
X161630000Y-88690000D01*
%TO.C,J2*%
D15*
X186250000Y-72500000D02*
X193750000Y-72500000D01*
X193750000Y-82500000D01*
X186250000Y-82500000D01*
X186250000Y-72500000D01*
%TO.C,C4*%
D14*
X121510000Y-75402000D02*
X121510000Y-74598000D01*
X121550000Y-75633000D02*
X121550000Y-74367000D01*
X121590000Y-75801000D02*
X121590000Y-74199000D01*
X121630000Y-75939000D02*
X121630000Y-74061000D01*
X121670000Y-76058000D02*
X121670000Y-73942000D01*
X121710000Y-76165000D02*
X121710000Y-73835000D01*
X121750000Y-76261000D02*
X121750000Y-73739000D01*
X121790000Y-76350000D02*
X121790000Y-73650000D01*
X121830000Y-76432000D02*
X121830000Y-73568000D01*
X121870000Y-76509000D02*
X121870000Y-73491000D01*
X121910000Y-76581000D02*
X121910000Y-73419000D01*
X121950000Y-76649000D02*
X121950000Y-73351000D01*
X121990000Y-76714000D02*
X121990000Y-73286000D01*
X122030000Y-76775000D02*
X122030000Y-73225000D01*
X122070000Y-76834000D02*
X122070000Y-73166000D01*
X122110000Y-76890000D02*
X122110000Y-73110000D01*
X122150000Y-76943000D02*
X122150000Y-73057000D01*
X122190000Y-76995000D02*
X122190000Y-73005000D01*
X122230000Y-77044000D02*
X122230000Y-72956000D01*
X122270000Y-77091000D02*
X122270000Y-72909000D01*
X122310000Y-77137000D02*
X122310000Y-72863000D01*
X122350000Y-77181000D02*
X122350000Y-72819000D01*
X122390000Y-77223000D02*
X122390000Y-72777000D01*
X122430000Y-77264000D02*
X122430000Y-72736000D01*
X122470000Y-73960000D02*
X122470000Y-72696000D01*
X122470000Y-77304000D02*
X122470000Y-76040000D01*
X122510000Y-73960000D02*
X122510000Y-72658000D01*
X122510000Y-77342000D02*
X122510000Y-76040000D01*
X122550000Y-73960000D02*
X122550000Y-72621000D01*
X122550000Y-77379000D02*
X122550000Y-76040000D01*
X122590000Y-73960000D02*
X122590000Y-72585000D01*
X122590000Y-77415000D02*
X122590000Y-76040000D01*
X122630000Y-73960000D02*
X122630000Y-72550000D01*
X122630000Y-77450000D02*
X122630000Y-76040000D01*
X122670000Y-73960000D02*
X122670000Y-72517000D01*
X122670000Y-77483000D02*
X122670000Y-76040000D01*
X122710000Y-73960000D02*
X122710000Y-72484000D01*
X122710000Y-77516000D02*
X122710000Y-76040000D01*
X122750000Y-73960000D02*
X122750000Y-72453000D01*
X122750000Y-77547000D02*
X122750000Y-76040000D01*
X122790000Y-73960000D02*
X122790000Y-72423000D01*
X122790000Y-77577000D02*
X122790000Y-76040000D01*
X122830000Y-73960000D02*
X122830000Y-72393000D01*
X122830000Y-77607000D02*
X122830000Y-76040000D01*
X122870000Y-73960000D02*
X122870000Y-72364000D01*
X122870000Y-77636000D02*
X122870000Y-76040000D01*
X122910000Y-73960000D02*
X122910000Y-72337000D01*
X122910000Y-77663000D02*
X122910000Y-76040000D01*
X122950000Y-73960000D02*
X122950000Y-72310000D01*
X122950000Y-77690000D02*
X122950000Y-76040000D01*
X122990000Y-73960000D02*
X122990000Y-72284000D01*
X122990000Y-77716000D02*
X122990000Y-76040000D01*
X123030000Y-73960000D02*
X123030000Y-72259000D01*
X123030000Y-77741000D02*
X123030000Y-76040000D01*
X123070000Y-73960000D02*
X123070000Y-72235000D01*
X123070000Y-77765000D02*
X123070000Y-76040000D01*
X123110000Y-73960000D02*
X123110000Y-72211000D01*
X123110000Y-77789000D02*
X123110000Y-76040000D01*
X123150000Y-73960000D02*
X123150000Y-72188000D01*
X123150000Y-77812000D02*
X123150000Y-76040000D01*
X123190000Y-73960000D02*
X123190000Y-72166000D01*
X123190000Y-77834000D02*
X123190000Y-76040000D01*
X123230000Y-73960000D02*
X123230000Y-72145000D01*
X123230000Y-77855000D02*
X123230000Y-76040000D01*
X123270000Y-73960000D02*
X123270000Y-72124000D01*
X123270000Y-77876000D02*
X123270000Y-76040000D01*
X123310000Y-73960000D02*
X123310000Y-72104000D01*
X123310000Y-77896000D02*
X123310000Y-76040000D01*
X123350000Y-73960000D02*
X123350000Y-72085000D01*
X123350000Y-77915000D02*
X123350000Y-76040000D01*
X123390000Y-73960000D02*
X123390000Y-72066000D01*
X123390000Y-77934000D02*
X123390000Y-76040000D01*
X123430000Y-73960000D02*
X123430000Y-72048000D01*
X123430000Y-77952000D02*
X123430000Y-76040000D01*
X123470000Y-73960000D02*
X123470000Y-72031000D01*
X123470000Y-77969000D02*
X123470000Y-76040000D01*
X123510000Y-73960000D02*
X123510000Y-72014000D01*
X123510000Y-77986000D02*
X123510000Y-76040000D01*
X123550000Y-73960000D02*
X123550000Y-71998000D01*
X123550000Y-78002000D02*
X123550000Y-76040000D01*
X123590000Y-73960000D02*
X123590000Y-71983000D01*
X123590000Y-78017000D02*
X123590000Y-76040000D01*
X123630000Y-73960000D02*
X123630000Y-71968000D01*
X123630000Y-78032000D02*
X123630000Y-76040000D01*
X123670000Y-73960000D02*
X123670000Y-71953000D01*
X123670000Y-78047000D02*
X123670000Y-76040000D01*
X123710000Y-73960000D02*
X123710000Y-71940000D01*
X123710000Y-78060000D02*
X123710000Y-76040000D01*
X123750000Y-73960000D02*
X123750000Y-71927000D01*
X123750000Y-78073000D02*
X123750000Y-76040000D01*
X123790000Y-73960000D02*
X123790000Y-71914000D01*
X123790000Y-78086000D02*
X123790000Y-76040000D01*
X123830000Y-73960000D02*
X123830000Y-71902000D01*
X123830000Y-78098000D02*
X123830000Y-76040000D01*
X123870000Y-73960000D02*
X123870000Y-71891000D01*
X123870000Y-78109000D02*
X123870000Y-76040000D01*
X123910000Y-73960000D02*
X123910000Y-71880000D01*
X123910000Y-78120000D02*
X123910000Y-76040000D01*
X123950000Y-73960000D02*
X123950000Y-71869000D01*
X123950000Y-78131000D02*
X123950000Y-76040000D01*
X123990000Y-73960000D02*
X123990000Y-71860000D01*
X123990000Y-78140000D02*
X123990000Y-76040000D01*
X124030000Y-73960000D02*
X124030000Y-71850000D01*
X124030000Y-78150000D02*
X124030000Y-76040000D01*
X124070000Y-73960000D02*
X124070000Y-71841000D01*
X124070000Y-78159000D02*
X124070000Y-76040000D01*
X124110000Y-73960000D02*
X124110000Y-71833000D01*
X124110000Y-78167000D02*
X124110000Y-76040000D01*
X124150000Y-73960000D02*
X124150000Y-71826000D01*
X124150000Y-78174000D02*
X124150000Y-76040000D01*
X124190000Y-73960000D02*
X124190000Y-71818000D01*
X124190000Y-78182000D02*
X124190000Y-76040000D01*
X124230000Y-73960000D02*
X124230000Y-71812000D01*
X124230000Y-78188000D02*
X124230000Y-76040000D01*
X124270000Y-73960000D02*
X124270000Y-71805000D01*
X124270000Y-78195000D02*
X124270000Y-76040000D01*
X124310000Y-73960000D02*
X124310000Y-71800000D01*
X124310000Y-78200000D02*
X124310000Y-76040000D01*
X124350000Y-73960000D02*
X124350000Y-71795000D01*
X124350000Y-78205000D02*
X124350000Y-76040000D01*
X124390000Y-73960000D02*
X124390000Y-71790000D01*
X124390000Y-78210000D02*
X124390000Y-76040000D01*
X124430000Y-73960000D02*
X124430000Y-71786000D01*
X124430000Y-78214000D02*
X124430000Y-76040000D01*
X124470000Y-73960000D02*
X124470000Y-71782000D01*
X124470000Y-78218000D02*
X124470000Y-76040000D01*
X124510000Y-73960000D02*
X124510000Y-71779000D01*
X124510000Y-78221000D02*
X124510000Y-76040000D01*
X124550000Y-78224000D02*
X124550000Y-71776000D01*
X124590000Y-78226000D02*
X124590000Y-71774000D01*
X124630000Y-78228000D02*
X124630000Y-71772000D01*
X124670000Y-78229000D02*
X124670000Y-71771000D01*
X124710000Y-78230000D02*
X124710000Y-71770000D01*
X124750000Y-78230000D02*
X124750000Y-71770000D01*
X127935241Y-77154000D02*
X127935241Y-76524000D01*
X128250241Y-76839000D02*
X127620241Y-76839000D01*
X128020000Y-75000000D02*
G75*
G02*
X121480000Y-75000000I-3270000J0D01*
G01*
X121480000Y-75000000D02*
G75*
G02*
X128020000Y-75000000I3270000J0D01*
G01*
%TO.C,R3*%
X136290000Y-71380000D02*
X136290000Y-71710000D01*
X136290000Y-74120000D02*
X136290000Y-73790000D01*
X142830000Y-71380000D02*
X136290000Y-71380000D01*
X142830000Y-71710000D02*
X142830000Y-71380000D01*
X142830000Y-73790000D02*
X142830000Y-74120000D01*
X142830000Y-74120000D02*
X136290000Y-74120000D01*
%TO.C,R7*%
X146130000Y-87540000D02*
X146460000Y-87540000D01*
X146130000Y-94080000D02*
X146130000Y-87540000D01*
X146460000Y-94080000D02*
X146130000Y-94080000D01*
X148540000Y-94080000D02*
X148870000Y-94080000D01*
X148870000Y-87540000D02*
X148540000Y-87540000D01*
X148870000Y-94080000D02*
X148870000Y-87540000D01*
%TO.C,C5*%
X121510000Y-97402000D02*
X121510000Y-96598000D01*
X121550000Y-97633000D02*
X121550000Y-96367000D01*
X121590000Y-97801000D02*
X121590000Y-96199000D01*
X121630000Y-97939000D02*
X121630000Y-96061000D01*
X121670000Y-98058000D02*
X121670000Y-95942000D01*
X121710000Y-98165000D02*
X121710000Y-95835000D01*
X121750000Y-98261000D02*
X121750000Y-95739000D01*
X121790000Y-98350000D02*
X121790000Y-95650000D01*
X121830000Y-98432000D02*
X121830000Y-95568000D01*
X121870000Y-98509000D02*
X121870000Y-95491000D01*
X121910000Y-98581000D02*
X121910000Y-95419000D01*
X121950000Y-98649000D02*
X121950000Y-95351000D01*
X121990000Y-98714000D02*
X121990000Y-95286000D01*
X122030000Y-98775000D02*
X122030000Y-95225000D01*
X122070000Y-98834000D02*
X122070000Y-95166000D01*
X122110000Y-98890000D02*
X122110000Y-95110000D01*
X122150000Y-98943000D02*
X122150000Y-95057000D01*
X122190000Y-98995000D02*
X122190000Y-95005000D01*
X122230000Y-99044000D02*
X122230000Y-94956000D01*
X122270000Y-99091000D02*
X122270000Y-94909000D01*
X122310000Y-99137000D02*
X122310000Y-94863000D01*
X122350000Y-99181000D02*
X122350000Y-94819000D01*
X122390000Y-99223000D02*
X122390000Y-94777000D01*
X122430000Y-99264000D02*
X122430000Y-94736000D01*
X122470000Y-95960000D02*
X122470000Y-94696000D01*
X122470000Y-99304000D02*
X122470000Y-98040000D01*
X122510000Y-95960000D02*
X122510000Y-94658000D01*
X122510000Y-99342000D02*
X122510000Y-98040000D01*
X122550000Y-95960000D02*
X122550000Y-94621000D01*
X122550000Y-99379000D02*
X122550000Y-98040000D01*
X122590000Y-95960000D02*
X122590000Y-94585000D01*
X122590000Y-99415000D02*
X122590000Y-98040000D01*
X122630000Y-95960000D02*
X122630000Y-94550000D01*
X122630000Y-99450000D02*
X122630000Y-98040000D01*
X122670000Y-95960000D02*
X122670000Y-94517000D01*
X122670000Y-99483000D02*
X122670000Y-98040000D01*
X122710000Y-95960000D02*
X122710000Y-94484000D01*
X122710000Y-99516000D02*
X122710000Y-98040000D01*
X122750000Y-95960000D02*
X122750000Y-94453000D01*
X122750000Y-99547000D02*
X122750000Y-98040000D01*
X122790000Y-95960000D02*
X122790000Y-94423000D01*
X122790000Y-99577000D02*
X122790000Y-98040000D01*
X122830000Y-95960000D02*
X122830000Y-94393000D01*
X122830000Y-99607000D02*
X122830000Y-98040000D01*
X122870000Y-95960000D02*
X122870000Y-94364000D01*
X122870000Y-99636000D02*
X122870000Y-98040000D01*
X122910000Y-95960000D02*
X122910000Y-94337000D01*
X122910000Y-99663000D02*
X122910000Y-98040000D01*
X122950000Y-95960000D02*
X122950000Y-94310000D01*
X122950000Y-99690000D02*
X122950000Y-98040000D01*
X122990000Y-95960000D02*
X122990000Y-94284000D01*
X122990000Y-99716000D02*
X122990000Y-98040000D01*
X123030000Y-95960000D02*
X123030000Y-94259000D01*
X123030000Y-99741000D02*
X123030000Y-98040000D01*
X123070000Y-95960000D02*
X123070000Y-94235000D01*
X123070000Y-99765000D02*
X123070000Y-98040000D01*
X123110000Y-95960000D02*
X123110000Y-94211000D01*
X123110000Y-99789000D02*
X123110000Y-98040000D01*
X123150000Y-95960000D02*
X123150000Y-94188000D01*
X123150000Y-99812000D02*
X123150000Y-98040000D01*
X123190000Y-95960000D02*
X123190000Y-94166000D01*
X123190000Y-99834000D02*
X123190000Y-98040000D01*
X123230000Y-95960000D02*
X123230000Y-94145000D01*
X123230000Y-99855000D02*
X123230000Y-98040000D01*
X123270000Y-95960000D02*
X123270000Y-94124000D01*
X123270000Y-99876000D02*
X123270000Y-98040000D01*
X123310000Y-95960000D02*
X123310000Y-94104000D01*
X123310000Y-99896000D02*
X123310000Y-98040000D01*
X123350000Y-95960000D02*
X123350000Y-94085000D01*
X123350000Y-99915000D02*
X123350000Y-98040000D01*
X123390000Y-95960000D02*
X123390000Y-94066000D01*
X123390000Y-99934000D02*
X123390000Y-98040000D01*
X123430000Y-95960000D02*
X123430000Y-94048000D01*
X123430000Y-99952000D02*
X123430000Y-98040000D01*
X123470000Y-95960000D02*
X123470000Y-94031000D01*
X123470000Y-99969000D02*
X123470000Y-98040000D01*
X123510000Y-95960000D02*
X123510000Y-94014000D01*
X123510000Y-99986000D02*
X123510000Y-98040000D01*
X123550000Y-95960000D02*
X123550000Y-93998000D01*
X123550000Y-100002000D02*
X123550000Y-98040000D01*
X123590000Y-95960000D02*
X123590000Y-93983000D01*
X123590000Y-100017000D02*
X123590000Y-98040000D01*
X123630000Y-95960000D02*
X123630000Y-93968000D01*
X123630000Y-100032000D02*
X123630000Y-98040000D01*
X123670000Y-95960000D02*
X123670000Y-93953000D01*
X123670000Y-100047000D02*
X123670000Y-98040000D01*
X123710000Y-95960000D02*
X123710000Y-93940000D01*
X123710000Y-100060000D02*
X123710000Y-98040000D01*
X123750000Y-95960000D02*
X123750000Y-93927000D01*
X123750000Y-100073000D02*
X123750000Y-98040000D01*
X123790000Y-95960000D02*
X123790000Y-93914000D01*
X123790000Y-100086000D02*
X123790000Y-98040000D01*
X123830000Y-95960000D02*
X123830000Y-93902000D01*
X123830000Y-100098000D02*
X123830000Y-98040000D01*
X123870000Y-95960000D02*
X123870000Y-93891000D01*
X123870000Y-100109000D02*
X123870000Y-98040000D01*
X123910000Y-95960000D02*
X123910000Y-93880000D01*
X123910000Y-100120000D02*
X123910000Y-98040000D01*
X123950000Y-95960000D02*
X123950000Y-93869000D01*
X123950000Y-100131000D02*
X123950000Y-98040000D01*
X123990000Y-95960000D02*
X123990000Y-93860000D01*
X123990000Y-100140000D02*
X123990000Y-98040000D01*
X124030000Y-95960000D02*
X124030000Y-93850000D01*
X124030000Y-100150000D02*
X124030000Y-98040000D01*
X124070000Y-95960000D02*
X124070000Y-93841000D01*
X124070000Y-100159000D02*
X124070000Y-98040000D01*
X124110000Y-95960000D02*
X124110000Y-93833000D01*
X124110000Y-100167000D02*
X124110000Y-98040000D01*
X124150000Y-95960000D02*
X124150000Y-93826000D01*
X124150000Y-100174000D02*
X124150000Y-98040000D01*
X124190000Y-95960000D02*
X124190000Y-93818000D01*
X124190000Y-100182000D02*
X124190000Y-98040000D01*
X124230000Y-95960000D02*
X124230000Y-93812000D01*
X124230000Y-100188000D02*
X124230000Y-98040000D01*
X124270000Y-95960000D02*
X124270000Y-93805000D01*
X124270000Y-100195000D02*
X124270000Y-98040000D01*
X124310000Y-95960000D02*
X124310000Y-93800000D01*
X124310000Y-100200000D02*
X124310000Y-98040000D01*
X124350000Y-95960000D02*
X124350000Y-93795000D01*
X124350000Y-100205000D02*
X124350000Y-98040000D01*
X124390000Y-95960000D02*
X124390000Y-93790000D01*
X124390000Y-100210000D02*
X124390000Y-98040000D01*
X124430000Y-95960000D02*
X124430000Y-93786000D01*
X124430000Y-100214000D02*
X124430000Y-98040000D01*
X124470000Y-95960000D02*
X124470000Y-93782000D01*
X124470000Y-100218000D02*
X124470000Y-98040000D01*
X124510000Y-95960000D02*
X124510000Y-93779000D01*
X124510000Y-100221000D02*
X124510000Y-98040000D01*
X124550000Y-100224000D02*
X124550000Y-93776000D01*
X124590000Y-100226000D02*
X124590000Y-93774000D01*
X124630000Y-100228000D02*
X124630000Y-93772000D01*
X124670000Y-100229000D02*
X124670000Y-93771000D01*
X124710000Y-100230000D02*
X124710000Y-93770000D01*
X124750000Y-100230000D02*
X124750000Y-93770000D01*
X127935241Y-99154000D02*
X127935241Y-98524000D01*
X128250241Y-98839000D02*
X127620241Y-98839000D01*
X128020000Y-97000000D02*
G75*
G02*
X121480000Y-97000000I-3270000J0D01*
G01*
X121480000Y-97000000D02*
G75*
G02*
X128020000Y-97000000I3270000J0D01*
G01*
%TO.C,R9*%
X182130000Y-107380000D02*
X182130000Y-112100000D01*
X182130000Y-107380000D02*
X183620000Y-107380000D01*
X182130000Y-115910000D02*
X182130000Y-118970000D01*
X182130000Y-118970000D02*
X191870000Y-118970000D01*
X185340000Y-107380000D02*
X186170000Y-107380000D01*
X187790000Y-107380000D02*
X188320000Y-107380000D01*
X190690000Y-107380000D02*
X191870000Y-107380000D01*
X191870000Y-115910000D02*
X191870000Y-118970000D01*
X191880000Y-107380000D02*
X191880000Y-112100000D01*
%TO.C,D2*%
X136670000Y-82250000D02*
X137320000Y-82250000D01*
X140720000Y-83370000D02*
X140720000Y-81130000D01*
X140840000Y-83370000D02*
X140840000Y-81130000D01*
X140960000Y-83370000D02*
X140960000Y-81130000D01*
X142210000Y-82250000D02*
X141560000Y-82250000D01*
X137320000Y-81130000D02*
X141560000Y-81130000D01*
X141560000Y-83370000D01*
X137320000Y-83370000D01*
X137320000Y-81130000D01*
%TO.C,U2*%
D15*
X170610000Y-80980000D02*
X180770000Y-80980000D01*
X180770000Y-91140000D01*
X170610000Y-91140000D01*
X170610000Y-80980000D01*
D16*
X169594000Y-82250000D02*
G75*
G02*
X169086000Y-82250000I-254000J0D01*
G01*
X169086000Y-82250000D02*
G75*
G02*
X169594000Y-82250000I254000J0D01*
G01*
%TO.C,R4*%
D14*
X106670000Y-99380000D02*
X106670000Y-99710000D01*
X106670000Y-102120000D02*
X106670000Y-101790000D01*
X113210000Y-99380000D02*
X106670000Y-99380000D01*
X113210000Y-99710000D02*
X113210000Y-99380000D01*
X113210000Y-101790000D02*
X113210000Y-102120000D01*
X113210000Y-102120000D02*
X106670000Y-102120000D01*
%TO.C,U1*%
D15*
X120059000Y-80980000D02*
X130219000Y-80980000D01*
X130219000Y-91140000D01*
X120059000Y-91140000D01*
X120059000Y-80980000D01*
D16*
X119043000Y-82250000D02*
G75*
G02*
X118535000Y-82250000I-254000J0D01*
G01*
X118535000Y-82250000D02*
G75*
G02*
X119043000Y-82250000I254000J0D01*
G01*
%TO.C,R6*%
D14*
X138130000Y-87540000D02*
X138130000Y-94080000D01*
X138130000Y-94080000D02*
X138460000Y-94080000D01*
X138460000Y-87540000D02*
X138130000Y-87540000D01*
X140540000Y-87540000D02*
X140870000Y-87540000D01*
X140870000Y-87540000D02*
X140870000Y-94080000D01*
X140870000Y-94080000D02*
X140540000Y-94080000D01*
%TO.C,D3*%
X155250000Y-88040000D02*
X155250000Y-88690000D01*
X155250000Y-93580000D02*
X155250000Y-92930000D01*
X156370000Y-89290000D02*
X154130000Y-89290000D01*
X156370000Y-89410000D02*
X154130000Y-89410000D01*
X156370000Y-89530000D02*
X154130000Y-89530000D01*
X154130000Y-88690000D02*
X156370000Y-88690000D01*
X156370000Y-92930000D01*
X154130000Y-92930000D01*
X154130000Y-88690000D01*
%TO.C,R8*%
X153380000Y-107380000D02*
X153380000Y-112100000D01*
X153380000Y-107380000D02*
X154870000Y-107380000D01*
X153380000Y-115910000D02*
X153380000Y-118970000D01*
X153380000Y-118970000D02*
X163120000Y-118970000D01*
X156590000Y-107380000D02*
X157420000Y-107380000D01*
X159040000Y-107380000D02*
X159570000Y-107380000D01*
X161940000Y-107380000D02*
X163120000Y-107380000D01*
X163120000Y-115910000D02*
X163120000Y-118970000D01*
X163130000Y-107380000D02*
X163130000Y-112100000D01*
%TO.C,R10*%
X168380000Y-107380000D02*
X168380000Y-112100000D01*
X168380000Y-107380000D02*
X169870000Y-107380000D01*
X168380000Y-115910000D02*
X168380000Y-118970000D01*
X168380000Y-118970000D02*
X178120000Y-118970000D01*
X171590000Y-107380000D02*
X172420000Y-107380000D01*
X174040000Y-107380000D02*
X174570000Y-107380000D01*
X176940000Y-107380000D02*
X178120000Y-107380000D01*
X178120000Y-115910000D02*
X178120000Y-118970000D01*
X178130000Y-107380000D02*
X178130000Y-112100000D01*
%TO.C,R5*%
X139630000Y-107380000D02*
X139630000Y-112100000D01*
X139630000Y-107380000D02*
X141120000Y-107380000D01*
X139630000Y-115910000D02*
X139630000Y-118970000D01*
X139630000Y-118970000D02*
X149370000Y-118970000D01*
X142840000Y-107380000D02*
X143670000Y-107380000D01*
X145290000Y-107380000D02*
X145820000Y-107380000D01*
X148190000Y-107380000D02*
X149370000Y-107380000D01*
X149370000Y-115910000D02*
X149370000Y-118970000D01*
X149380000Y-107380000D02*
X149380000Y-112100000D01*
%TO.C,D1*%
X136730000Y-77500000D02*
X137380000Y-77500000D01*
X137980000Y-76380000D02*
X137980000Y-78620000D01*
X138100000Y-76380000D02*
X138100000Y-78620000D01*
X138220000Y-76380000D02*
X138220000Y-78620000D01*
X142270000Y-77500000D02*
X141620000Y-77500000D01*
X137380000Y-76380000D02*
X141620000Y-76380000D01*
X141620000Y-78620000D01*
X137380000Y-78620000D01*
X137380000Y-76380000D01*
%TD*%
M02*
