%TF.GenerationSoftware,KiCad,Pcbnew,10.0.0*%
%TF.CreationDate,2026-06-30T21:05:47+02:00*%
%TF.ProjectId,Triple-S Generator,54726970-6c65-42d5-9320-47656e657261,rev?*%
%TF.SameCoordinates,Original*%
%TF.FileFunction,Legend,Bot*%
%TF.FilePolarity,Positive*%
%FSLAX46Y46*%
G04 Gerber Fmt 4.6, Leading zero omitted, Abs format (unit mm)*
G04 Created by KiCad (PCBNEW 10.0.0) date 2026-06-30 21:05:47*
%MOMM*%
%LPD*%
G01*
G04 APERTURE LIST*
%ADD10C,0.375000*%
%ADD11C,0.625000*%
G04 APERTURE END LIST*
D10*
X133881861Y-107756214D02*
X132453290Y-107756214D01*
X134167575Y-108613357D02*
X133167575Y-105613357D01*
X133167575Y-105613357D02*
X132167575Y-108613357D01*
X131167575Y-108613357D02*
X131167575Y-105613357D01*
X131167575Y-106756214D02*
X130881861Y-106613357D01*
X130881861Y-106613357D02*
X130310432Y-106613357D01*
X130310432Y-106613357D02*
X130024718Y-106756214D01*
X130024718Y-106756214D02*
X129881861Y-106899071D01*
X129881861Y-106899071D02*
X129739003Y-107184785D01*
X129739003Y-107184785D02*
X129739003Y-108041928D01*
X129739003Y-108041928D02*
X129881861Y-108327642D01*
X129881861Y-108327642D02*
X130024718Y-108470500D01*
X130024718Y-108470500D02*
X130310432Y-108613357D01*
X130310432Y-108613357D02*
X130881861Y-108613357D01*
X130881861Y-108613357D02*
X131167575Y-108470500D01*
X128453289Y-108613357D02*
X128453289Y-106613357D01*
X128453289Y-105613357D02*
X128596146Y-105756214D01*
X128596146Y-105756214D02*
X128453289Y-105899071D01*
X128453289Y-105899071D02*
X128310432Y-105756214D01*
X128310432Y-105756214D02*
X128453289Y-105613357D01*
X128453289Y-105613357D02*
X128453289Y-105899071D01*
X127453289Y-106613357D02*
X126310432Y-106613357D01*
X127024718Y-105613357D02*
X127024718Y-108184785D01*
X127024718Y-108184785D02*
X126881861Y-108470500D01*
X126881861Y-108470500D02*
X126596146Y-108613357D01*
X126596146Y-108613357D02*
X126310432Y-108613357D01*
X125310432Y-107470500D02*
X123024718Y-107470500D01*
X120596146Y-107041928D02*
X120167574Y-107184785D01*
X120167574Y-107184785D02*
X120024717Y-107327642D01*
X120024717Y-107327642D02*
X119881860Y-107613357D01*
X119881860Y-107613357D02*
X119881860Y-108041928D01*
X119881860Y-108041928D02*
X120024717Y-108327642D01*
X120024717Y-108327642D02*
X120167574Y-108470500D01*
X120167574Y-108470500D02*
X120453289Y-108613357D01*
X120453289Y-108613357D02*
X121596146Y-108613357D01*
X121596146Y-108613357D02*
X121596146Y-105613357D01*
X121596146Y-105613357D02*
X120596146Y-105613357D01*
X120596146Y-105613357D02*
X120310432Y-105756214D01*
X120310432Y-105756214D02*
X120167574Y-105899071D01*
X120167574Y-105899071D02*
X120024717Y-106184785D01*
X120024717Y-106184785D02*
X120024717Y-106470500D01*
X120024717Y-106470500D02*
X120167574Y-106756214D01*
X120167574Y-106756214D02*
X120310432Y-106899071D01*
X120310432Y-106899071D02*
X120596146Y-107041928D01*
X120596146Y-107041928D02*
X121596146Y-107041928D01*
X118881860Y-106613357D02*
X118167574Y-108613357D01*
X117453289Y-106613357D02*
X118167574Y-108613357D01*
X118167574Y-108613357D02*
X118453289Y-109327642D01*
X118453289Y-109327642D02*
X118596146Y-109470500D01*
X118596146Y-109470500D02*
X118881860Y-109613357D01*
X116739003Y-106613357D02*
X115596146Y-106613357D01*
X116310432Y-105613357D02*
X116310432Y-108184785D01*
X116310432Y-108184785D02*
X116167575Y-108470500D01*
X116167575Y-108470500D02*
X115881860Y-108613357D01*
X115881860Y-108613357D02*
X115596146Y-108613357D01*
X113453289Y-108470500D02*
X113739003Y-108613357D01*
X113739003Y-108613357D02*
X114310432Y-108613357D01*
X114310432Y-108613357D02*
X114596146Y-108470500D01*
X114596146Y-108470500D02*
X114739003Y-108184785D01*
X114739003Y-108184785D02*
X114739003Y-107041928D01*
X114739003Y-107041928D02*
X114596146Y-106756214D01*
X114596146Y-106756214D02*
X114310432Y-106613357D01*
X114310432Y-106613357D02*
X113739003Y-106613357D01*
X113739003Y-106613357D02*
X113453289Y-106756214D01*
X113453289Y-106756214D02*
X113310432Y-107041928D01*
X113310432Y-107041928D02*
X113310432Y-107327642D01*
X113310432Y-107327642D02*
X114739003Y-107613357D01*
X142081861Y-116499071D02*
X141939004Y-116356214D01*
X141939004Y-116356214D02*
X141653290Y-116213357D01*
X141653290Y-116213357D02*
X140939004Y-116213357D01*
X140939004Y-116213357D02*
X140653290Y-116356214D01*
X140653290Y-116356214D02*
X140510432Y-116499071D01*
X140510432Y-116499071D02*
X140367575Y-116784785D01*
X140367575Y-116784785D02*
X140367575Y-117070500D01*
X140367575Y-117070500D02*
X140510432Y-117499071D01*
X140510432Y-117499071D02*
X142224718Y-119213357D01*
X142224718Y-119213357D02*
X140367575Y-119213357D01*
X137510432Y-119213357D02*
X139224718Y-119213357D01*
X138367575Y-119213357D02*
X138367575Y-116213357D01*
X138367575Y-116213357D02*
X138653289Y-116641928D01*
X138653289Y-116641928D02*
X138939004Y-116927642D01*
X138939004Y-116927642D02*
X139224718Y-117070500D01*
X136224718Y-118070500D02*
X133939004Y-118070500D01*
X131939003Y-116213357D02*
X131653289Y-116213357D01*
X131653289Y-116213357D02*
X131367575Y-116356214D01*
X131367575Y-116356214D02*
X131224718Y-116499071D01*
X131224718Y-116499071D02*
X131081860Y-116784785D01*
X131081860Y-116784785D02*
X130939003Y-117356214D01*
X130939003Y-117356214D02*
X130939003Y-118070500D01*
X130939003Y-118070500D02*
X131081860Y-118641928D01*
X131081860Y-118641928D02*
X131224718Y-118927642D01*
X131224718Y-118927642D02*
X131367575Y-119070500D01*
X131367575Y-119070500D02*
X131653289Y-119213357D01*
X131653289Y-119213357D02*
X131939003Y-119213357D01*
X131939003Y-119213357D02*
X132224718Y-119070500D01*
X132224718Y-119070500D02*
X132367575Y-118927642D01*
X132367575Y-118927642D02*
X132510432Y-118641928D01*
X132510432Y-118641928D02*
X132653289Y-118070500D01*
X132653289Y-118070500D02*
X132653289Y-117356214D01*
X132653289Y-117356214D02*
X132510432Y-116784785D01*
X132510432Y-116784785D02*
X132367575Y-116499071D01*
X132367575Y-116499071D02*
X132224718Y-116356214D01*
X132224718Y-116356214D02*
X131939003Y-116213357D01*
X128367575Y-116213357D02*
X128939003Y-116213357D01*
X128939003Y-116213357D02*
X129224717Y-116356214D01*
X129224717Y-116356214D02*
X129367575Y-116499071D01*
X129367575Y-116499071D02*
X129653289Y-116927642D01*
X129653289Y-116927642D02*
X129796146Y-117499071D01*
X129796146Y-117499071D02*
X129796146Y-118641928D01*
X129796146Y-118641928D02*
X129653289Y-118927642D01*
X129653289Y-118927642D02*
X129510432Y-119070500D01*
X129510432Y-119070500D02*
X129224717Y-119213357D01*
X129224717Y-119213357D02*
X128653289Y-119213357D01*
X128653289Y-119213357D02*
X128367575Y-119070500D01*
X128367575Y-119070500D02*
X128224717Y-118927642D01*
X128224717Y-118927642D02*
X128081860Y-118641928D01*
X128081860Y-118641928D02*
X128081860Y-117927642D01*
X128081860Y-117927642D02*
X128224717Y-117641928D01*
X128224717Y-117641928D02*
X128367575Y-117499071D01*
X128367575Y-117499071D02*
X128653289Y-117356214D01*
X128653289Y-117356214D02*
X129224717Y-117356214D01*
X129224717Y-117356214D02*
X129510432Y-117499071D01*
X129510432Y-117499071D02*
X129653289Y-117641928D01*
X129653289Y-117641928D02*
X129796146Y-117927642D01*
X126796146Y-118070500D02*
X124510432Y-118070500D01*
X123224717Y-116499071D02*
X123081860Y-116356214D01*
X123081860Y-116356214D02*
X122796146Y-116213357D01*
X122796146Y-116213357D02*
X122081860Y-116213357D01*
X122081860Y-116213357D02*
X121796146Y-116356214D01*
X121796146Y-116356214D02*
X121653288Y-116499071D01*
X121653288Y-116499071D02*
X121510431Y-116784785D01*
X121510431Y-116784785D02*
X121510431Y-117070500D01*
X121510431Y-117070500D02*
X121653288Y-117499071D01*
X121653288Y-117499071D02*
X123367574Y-119213357D01*
X123367574Y-119213357D02*
X121510431Y-119213357D01*
X119653288Y-116213357D02*
X119367574Y-116213357D01*
X119367574Y-116213357D02*
X119081860Y-116356214D01*
X119081860Y-116356214D02*
X118939003Y-116499071D01*
X118939003Y-116499071D02*
X118796145Y-116784785D01*
X118796145Y-116784785D02*
X118653288Y-117356214D01*
X118653288Y-117356214D02*
X118653288Y-118070500D01*
X118653288Y-118070500D02*
X118796145Y-118641928D01*
X118796145Y-118641928D02*
X118939003Y-118927642D01*
X118939003Y-118927642D02*
X119081860Y-119070500D01*
X119081860Y-119070500D02*
X119367574Y-119213357D01*
X119367574Y-119213357D02*
X119653288Y-119213357D01*
X119653288Y-119213357D02*
X119939003Y-119070500D01*
X119939003Y-119070500D02*
X120081860Y-118927642D01*
X120081860Y-118927642D02*
X120224717Y-118641928D01*
X120224717Y-118641928D02*
X120367574Y-118070500D01*
X120367574Y-118070500D02*
X120367574Y-117356214D01*
X120367574Y-117356214D02*
X120224717Y-116784785D01*
X120224717Y-116784785D02*
X120081860Y-116499071D01*
X120081860Y-116499071D02*
X119939003Y-116356214D01*
X119939003Y-116356214D02*
X119653288Y-116213357D01*
X117510431Y-116499071D02*
X117367574Y-116356214D01*
X117367574Y-116356214D02*
X117081860Y-116213357D01*
X117081860Y-116213357D02*
X116367574Y-116213357D01*
X116367574Y-116213357D02*
X116081860Y-116356214D01*
X116081860Y-116356214D02*
X115939002Y-116499071D01*
X115939002Y-116499071D02*
X115796145Y-116784785D01*
X115796145Y-116784785D02*
X115796145Y-117070500D01*
X115796145Y-117070500D02*
X115939002Y-117499071D01*
X115939002Y-117499071D02*
X117653288Y-119213357D01*
X117653288Y-119213357D02*
X115796145Y-119213357D01*
X113224717Y-116213357D02*
X113796145Y-116213357D01*
X113796145Y-116213357D02*
X114081859Y-116356214D01*
X114081859Y-116356214D02*
X114224717Y-116499071D01*
X114224717Y-116499071D02*
X114510431Y-116927642D01*
X114510431Y-116927642D02*
X114653288Y-117499071D01*
X114653288Y-117499071D02*
X114653288Y-118641928D01*
X114653288Y-118641928D02*
X114510431Y-118927642D01*
X114510431Y-118927642D02*
X114367574Y-119070500D01*
X114367574Y-119070500D02*
X114081859Y-119213357D01*
X114081859Y-119213357D02*
X113510431Y-119213357D01*
X113510431Y-119213357D02*
X113224717Y-119070500D01*
X113224717Y-119070500D02*
X113081859Y-118927642D01*
X113081859Y-118927642D02*
X112939002Y-118641928D01*
X112939002Y-118641928D02*
X112939002Y-117927642D01*
X112939002Y-117927642D02*
X113081859Y-117641928D01*
X113081859Y-117641928D02*
X113224717Y-117499071D01*
X113224717Y-117499071D02*
X113510431Y-117356214D01*
X113510431Y-117356214D02*
X114081859Y-117356214D01*
X114081859Y-117356214D02*
X114367574Y-117499071D01*
X114367574Y-117499071D02*
X114510431Y-117641928D01*
X114510431Y-117641928D02*
X114653288Y-117927642D01*
D11*
G36*
X171060921Y-97345603D02*
G01*
X167328890Y-97345603D01*
X167328890Y-98851971D01*
X167399720Y-98851971D01*
X167406742Y-98778393D01*
X167456202Y-98599790D01*
X167554815Y-98344251D01*
X167716625Y-98067341D01*
X167829088Y-97920114D01*
X167952625Y-97790430D01*
X168095611Y-97677237D01*
X168283574Y-97569696D01*
X168490737Y-97487659D01*
X168716189Y-97436584D01*
X168716189Y-102250000D01*
X169712700Y-102250000D01*
X169712700Y-97436584D01*
X170011212Y-97520609D01*
X170272322Y-97657318D01*
X170495737Y-97835019D01*
X170650898Y-98018187D01*
X170772592Y-98216001D01*
X170866442Y-98403480D01*
X170937347Y-98586645D01*
X170970551Y-98718859D01*
X170998333Y-98851971D01*
X171060921Y-98851971D01*
X171060921Y-97345603D01*
G37*
G36*
X165139253Y-98720690D02*
G01*
X164836092Y-98767082D01*
X164573779Y-98864192D01*
X164344853Y-99011034D01*
X164150812Y-99202398D01*
X164000944Y-99427883D01*
X163893309Y-99692777D01*
X164810441Y-99692777D01*
X164831202Y-99593553D01*
X164894399Y-99374040D01*
X164999424Y-99094077D01*
X165066339Y-98976955D01*
X165156960Y-98871205D01*
X165264281Y-98795283D01*
X165370368Y-98771981D01*
X165496288Y-98800646D01*
X165633619Y-98897263D01*
X165790465Y-99091024D01*
X165905511Y-99312055D01*
X165975866Y-99558978D01*
X166000209Y-99837796D01*
X166000209Y-102250000D01*
X167016259Y-102250000D01*
X167016259Y-98791521D01*
X166000209Y-98791521D01*
X166000209Y-99036069D01*
X165760960Y-98860544D01*
X165495615Y-98756316D01*
X165195429Y-98720690D01*
X165139253Y-98720690D01*
G37*
G36*
X162621720Y-98752442D02*
G01*
X162593632Y-102250000D01*
X163601744Y-102250000D01*
X163601744Y-98752442D01*
X162621720Y-98752442D01*
G37*
G36*
X162725828Y-97537028D02*
G01*
X162637456Y-97708485D01*
X162624467Y-97901256D01*
X162683076Y-98085031D01*
X162810092Y-98230373D01*
X162981511Y-98318832D01*
X163174014Y-98332039D01*
X163357558Y-98273279D01*
X163502826Y-98146414D01*
X163591293Y-97974738D01*
X163604492Y-97782187D01*
X163545686Y-97598179D01*
X163418867Y-97453070D01*
X163247448Y-97364611D01*
X163054945Y-97351404D01*
X162871170Y-97410012D01*
X162725828Y-97537028D01*
G37*
G36*
X162033705Y-103676378D02*
G01*
X161017655Y-103676378D01*
X161017655Y-102230460D01*
X160436662Y-102230460D01*
X160083283Y-102197129D01*
X159763455Y-102099673D01*
X159469956Y-101937935D01*
X159197740Y-101706559D01*
X158973647Y-101428595D01*
X158819777Y-101130197D01*
X158731050Y-100806040D01*
X158707728Y-100448709D01*
X158710096Y-100427643D01*
X159728053Y-100427643D01*
X159754640Y-100871626D01*
X159827300Y-101225574D01*
X159937804Y-101505777D01*
X160081594Y-101725793D01*
X160273273Y-101913525D01*
X160489415Y-102045459D01*
X160734997Y-102125900D01*
X161017655Y-102153829D01*
X161017655Y-99163381D01*
X160893895Y-99018544D01*
X160750495Y-98917708D01*
X160583681Y-98856311D01*
X160386898Y-98834874D01*
X160237279Y-98871868D01*
X160087190Y-98994679D01*
X159929248Y-99241844D01*
X159826031Y-99521734D01*
X159754993Y-99907443D01*
X159728053Y-100427643D01*
X158710096Y-100427643D01*
X158741547Y-100147811D01*
X158823057Y-99866264D01*
X158952887Y-99599965D01*
X159123927Y-99357737D01*
X159322769Y-99156325D01*
X159551282Y-98992105D01*
X159803676Y-98869229D01*
X160064794Y-98796404D01*
X160338660Y-98771981D01*
X160626259Y-98803780D01*
X160847356Y-98891366D01*
X161017655Y-99030573D01*
X161017655Y-98771981D01*
X162033705Y-98771981D01*
X162033705Y-103676378D01*
G37*
G36*
X157275854Y-102250000D02*
G01*
X158291905Y-102250000D01*
X158291905Y-97345603D01*
X157275854Y-97345603D01*
X157275854Y-102250000D01*
G37*
G36*
X155497028Y-98824002D02*
G01*
X155816840Y-98918413D01*
X156106572Y-99073925D01*
X156371545Y-99294661D01*
X156590838Y-99561406D01*
X156745022Y-99850954D01*
X156838380Y-100168371D01*
X156870411Y-100520760D01*
X156838384Y-100873146D01*
X156745032Y-101190619D01*
X156590847Y-101480271D01*
X156371545Y-101747165D01*
X156106591Y-101967754D01*
X155816864Y-102123175D01*
X155497045Y-102217535D01*
X155139645Y-102250000D01*
X153451011Y-102250000D01*
X153451011Y-101187848D01*
X153520621Y-101187848D01*
X153527643Y-101244024D01*
X153576491Y-101387212D01*
X153663808Y-101579553D01*
X153725891Y-101681925D01*
X153817070Y-101792655D01*
X154047269Y-101988354D01*
X154187680Y-102064428D01*
X154374860Y-102128183D01*
X154578459Y-102166969D01*
X154803811Y-102180390D01*
X155016303Y-102145586D01*
X155197653Y-102047583D01*
X155344199Y-101914776D01*
X155458993Y-101764567D01*
X155539288Y-101621379D01*
X155584778Y-101502616D01*
X155752084Y-100922540D01*
X154518047Y-100922540D01*
X154237894Y-100887316D01*
X153989680Y-100783823D01*
X153764863Y-100608077D01*
X153589486Y-100382726D01*
X153486175Y-100133994D01*
X153454951Y-99884813D01*
X154388904Y-99884813D01*
X154388904Y-99898857D01*
X154415920Y-100154673D01*
X154494018Y-100377377D01*
X154623072Y-100574188D01*
X154793426Y-100734404D01*
X154967215Y-100823554D01*
X155150636Y-100852625D01*
X155772845Y-100852625D01*
X156122723Y-99741625D01*
X156156206Y-99578321D01*
X156139234Y-99427303D01*
X156071777Y-99280987D01*
X155944426Y-99133766D01*
X155731440Y-98986026D01*
X155471163Y-98893953D01*
X155150636Y-98861130D01*
X154952726Y-98889673D01*
X154775627Y-98974665D01*
X154612691Y-99122470D01*
X154494542Y-99309379D01*
X154417425Y-99557503D01*
X154388904Y-99884813D01*
X153454951Y-99884813D01*
X153451011Y-99853367D01*
X153485816Y-99574014D01*
X153590535Y-99319085D01*
X153670265Y-99204174D01*
X153771885Y-99102320D01*
X153891550Y-99014852D01*
X154037194Y-98934708D01*
X154199164Y-98872257D01*
X154396842Y-98826325D01*
X154607592Y-98800579D01*
X154846554Y-98791521D01*
X155139645Y-98791521D01*
X155497028Y-98824002D01*
G37*
G36*
X153021144Y-99299546D02*
G01*
X150676413Y-99299546D01*
X150676413Y-100279876D01*
X153021144Y-100307964D01*
X153021144Y-99299546D01*
G37*
G36*
X146765169Y-100710964D02*
G01*
X146679963Y-100920812D01*
X146638490Y-101114527D01*
X146635720Y-101296231D01*
X146690574Y-101559973D01*
X146803637Y-101790212D01*
X146913169Y-101919007D01*
X147066217Y-102033665D01*
X147272278Y-102133679D01*
X147616487Y-102226053D01*
X148052023Y-102259769D01*
X150212351Y-102259769D01*
X150212351Y-100752791D01*
X150149459Y-100752791D01*
X149626378Y-101248535D01*
X149220424Y-101582158D01*
X148909926Y-101790212D01*
X148720943Y-101909281D01*
X148549363Y-102010947D01*
X148402206Y-102084830D01*
X148234289Y-102147723D01*
X148062709Y-102179474D01*
X147838616Y-102196877D01*
X147690506Y-102174385D01*
X147551325Y-102105896D01*
X147479294Y-102035369D01*
X147434533Y-101940062D01*
X147418213Y-101811584D01*
X147443267Y-101609109D01*
X147523237Y-101388128D01*
X147636674Y-101175676D01*
X147761374Y-100989096D01*
X147913341Y-100805747D01*
X148149720Y-100561976D01*
X148583862Y-100159281D01*
X149087918Y-99732161D01*
X149560223Y-99332824D01*
X149878588Y-99030369D01*
X150083095Y-98779209D01*
X150200750Y-98569870D01*
X150274352Y-98342629D01*
X150300388Y-98122323D01*
X150281350Y-97904614D01*
X150226193Y-97759042D01*
X150127477Y-97624345D01*
X149999146Y-97512743D01*
X149854535Y-97431699D01*
X149697818Y-97381617D01*
X149539157Y-97365143D01*
X147164200Y-97365143D01*
X147164200Y-98860519D01*
X147300652Y-98829209D01*
X147503393Y-98710005D01*
X147708099Y-98548569D01*
X147929902Y-98349136D01*
X148384193Y-97928428D01*
X148625599Y-97732434D01*
X148873595Y-97570917D01*
X149127706Y-97457371D01*
X149338572Y-97423761D01*
X149387421Y-97423761D01*
X149532298Y-97443031D01*
X149629087Y-97494007D01*
X149691503Y-97574581D01*
X149720378Y-97675723D01*
X149713438Y-97793328D01*
X149663415Y-97935450D01*
X149534288Y-98131516D01*
X149331550Y-98320743D01*
X148817725Y-98706341D01*
X148079806Y-99253140D01*
X147641148Y-99619076D01*
X147265561Y-99999607D01*
X146950019Y-100395257D01*
X146765169Y-100710964D01*
G37*
G36*
X142918929Y-98804314D02*
G01*
X143235723Y-98898770D01*
X143526151Y-99055236D01*
X143795176Y-99278480D01*
X144018605Y-99547545D01*
X144175052Y-99837421D01*
X144269404Y-100153006D01*
X144301674Y-100501221D01*
X144269388Y-100849419D01*
X144174986Y-101164997D01*
X144018447Y-101454878D01*
X143794870Y-101723961D01*
X143525556Y-101947193D01*
X143234827Y-102103663D01*
X142917721Y-102198125D01*
X142567245Y-102230460D01*
X141790858Y-102230460D01*
X141790858Y-102590413D01*
X141818946Y-102910982D01*
X141906263Y-103225139D01*
X141981236Y-103367227D01*
X142084560Y-103478846D01*
X142213358Y-103552804D01*
X142364218Y-103577765D01*
X142596809Y-103557179D01*
X142812098Y-103496554D01*
X143009685Y-103404324D01*
X143165334Y-103299328D01*
X143302399Y-103172735D01*
X143434612Y-103017227D01*
X143630312Y-102717725D01*
X143759760Y-102438982D01*
X143833033Y-102241756D01*
X143854099Y-102160851D01*
X143924014Y-102160851D01*
X143924014Y-103676378D01*
X142331245Y-103676378D01*
X142079510Y-103657220D01*
X141853928Y-103601786D01*
X141650113Y-103511514D01*
X141464565Y-103387798D01*
X141304531Y-103236709D01*
X141168039Y-103056001D01*
X141007832Y-102748550D01*
X140888686Y-102387081D01*
X140848115Y-102160851D01*
X141790858Y-102160851D01*
X141972819Y-102160851D01*
X142255601Y-102134427D01*
X142504250Y-102058108D01*
X142725542Y-101932990D01*
X142924145Y-101755713D01*
X143078314Y-101544333D01*
X143193750Y-101285217D01*
X143268021Y-100968426D01*
X143294783Y-100581516D01*
X143265875Y-100144270D01*
X143186400Y-99792306D01*
X143051065Y-99482675D01*
X142878654Y-99254056D01*
X142662247Y-99075891D01*
X142410013Y-98946310D01*
X142128050Y-98869050D01*
X141790858Y-98841591D01*
X141790858Y-102160851D01*
X140848115Y-102160851D01*
X140818868Y-101997761D01*
X140794347Y-101553602D01*
X140794347Y-98771981D01*
X142568771Y-98771981D01*
X142918929Y-98804314D01*
G37*
G36*
X138986212Y-98824002D02*
G01*
X139306024Y-98918413D01*
X139595756Y-99073925D01*
X139860729Y-99294661D01*
X140080021Y-99561406D01*
X140234206Y-99850954D01*
X140327563Y-100168371D01*
X140359595Y-100520760D01*
X140327567Y-100873146D01*
X140234216Y-101190619D01*
X140080031Y-101480271D01*
X139860729Y-101747165D01*
X139595774Y-101967754D01*
X139306048Y-102123175D01*
X138986229Y-102217535D01*
X138628829Y-102250000D01*
X136940195Y-102250000D01*
X136940195Y-101187848D01*
X137009804Y-101187848D01*
X137016826Y-101244024D01*
X137065675Y-101387212D01*
X137152991Y-101579553D01*
X137215075Y-101681925D01*
X137306254Y-101792655D01*
X137536453Y-101988354D01*
X137676863Y-102064428D01*
X137864043Y-102128183D01*
X138067642Y-102166969D01*
X138292995Y-102180390D01*
X138505486Y-102145586D01*
X138686837Y-102047583D01*
X138833382Y-101914776D01*
X138948176Y-101764567D01*
X139028471Y-101621379D01*
X139073961Y-101502616D01*
X139241268Y-100922540D01*
X138007231Y-100922540D01*
X137727078Y-100887316D01*
X137478863Y-100783823D01*
X137254047Y-100608077D01*
X137078669Y-100382726D01*
X136975358Y-100133994D01*
X136944135Y-99884813D01*
X137878087Y-99884813D01*
X137878087Y-99898857D01*
X137905103Y-100154673D01*
X137983201Y-100377377D01*
X138112255Y-100574188D01*
X138282610Y-100734404D01*
X138456399Y-100823554D01*
X138639820Y-100852625D01*
X139262028Y-100852625D01*
X139611906Y-99741625D01*
X139645389Y-99578321D01*
X139628418Y-99427303D01*
X139560961Y-99280987D01*
X139433609Y-99133766D01*
X139220624Y-98986026D01*
X138960346Y-98893953D01*
X138639820Y-98861130D01*
X138441910Y-98889673D01*
X138264810Y-98974665D01*
X138101875Y-99122470D01*
X137983725Y-99309379D01*
X137906609Y-99557503D01*
X137878087Y-99884813D01*
X136944135Y-99884813D01*
X136940195Y-99853367D01*
X136975000Y-99574014D01*
X137079719Y-99319085D01*
X137159448Y-99204174D01*
X137261069Y-99102320D01*
X137380733Y-99014852D01*
X137526378Y-98934708D01*
X137688348Y-98872257D01*
X137886025Y-98826325D01*
X138096775Y-98800579D01*
X138335737Y-98791521D01*
X138628829Y-98791521D01*
X138986212Y-98824002D01*
G37*
G36*
X134367402Y-98720690D02*
G01*
X134070334Y-98764157D01*
X133815594Y-98854326D01*
X133595667Y-98989461D01*
X133405390Y-99171929D01*
X133252976Y-99388883D01*
X133143194Y-99630895D01*
X133075407Y-99902600D01*
X133051849Y-100209961D01*
X133051849Y-102250000D01*
X134087744Y-102250000D01*
X134087744Y-101092899D01*
X134079304Y-100834839D01*
X134056297Y-100626700D01*
X134015261Y-100432569D01*
X133958295Y-100262168D01*
X133811444Y-99974572D01*
X133597732Y-99683618D01*
X133498139Y-99504235D01*
X133477233Y-99348245D01*
X133523094Y-99201495D01*
X133646885Y-99052250D01*
X133869576Y-98895514D01*
X134109893Y-98803215D01*
X134374729Y-98771981D01*
X134601405Y-98804456D01*
X134833499Y-98906295D01*
X135078148Y-99091024D01*
X135233419Y-99262438D01*
X135339962Y-99441914D01*
X135403061Y-99632291D01*
X135424363Y-99837796D01*
X135424363Y-102250000D01*
X136432170Y-102250000D01*
X136432170Y-98791521D01*
X135424363Y-98791521D01*
X135424363Y-99120027D01*
X135205365Y-98952739D01*
X134948394Y-98825715D01*
X134675844Y-98745980D01*
X134423578Y-98720690D01*
X134367402Y-98720690D01*
G37*
G36*
X131302332Y-98824002D02*
G01*
X131622144Y-98918413D01*
X131911876Y-99073925D01*
X132176849Y-99294661D01*
X132396141Y-99561406D01*
X132550326Y-99850954D01*
X132643683Y-100168371D01*
X132675715Y-100520760D01*
X132643687Y-100873146D01*
X132550336Y-101190619D01*
X132396151Y-101480271D01*
X132176849Y-101747165D01*
X131911894Y-101967754D01*
X131622168Y-102123175D01*
X131302349Y-102217535D01*
X130944949Y-102250000D01*
X129256315Y-102250000D01*
X129256315Y-101187848D01*
X129325924Y-101187848D01*
X129332946Y-101244024D01*
X129381795Y-101387212D01*
X129469112Y-101579553D01*
X129531195Y-101681925D01*
X129622374Y-101792655D01*
X129852573Y-101988354D01*
X129992983Y-102064428D01*
X130180163Y-102128183D01*
X130383762Y-102166969D01*
X130609115Y-102180390D01*
X130821606Y-102145586D01*
X131002957Y-102047583D01*
X131149502Y-101914776D01*
X131264296Y-101764567D01*
X131344591Y-101621379D01*
X131390081Y-101502616D01*
X131557388Y-100922540D01*
X130323351Y-100922540D01*
X130043198Y-100887316D01*
X129794983Y-100783823D01*
X129570167Y-100608077D01*
X129394789Y-100382726D01*
X129291478Y-100133994D01*
X129260255Y-99884813D01*
X130194207Y-99884813D01*
X130194207Y-99898857D01*
X130221223Y-100154673D01*
X130299321Y-100377377D01*
X130428375Y-100574188D01*
X130598730Y-100734404D01*
X130772519Y-100823554D01*
X130955940Y-100852625D01*
X131578148Y-100852625D01*
X131928026Y-99741625D01*
X131961509Y-99578321D01*
X131944538Y-99427303D01*
X131877081Y-99280987D01*
X131749729Y-99133766D01*
X131536744Y-98986026D01*
X131276466Y-98893953D01*
X130955940Y-98861130D01*
X130758030Y-98889673D01*
X130580930Y-98974665D01*
X130417995Y-99122470D01*
X130299846Y-99309379D01*
X130222729Y-99557503D01*
X130194207Y-99884813D01*
X129260255Y-99884813D01*
X129256315Y-99853367D01*
X129291120Y-99574014D01*
X129395839Y-99319085D01*
X129475568Y-99204174D01*
X129577189Y-99102320D01*
X129696853Y-99014852D01*
X129842498Y-98934708D01*
X130004468Y-98872257D01*
X130202145Y-98826325D01*
X130412895Y-98800579D01*
X130651857Y-98791521D01*
X130944949Y-98791521D01*
X131302332Y-98824002D01*
G37*
G36*
X126871284Y-98720690D02*
G01*
X126568123Y-98767082D01*
X126305809Y-98864192D01*
X126076884Y-99011034D01*
X125882843Y-99202398D01*
X125732974Y-99427883D01*
X125625340Y-99692777D01*
X126542472Y-99692777D01*
X126563232Y-99593553D01*
X126626430Y-99374040D01*
X126731454Y-99094077D01*
X126798370Y-98976955D01*
X126888991Y-98871205D01*
X126996311Y-98795283D01*
X127102398Y-98771981D01*
X127228319Y-98800646D01*
X127365649Y-98897263D01*
X127522496Y-99091024D01*
X127637541Y-99312055D01*
X127707897Y-99558978D01*
X127732240Y-99837796D01*
X127732240Y-102250000D01*
X128748290Y-102250000D01*
X128748290Y-98791521D01*
X127732240Y-98791521D01*
X127732240Y-99036069D01*
X127492990Y-98860544D01*
X127227645Y-98756316D01*
X126927459Y-98720690D01*
X126871284Y-98720690D01*
G37*
G36*
X125289200Y-100286592D02*
G01*
X125219286Y-100286592D01*
X125219286Y-100209656D01*
X125188145Y-100003881D01*
X125114872Y-99724223D01*
X125053692Y-99576276D01*
X124961610Y-99420446D01*
X124847704Y-99274223D01*
X124714009Y-99141093D01*
X124554980Y-99029927D01*
X124340928Y-98935013D01*
X124101103Y-98875503D01*
X123817943Y-98854413D01*
X123611745Y-98871496D01*
X123469979Y-98915680D01*
X123375252Y-98980198D01*
X123307144Y-99072480D01*
X123262687Y-99199215D01*
X123246109Y-99371598D01*
X123262938Y-99505818D01*
X123312665Y-99626526D01*
X123385684Y-99733668D01*
X123466538Y-99818562D01*
X123567096Y-99891845D01*
X123729099Y-99979457D01*
X124015779Y-100105242D01*
X124344591Y-100216983D01*
X124820254Y-100391617D01*
X125083386Y-100518833D01*
X125273242Y-100647189D01*
X125404605Y-100775994D01*
X125502181Y-100928828D01*
X125561991Y-101105928D01*
X125582903Y-101313633D01*
X125548734Y-101556162D01*
X125447088Y-101773645D01*
X125270882Y-101974005D01*
X125109390Y-102086355D01*
X124902328Y-102172533D01*
X124639157Y-102229221D01*
X124307039Y-102250000D01*
X122378436Y-102250000D01*
X122378436Y-100642882D01*
X122408413Y-100136608D01*
X122488577Y-99748647D01*
X123309612Y-99748647D01*
X123372186Y-100209457D01*
X123394487Y-100747601D01*
X123394487Y-102187107D01*
X123911976Y-102187107D01*
X124064463Y-102161877D01*
X124214072Y-102083172D01*
X124366268Y-101939200D01*
X124480841Y-101763414D01*
X124551287Y-101557530D01*
X124576011Y-101313633D01*
X124550210Y-101069212D01*
X124471515Y-100826264D01*
X124334822Y-100580294D01*
X124157459Y-100360732D01*
X123956418Y-100187541D01*
X123729405Y-100056393D01*
X123470026Y-99901426D01*
X123309612Y-99748647D01*
X122488577Y-99748647D01*
X122489120Y-99746019D01*
X122609779Y-99448343D01*
X122764340Y-99224747D01*
X122970502Y-99042559D01*
X123224669Y-98908203D01*
X123537134Y-98822405D01*
X123921746Y-98791521D01*
X125289200Y-98791521D01*
X125289200Y-100286592D01*
G37*
G36*
X120056297Y-101185406D02*
G01*
X119994626Y-101185406D01*
X119994626Y-102250000D01*
X120633627Y-102250000D01*
X120871683Y-102234360D01*
X121072348Y-102190465D01*
X121252286Y-102114543D01*
X121395359Y-102011863D01*
X121515747Y-101884905D01*
X121616704Y-101742280D01*
X121695936Y-101582448D01*
X121757144Y-101388738D01*
X121823700Y-100979021D01*
X121841102Y-100512822D01*
X121841102Y-98811060D01*
X122349127Y-98811060D01*
X122349127Y-98752442D01*
X121841102Y-98752442D01*
X121841102Y-97413991D01*
X120825052Y-97413991D01*
X120825052Y-98752442D01*
X120336566Y-98752442D01*
X120336566Y-98811060D01*
X120825052Y-98811060D01*
X120825052Y-99917786D01*
X120832074Y-100299415D01*
X120832074Y-100866974D01*
X120803681Y-101395760D01*
X120768457Y-101695683D01*
X120715143Y-101910502D01*
X120632361Y-102086453D01*
X120541730Y-102180085D01*
X120438727Y-102115034D01*
X120340535Y-102008504D01*
X120260435Y-101881560D01*
X120201927Y-101749302D01*
X120118579Y-101483382D01*
X120070341Y-101269670D01*
X120056297Y-101185406D01*
G37*
G36*
X118363554Y-98742657D02*
G01*
X118687453Y-98840926D01*
X118985636Y-99004180D01*
X119263119Y-99237875D01*
X119492948Y-99518360D01*
X119654068Y-99820575D01*
X119751310Y-100149591D01*
X119784577Y-100512517D01*
X119751260Y-100875473D01*
X119653950Y-101203830D01*
X119492834Y-101504794D01*
X119263119Y-101783496D01*
X118985857Y-102015420D01*
X118687739Y-102177575D01*
X118363754Y-102275243D01*
X118006795Y-102308618D01*
X117649647Y-102275188D01*
X117326221Y-102177443D01*
X117029304Y-102015291D01*
X116753829Y-101783496D01*
X116525728Y-101504996D01*
X116365622Y-101204091D01*
X116355618Y-101170133D01*
X117152056Y-101170133D01*
X117191329Y-101546275D01*
X117267859Y-101829110D01*
X117365072Y-102018273D01*
X117478071Y-102138036D01*
X117608068Y-102204509D01*
X117751789Y-102220524D01*
X117902125Y-102180449D01*
X118068624Y-102072371D01*
X118258975Y-101872034D01*
X118457628Y-101572471D01*
X118627932Y-101200919D01*
X118766390Y-100744548D01*
X118850530Y-100275111D01*
X118870261Y-99857560D01*
X118832946Y-99483949D01*
X118758134Y-99203193D01*
X118661539Y-99014209D01*
X118548074Y-98893461D01*
X118416512Y-98825409D01*
X118270827Y-98808085D01*
X118119257Y-98847411D01*
X117952191Y-98954949D01*
X117761941Y-99154832D01*
X117563317Y-99454211D01*
X117393008Y-99825744D01*
X117254527Y-100282318D01*
X117170721Y-100751420D01*
X117152056Y-101170133D01*
X116355618Y-101170133D01*
X116268866Y-100875656D01*
X116235729Y-100512517D01*
X116268816Y-100149409D01*
X116365503Y-99820315D01*
X116525614Y-99518159D01*
X116753829Y-99237875D01*
X117029525Y-99004309D01*
X117326507Y-98841058D01*
X117649848Y-98742713D01*
X118006795Y-98709089D01*
X118363554Y-98742657D01*
G37*
G36*
X113931297Y-98720690D02*
G01*
X113628137Y-98767082D01*
X113365823Y-98864192D01*
X113136898Y-99011034D01*
X112942857Y-99202398D01*
X112792988Y-99427883D01*
X112685354Y-99692777D01*
X113602486Y-99692777D01*
X113623246Y-99593553D01*
X113686444Y-99374040D01*
X113791468Y-99094077D01*
X113858384Y-98976955D01*
X113949005Y-98871205D01*
X114056325Y-98795283D01*
X114162412Y-98771981D01*
X114288333Y-98800646D01*
X114425663Y-98897263D01*
X114582510Y-99091024D01*
X114697555Y-99312055D01*
X114767911Y-99558978D01*
X114792254Y-99837796D01*
X114792254Y-102250000D01*
X115808304Y-102250000D01*
X115808304Y-98791521D01*
X114792254Y-98791521D01*
X114792254Y-99036069D01*
X114553004Y-98860544D01*
X114287659Y-98756316D01*
X113987473Y-98720690D01*
X113931297Y-98720690D01*
G37*
M02*
