%TF.GenerationSoftware,KiCad,Pcbnew,10.0.0*%
%TF.CreationDate,2026-06-30T21:05:47+02:00*%
%TF.ProjectId,Triple-S Generator,54726970-6c65-42d5-9320-47656e657261,rev?*%
%TF.SameCoordinates,Original*%
%TF.FileFunction,Copper,L2,Bot*%
%TF.FilePolarity,Positive*%
%FSLAX46Y46*%
G04 Gerber Fmt 4.6, Leading zero omitted, Abs format (unit mm)*
G04 Created by KiCad (PCBNEW 10.0.0) date 2026-06-30 21:05:47*
%MOMM*%
%LPD*%
G01*
G04 APERTURE LIST*
G04 Aperture macros list*
%AMRoundRect*
0 Rectangle with rounded corners*
0 $1 Rounding radius*
0 $2 $3 $4 $5 $6 $7 $8 $9 X,Y pos of 4 corners*
0 Add a 4 corners polygon primitive as box body*
4,1,4,$2,$3,$4,$5,$6,$7,$8,$9,$2,$3,0*
0 Add four circle primitives for the rounded corners*
1,1,$1+$1,$2,$3*
1,1,$1+$1,$4,$5*
1,1,$1+$1,$6,$7*
1,1,$1+$1,$8,$9*
0 Add four rect primitives between the rounded corners*
20,1,$1+$1,$2,$3,$4,$5,0*
20,1,$1+$1,$4,$5,$6,$7,0*
20,1,$1+$1,$6,$7,$8,$9,0*
20,1,$1+$1,$8,$9,$2,$3,0*%
G04 Aperture macros list end*
%TA.AperFunction,ComponentPad*%
%ADD10O,1.500000X2.300000*%
%TD*%
%TA.AperFunction,ComponentPad*%
%ADD11C,1.600000*%
%TD*%
%TA.AperFunction,ComponentPad*%
%ADD12RoundRect,0.250000X0.550000X0.550000X-0.550000X0.550000X-0.550000X-0.550000X0.550000X-0.550000X0*%
%TD*%
%TA.AperFunction,ComponentPad*%
%ADD13C,2.200000*%
%TD*%
%TA.AperFunction,ComponentPad*%
%ADD14R,2.100000X2.100000*%
%TD*%
%TA.AperFunction,ComponentPad*%
%ADD15C,2.100000*%
%TD*%
%TA.AperFunction,ComponentPad*%
%ADD16RoundRect,0.250000X0.550000X-0.550000X0.550000X0.550000X-0.550000X0.550000X-0.550000X-0.550000X0*%
%TD*%
%TA.AperFunction,ComponentPad*%
%ADD17O,2.720000X3.240000*%
%TD*%
%TA.AperFunction,ComponentPad*%
%ADD18R,1.800000X1.800000*%
%TD*%
%TA.AperFunction,ComponentPad*%
%ADD19C,1.800000*%
%TD*%
%TA.AperFunction,ComponentPad*%
%ADD20RoundRect,0.250000X-0.550000X0.550000X-0.550000X-0.550000X0.550000X-0.550000X0.550000X0.550000X0*%
%TD*%
%TA.AperFunction,ComponentPad*%
%ADD21RoundRect,0.250000X-0.550000X-0.550000X0.550000X-0.550000X0.550000X0.550000X-0.550000X0.550000X0*%
%TD*%
%TA.AperFunction,Conductor*%
%ADD22C,0.250000*%
%TD*%
%TA.AperFunction,Conductor*%
%ADD23C,0.500000*%
%TD*%
G04 APERTURE END LIST*
D10*
%TO.P,SW2,*%
%TO.N,*%
X122500000Y-111500000D03*
X134500000Y-111500000D03*
D11*
%TO.P,SW2,1,1_1*%
%TO.N,SQR*%
X124500000Y-111500000D03*
%TO.P,SW2,2,2_2*%
%TO.N,SAW*%
X130500000Y-111500000D03*
%TO.P,SW2,3,3_3*%
%TO.N,Net-(R10-Pad3)*%
X128500000Y-111500000D03*
%TO.P,SW2,4,4_4*%
%TO.N,SIN*%
X132500000Y-111500000D03*
%TD*%
%TO.P,C3,1*%
%TO.N,Net-(C3-Pad1)*%
X160250000Y-82250000D03*
%TO.P,C3,2*%
%TO.N,SAW*%
X165250000Y-82250000D03*
%TD*%
D12*
%TO.P,C6,1*%
%TO.N,+9V*%
X177000000Y-75000000D03*
D11*
%TO.P,C6,2*%
%TO.N,GND*%
X174500000Y-75000000D03*
%TD*%
D13*
%TO.P,C1,1*%
%TO.N,Net-(C1-Pad1)*%
X150250000Y-75000000D03*
%TO.P,C1,2*%
%TO.N,SAW*%
X165250000Y-75000000D03*
%TD*%
D11*
%TO.P,R2,1*%
%TO.N,SAW*%
X113750000Y-96000000D03*
%TO.P,R2,2*%
%TO.N,Net-(U1B-+)*%
X106130000Y-96000000D03*
%TD*%
D14*
%TO.P,J1,1,Pin_1_1*%
%TO.N,GND*%
X110000000Y-75000000D03*
D15*
%TO.P,J1,2,Pin_2_2*%
%TO.N,-9V*%
X110000000Y-80000000D03*
%TO.P,J1,3,Pin_3_3*%
%TO.N,+9V*%
X110000000Y-85000000D03*
%TD*%
D11*
%TO.P,R1,1*%
%TO.N,SQR*%
X113750000Y-91250000D03*
%TO.P,R1,2*%
%TO.N,Net-(U1B-+)*%
X106130000Y-91250000D03*
%TD*%
%TO.P,R11,1*%
%TO.N,Net-(R10-Pad1)*%
X186190000Y-87250000D03*
%TO.P,R11,2*%
%TO.N,Net-(J2-Pin_2)*%
X193810000Y-87250000D03*
%TD*%
%TO.P,C2,1*%
%TO.N,Net-(C2-Pad1)*%
X150250000Y-82250000D03*
%TO.P,C2,2*%
%TO.N,SAW*%
X155250000Y-82250000D03*
%TD*%
D12*
%TO.P,C7,1*%
%TO.N,GND*%
X176932380Y-97000000D03*
D11*
%TO.P,C7,2*%
%TO.N,-9V*%
X174432380Y-97000000D03*
%TD*%
D16*
%TO.P,D4,1,K_1*%
%TO.N,Net-(D3-A)*%
X162750000Y-94620000D03*
D11*
%TO.P,D4,2,A_2*%
%TO.N,GND*%
X162750000Y-87000000D03*
%TD*%
D14*
%TO.P,J2,1,Pin_1_1*%
%TO.N,GND*%
X190000000Y-80000000D03*
D15*
%TO.P,J2,2,Pin_2_2*%
%TO.N,Net-(J2-Pin_2)*%
X190000000Y-75000000D03*
%TD*%
D12*
%TO.P,C4,1*%
%TO.N,+9V*%
X126000000Y-75000000D03*
D11*
%TO.P,C4,2*%
%TO.N,GND*%
X123500000Y-75000000D03*
%TD*%
%TO.P,R3,1*%
%TO.N,Net-(C3-Pad1)*%
X143370000Y-72750000D03*
%TO.P,R3,2*%
%TO.N,Net-(R3-Pad2)*%
X135750000Y-72750000D03*
%TD*%
%TO.P,R7,1*%
%TO.N,Net-(D3-A)*%
X147500000Y-94620000D03*
%TO.P,R7,2*%
%TO.N,GND*%
X147500000Y-87000000D03*
%TD*%
D12*
%TO.P,C5,1*%
%TO.N,GND*%
X126000000Y-97000000D03*
D11*
%TO.P,C5,2*%
%TO.N,-9V*%
X123500000Y-97000000D03*
%TD*%
D17*
%TO.P,R9,*%
%TO.N,*%
X191800000Y-114000000D03*
X182200000Y-114000000D03*
D18*
%TO.P,R9,1,1_1*%
%TO.N,-9V*%
X189500000Y-106500000D03*
D19*
%TO.P,R9,2,2_2*%
%TO.N,Net-(U2C-+)*%
X187000000Y-106500000D03*
%TO.P,R9,3,3_3*%
%TO.N,+9V*%
X184500000Y-106500000D03*
%TD*%
D12*
%TO.P,D2,1,K_1*%
%TO.N,Net-(D2-K)*%
X143250000Y-82250000D03*
D11*
%TO.P,D2,2,A_2*%
%TO.N,Net-(D1-K)*%
X135630000Y-82250000D03*
%TD*%
%TO.P,U2,1*%
%TO.N,SIN*%
X171880000Y-82250000D03*
%TO.P,U2,2,-_2*%
X171880000Y-84790000D03*
%TO.P,U2,3,+_3*%
%TO.N,Net-(D3-A)*%
X171880000Y-87330000D03*
%TO.P,U2,4,Vcc-_4*%
%TO.N,-9V*%
X171880000Y-89870000D03*
%TO.P,U2,5,+_5*%
%TO.N,Net-(U2C-+)*%
X179500000Y-89870000D03*
%TO.P,U2,6,-_6*%
%TO.N,Net-(U2C--)*%
X179500000Y-87330000D03*
%TO.P,U2,7*%
%TO.N,Net-(R10-Pad1)*%
X179500000Y-84790000D03*
%TO.P,U2,8,Vcc+_8*%
%TO.N,+9V*%
X179500000Y-82250000D03*
%TD*%
D10*
%TO.P,SW1,*%
%TO.N,*%
X107000000Y-111500000D03*
X119000000Y-111500000D03*
D11*
%TO.P,SW1,1,1_1*%
%TO.N,Net-(C1-Pad1)*%
X109000000Y-111500000D03*
%TO.P,SW1,2,2_2*%
%TO.N,Net-(C2-Pad1)*%
X115000000Y-111500000D03*
%TO.P,SW1,3,3_3*%
%TO.N,Net-(D1-K)*%
X113000000Y-111500000D03*
%TO.P,SW1,4,4_4*%
%TO.N,Net-(R3-Pad2)*%
X117000000Y-111500000D03*
%TD*%
%TO.P,R4,1*%
%TO.N,SQR*%
X113750000Y-100750000D03*
%TO.P,R4,2*%
%TO.N,Net-(R4-Pad2)*%
X106130000Y-100750000D03*
%TD*%
%TO.P,U1,1*%
%TO.N,SQR*%
X121329000Y-82250000D03*
%TO.P,U1,2,-_2*%
%TO.N,GND*%
X121329000Y-84790000D03*
%TO.P,U1,3,+_3*%
%TO.N,Net-(U1B-+)*%
X121329000Y-87330000D03*
%TO.P,U1,4,Vcc-_4*%
%TO.N,-9V*%
X121329000Y-89870000D03*
%TO.P,U1,5,+_5*%
%TO.N,GND*%
X128949000Y-89870000D03*
%TO.P,U1,6,-_6*%
%TO.N,Net-(D1-K)*%
X128949000Y-87330000D03*
%TO.P,U1,7*%
%TO.N,SAW*%
X128949000Y-84790000D03*
%TO.P,U1,8,Vcc+_8*%
%TO.N,+9V*%
X128949000Y-82250000D03*
%TD*%
%TO.P,R6,1*%
%TO.N,SAW*%
X139500000Y-87000000D03*
%TO.P,R6,2*%
%TO.N,Net-(D3-A)*%
X139500000Y-94620000D03*
%TD*%
D20*
%TO.P,D3,1,K_1*%
%TO.N,GND*%
X155391667Y-87000000D03*
D11*
%TO.P,D3,2,A_2*%
%TO.N,Net-(D3-A)*%
X155250000Y-94620000D03*
%TD*%
D17*
%TO.P,R8,*%
%TO.N,*%
X163050000Y-114000000D03*
X153450000Y-114000000D03*
D18*
%TO.P,R8,1,1_1*%
%TO.N,Net-(D2-K)*%
X160750000Y-106500000D03*
D19*
%TO.P,R8,2,2_2*%
%TO.N,Net-(R4-Pad2)*%
X158250000Y-106500000D03*
%TO.P,R8,3,3_3*%
%TO.N,unconnected-(R8-Pad3)*%
X155750000Y-106500000D03*
%TD*%
D17*
%TO.P,R10,*%
%TO.N,*%
X178050000Y-114000000D03*
X168450000Y-114000000D03*
D18*
%TO.P,R10,1,1_1*%
%TO.N,Net-(R10-Pad1)*%
X175750000Y-106500000D03*
D19*
%TO.P,R10,2,2_2*%
%TO.N,Net-(U2C--)*%
X173250000Y-106500000D03*
%TO.P,R10,3,3_3*%
%TO.N,Net-(R10-Pad3)*%
X170750000Y-106500000D03*
%TD*%
D17*
%TO.P,R5,*%
%TO.N,*%
X149300000Y-114000000D03*
X139700000Y-114000000D03*
D18*
%TO.P,R5,1,1_1*%
%TO.N,Net-(D1-A)*%
X147000000Y-106500000D03*
D19*
%TO.P,R5,2,2_2*%
%TO.N,Net-(R4-Pad2)*%
X144500000Y-106500000D03*
%TO.P,R5,3,3_3*%
%TO.N,unconnected-(R5-Pad3)*%
X142000000Y-106500000D03*
%TD*%
D21*
%TO.P,D1,1,K_1*%
%TO.N,Net-(D1-K)*%
X135690000Y-77500000D03*
D11*
%TO.P,D1,2,A_2*%
%TO.N,Net-(D1-A)*%
X143310000Y-77500000D03*
%TD*%
%TO.N,SQR*%
D22*
X116545000Y-88455000D02*
X121794991Y-88455000D01*
X113750000Y-91250000D02*
X116545000Y-88455000D01*
X122454000Y-83375000D02*
X121329000Y-82250000D01*
X122454000Y-87795991D02*
X122454000Y-83375000D01*
X121794991Y-88455000D02*
X122454000Y-87795991D01*
X113750000Y-91250000D02*
X112625000Y-92375000D01*
X112625000Y-99625000D02*
X113750000Y-100750000D01*
X112625000Y-92375000D02*
X112625000Y-99625000D01*
%TO.N,SAW*%
X117739000Y-96000000D02*
X128949000Y-84790000D01*
X113750000Y-96000000D02*
X117739000Y-96000000D01*
%TO.N,Net-(R10-Pad3)*%
X129975000Y-112975000D02*
X128500000Y-111500000D01*
X170750000Y-106500000D02*
X165195000Y-112055000D01*
X135865280Y-112055000D02*
X134945280Y-112975000D01*
X165195000Y-112055000D02*
X135865280Y-112055000D01*
X134945280Y-112975000D02*
X129975000Y-112975000D01*
%TO.N,+9V*%
D23*
X126000000Y-75000000D02*
X148057968Y-75000000D01*
X149607968Y-73450000D02*
X175450000Y-73450000D01*
X178250000Y-100250000D02*
X184500000Y-106500000D01*
X116000000Y-85000000D02*
X126000000Y-75000000D01*
X175450000Y-73450000D02*
X177000000Y-75000000D01*
X148057968Y-75000000D02*
X149607968Y-73450000D01*
X110000000Y-85000000D02*
X116000000Y-85000000D01*
X178250000Y-83500000D02*
X178250000Y-100250000D01*
X179500000Y-82250000D02*
X178250000Y-83500000D01*
%TO.N,GND*%
X162750000Y-87000000D02*
X174500000Y-75250000D01*
X174500000Y-75250000D02*
X174500000Y-75000000D01*
X166932380Y-87000000D02*
X176932380Y-97000000D01*
X110000000Y-75000000D02*
X123500000Y-75000000D01*
X174500000Y-75000000D02*
X179500000Y-80000000D01*
X179500000Y-80000000D02*
X190000000Y-80000000D01*
X162750000Y-87000000D02*
X166932380Y-87000000D01*
%TO.N,Net-(C1-Pad1)*%
D22*
X115438172Y-86375000D02*
X125688172Y-76125000D01*
X109000000Y-111500000D02*
X105005000Y-107505000D01*
X125688172Y-76125000D02*
X149125000Y-76125000D01*
X149125000Y-76125000D02*
X150250000Y-75000000D01*
X105005000Y-107505000D02*
X105005000Y-89189544D01*
X105005000Y-89189544D02*
X107819544Y-86375000D01*
X107819544Y-86375000D02*
X115438172Y-86375000D01*
%TO.N,Net-(U1B-+)*%
X106130000Y-91250000D02*
X110050000Y-87330000D01*
X106130000Y-91250000D02*
X106130000Y-96000000D01*
X110050000Y-87330000D02*
X121329000Y-87330000D01*
%TO.N,-9V*%
D23*
X123500000Y-97000000D02*
X134350000Y-107850000D01*
X188150000Y-107850000D02*
X189500000Y-106500000D01*
X174432380Y-98341569D02*
X183940811Y-107850000D01*
X163582380Y-107850000D02*
X174432380Y-97000000D01*
X183940811Y-107850000D02*
X188150000Y-107850000D01*
X134350000Y-107850000D02*
X163582380Y-107850000D01*
X174432380Y-97000000D02*
X174432380Y-98341569D01*
%TO.N,Net-(U2C-+)*%
D22*
X179500000Y-99000000D02*
X179500000Y-89870000D01*
X187000000Y-106500000D02*
X179500000Y-99000000D01*
%TO.N,Net-(D2-K)*%
X143250000Y-84340991D02*
X160750000Y-101840991D01*
X160750000Y-101840991D02*
X160750000Y-106500000D01*
X143250000Y-82250000D02*
X143250000Y-84340991D01*
%TO.N,Net-(D1-K)*%
X113000000Y-111500000D02*
X113000000Y-103279000D01*
X113000000Y-103279000D02*
X128949000Y-87330000D01*
%TO.N,Net-(D1-A)*%
X143310000Y-77500000D02*
X142125000Y-78685000D01*
X142125000Y-101625000D02*
X147000000Y-106500000D01*
X142125000Y-78685000D02*
X142125000Y-101625000D01*
%TD*%
M02*
